<?xml version="1.0" encoding="UTF-8" standalone="no"?>
<!-- Created with Inkscape (http://www.inkscape.org/) -->

<svg
   xmlns:ns0="http://www.iki.fi/pav/software/textext/"
   xmlns:dc="http://purl.org/dc/elements/1.1/"
   xmlns:cc="http://creativecommons.org/ns#"
   xmlns:rdf="http://www.w3.org/1999/02/22-rdf-syntax-ns#"
   xmlns:svg="http://www.w3.org/2000/svg"
   xmlns="http://www.w3.org/2000/svg"
   xmlns:sodipodi="http://sodipodi.sourceforge.net/DTD/sodipodi-0.dtd"
   xmlns:inkscape="http://www.inkscape.org/namespaces/inkscape"
   width="83.00946mm"
   height="83.00946mm"
   viewBox="0 0 294.12801 294.12801"
   id="svg2"
   version="1.1"
   inkscape:version="0.91 r13725"
   sodipodi:docname="centerOfMassDiagram.svg">
  <sodipodi:namedview
     id="base"
     pagecolor="#ffffff"
     bordercolor="#666666"
     borderopacity="1.0"
     inkscape:pageopacity="0.0"
     inkscape:pageshadow="2"
     inkscape:zoom="1.979899"
     inkscape:cx="37.063536"
     inkscape:cy="136.14533"
     inkscape:document-units="px"
     inkscape:current-layer="layer1"
     showgrid="false"
     inkscape:window-width="1920"
     inkscape:window-height="1016"
     inkscape:window-x="1280"
     inkscape:window-y="27"
     inkscape:window-maximized="1"
     inkscape:snap-object-midpoints="false"
     inkscape:snap-center="false"
     fit-margin-top="0"
     fit-margin-left="0"
     fit-margin-right="0"
     fit-margin-bottom="0" />
  <defs
     id="defs4" />
  <metadata
     id="metadata7">
    <rdf:RDF>
      <cc:Work
         rdf:about="">
        <dc:format>image/svg+xml</dc:format>
        <dc:type
           rdf:resource="http://purl.org/dc/dcmitype/StillImage" />
        <dc:title></dc:title>
      </cc:Work>
    </rdf:RDF>
  </metadata>
  <g
     inkscape:label="Layer 1"
     inkscape:groupmode="layer"
     id="layer1"
     transform="translate(-170.41249,-24.649315)">
    <rect
       style="opacity:1;fill:none;fill-opacity:1;stroke:#000000;stroke-width:1.18400002;stroke-linecap:round;stroke-linejoin:round;stroke-miterlimit:4;stroke-dasharray:none;stroke-dashoffset:0;stroke-opacity:1"
       id="rect4136"
       width="207.14285"
       height="207.14285"
       x="-0.87618041"
       y="242.44949"
       transform="matrix(0.70634015,-0.70787258,0.70787258,0.70634015,0,0)" />
    <path
       style="fill:none;fill-rule:evenodd;stroke:#000000;stroke-width:0.99999994px;stroke-linecap:butt;stroke-linejoin:miter;stroke-opacity:1"
       d="m 170.83628,172.74796 145.22018,20.68036"
       id="path4138"
       inkscape:connector-curvature="0" />
    <path
       inkscape:connector-curvature="0"
       id="path4140"
       d="M 317.85533,318.27308 306.15122,175.93603"
       style="fill:none;fill-rule:evenodd;stroke:#000000;stroke-width:1px;stroke-linecap:butt;stroke-linejoin:miter;stroke-opacity:1" />
    <path
       style="fill:none;fill-rule:evenodd;stroke:#000000;stroke-width:1;stroke-linecap:butt;stroke-linejoin:miter;stroke-miterlimit:4;stroke-dasharray:2, 4;stroke-dashoffset:0;stroke-opacity:1"
       d="m 171.72593,172.01426 207.58635,0"
       id="path4155"
       inkscape:connector-curvature="0" />
    <path
       inkscape:connector-curvature="0"
       id="path4157"
       d="m 317.7085,318.24937 0,-207.58634"
       style="fill:none;fill-rule:evenodd;stroke:#000000;stroke-width:1;stroke-linecap:butt;stroke-linejoin:miter;stroke-miterlimit:4;stroke-dasharray:2, 4;stroke-dashoffset:0;stroke-opacity:1" />
    <path
       style="opacity:1;fill:none;fill-opacity:1;stroke:#000000;stroke-width:1.004583;stroke-linecap:round;stroke-linejoin:round;stroke-miterlimit:4;stroke-dasharray:none;stroke-dashoffset:0;stroke-opacity:1"
       id="path4183"
       sodipodi:type="arc"
       sodipodi:cx="333.04279"
       sodipodi:cy="684.80505"
       sodipodi:rx="88.315269"
       sodipodi:ry="528.09998"
       sodipodi:start="4.6306494"
       sodipodi:end="4.7099704"
       d="m 325.83197,158.46831 a 88.315269,528.09998 0 0 1 6.99722,-1.76169"
       sodipodi:open="true"
       transform="matrix(0.98108285,0.19358834,-0.05974531,0.99821365,0,0)" />
    <path
       id="path4185"
       style="opacity:1;fill:none;fill-opacity:1;stroke:#000000;stroke-width:1;stroke-linecap:round;stroke-linejoin:round;stroke-miterlimit:4;stroke-dasharray:none;stroke-dashoffset:0;stroke-opacity:1"
       transform="matrix(0,1,-1,0,0,0)"
       sodipodi:type="arc"
       sodipodi:cx="174.3662"
       sodipodi:cy="-88.425201"
       sodipodi:rx="78.737015"
       sodipodi:ry="168.40631"
       sodipodi:start="4.6868961"
       sodipodi:end="4.839569"
       sodipodi:open="true"
       d="m 172.35918,-256.77679 a 78.737015,168.40631 0 0 1 11.99382,1.30541" />
    <g
       id="content"
       transform="matrix(2.0919223,0,0,-2.0919221,-146.50246,1713.822)"
       xml:space="preserve"
       stroke-miterlimit="10.433"
       font-style="normal"
       font-variant="normal"
       font-weight="normal"
       font-stretch="normal"
       font-size-adjust="none"
       letter-spacing="normal"
       word-spacing="normal"
       ns0:text="$\\theta_1$"
       ns0:preamble=""
       style="font-style:normal;font-variant:normal;font-weight:normal;font-stretch:normal;letter-spacing:normal;word-spacing:normal;text-anchor:start;fill:none;fill-opacity:1;fill-rule:evenodd;stroke:#000000;stroke-width:0.47802925;stroke-linecap:butt;stroke-linejoin:miter;stroke-miterlimit:10.43299961;stroke-dasharray:none;stroke-dashoffset:0;stroke-opacity:1"><path
         d="m 227.96,712.09 0,0.07 0,0.06 -0.01,0.07 0,0.08 -0.01,0.07 0,0.08 -0.01,0.08 -0.01,0.09 -0.02,0.08 -0.01,0.08 -0.02,0.09 -0.02,0.08 -0.02,0.09 -0.03,0.08 -0.03,0.08 -0.03,0.09 -0.03,0.07 -0.04,0.08 -0.04,0.08 -0.04,0.07 -0.05,0.06 -0.05,0.07 -0.05,0.06 -0.06,0.05 -0.06,0.05 -0.03,0.02 -0.04,0.03 -0.03,0.02 -0.04,0.01 -0.03,0.02 -0.04,0.02 -0.04,0.01 -0.04,0.01 -0.04,0.01 -0.04,0.01 -0.05,0.01 -0.04,0 -0.05,0.01 -0.05,0 0,-0.22 c 0.48,0 0.54,-0.64 0.54,-1.2 0,-0.49 -0.08,-1 -0.32,-1.98 l -2.08,0 c 0.17,0.64 0.37,1.43 0.77,2.14 0.27,0.48 0.64,1.04 1.09,1.04 l 0,0.22 c -1.38,0 -2.91,-2.8 -2.91,-5.08 0,-0.93 0.29,-2.03 1.19,-2.03 l 0,0.21 c -0.33,0 -0.53,0.29 -0.53,1.22 0,0.41 0.06,0.99 0.31,1.96 l 2.07,0 c -0.1,-0.45 -0.31,-1.3 -0.69,-2.01 -0.35,-0.68 -0.73,-1.17 -1.16,-1.17 l 0,-0.21 c 1.41,0 2.92,2.85 2.92,5.07 z"
         id="path4200"
         inkscape:connector-curvature="0"
         style="fill:#000000;stroke-width:0" /><path
         d="m 230.44,710.05 0,0.01 0,0.01 0,0.01 0,0.01 0,0 0,0.01 0,0.01 0,0.01 0,0 0,0.01 0,0.01 0,0 0,0.01 0,0 0,0.01 0,0 0,0.01 -0.01,0 0,0.01 0,0.01 0,0.01 -0.01,0 0,0.01 0,0.01 -0.01,0 0,0.01 -0.01,0 -0.01,0 -0.01,0.01 0,0 -0.01,0 -0.01,0 -0.01,0 0,0 -0.01,0 0,0.01 -0.01,0 -0.01,0 0,0 -0.01,0 -0.01,0 0,0 -0.01,0 -0.01,0 0,0 -0.01,0 -0.01,0 -0.01,0 -0.01,0 -0.01,0 c -0.44,-0.44 -1.08,-0.45 -1.36,-0.45 l 0,-0.25 c 0.17,0 0.62,0 1.01,0.2 l 0,-3.55 c 0,-0.23 0,-0.32 -0.7,-0.32 l -0.26,0 0,-0.25 c 0.12,0.01 0.98,0.03 1.24,0.03 0.21,0 1.09,-0.02 1.24,-0.03 l 0,0.25 -0.26,0 c -0.7,0 -0.7,0.09 -0.7,0.32 z"
         id="path4202"
         inkscape:connector-curvature="0"
         style="fill:#000000;stroke-width:0" /></g>    <g
       ns0:preamble=""
       ns0:text="$\\theta_2$"
       word-spacing="normal"
       letter-spacing="normal"
       font-size-adjust="none"
       font-stretch="normal"
       font-weight="normal"
       font-variant="normal"
       font-style="normal"
       stroke-miterlimit="10.433"
       xml:space="preserve"
       transform="matrix(2.0919223,0,0,-2.0919221,-221.25374,1643.6164)"
       id="g4232"
       style="font-style:normal;font-variant:normal;font-weight:normal;font-stretch:normal;letter-spacing:normal;word-spacing:normal;text-anchor:start;fill:none;fill-opacity:1;fill-rule:evenodd;stroke:#000000;stroke-width:0.47802925;stroke-linecap:butt;stroke-linejoin:miter;stroke-miterlimit:10.43299961;stroke-dasharray:none;stroke-dashoffset:0;stroke-opacity:1"><path
         id="path4234"
         d="m 227.96,712.09 0,0.07 0,0.06 -0.01,0.07 0,0.08 -0.01,0.07 0,0.08 -0.01,0.08 -0.01,0.09 -0.02,0.08 -0.01,0.08 -0.02,0.09 -0.02,0.08 -0.02,0.09 -0.03,0.08 -0.03,0.08 -0.03,0.09 -0.03,0.07 -0.04,0.08 -0.04,0.08 -0.04,0.07 -0.05,0.06 -0.05,0.07 -0.05,0.06 -0.06,0.05 -0.06,0.05 -0.03,0.02 -0.04,0.03 -0.03,0.02 -0.04,0.01 -0.03,0.02 -0.04,0.02 -0.04,0.01 -0.04,0.01 -0.04,0.01 -0.04,0.01 -0.05,0.01 -0.04,0 -0.05,0.01 -0.05,0 0,-0.22 c 0.48,0 0.54,-0.64 0.54,-1.2 0,-0.49 -0.08,-1 -0.32,-1.98 l -2.08,0 c 0.17,0.64 0.37,1.43 0.77,2.14 0.27,0.48 0.64,1.04 1.09,1.04 l 0,0.22 c -1.38,0 -2.91,-2.8 -2.91,-5.08 0,-0.93 0.29,-2.03 1.19,-2.03 l 0,0.21 c -0.33,0 -0.53,0.29 -0.53,1.22 0,0.41 0.06,0.99 0.31,1.96 l 2.07,0 c -0.1,-0.45 -0.31,-1.3 -0.69,-2.01 -0.35,-0.68 -0.73,-1.17 -1.16,-1.17 l 0,-0.21 c 1.41,0 2.92,2.85 2.92,5.07 z"
         inkscape:connector-curvature="0"
         style="fill:#000000;stroke-width:0" /><path
         id="path4236"
         d="m 231.63,706.9 -0.24,0 c -0.02,-0.16 -0.09,-0.57 -0.18,-0.64 -0.06,-0.04 -0.59,-0.04 -0.69,-0.04 l -1.28,0 c 0.73,0.65 0.97,0.84 1.39,1.17 0.52,0.41 1,0.84 1,1.5 0,0.84 -0.74,1.36 -1.63,1.36 -0.87,0 -1.45,-0.61 -1.45,-1.25 0,-0.35 0.3,-0.39 0.37,-0.39 0.16,0 0.37,0.12 0.37,0.37 0,0.13 -0.05,0.37 -0.41,0.37 0.21,0.49 0.69,0.65 1.01,0.65 0.7,0 1.06,-0.54 1.06,-1.11 0,-0.6 -0.43,-1.08 -0.65,-1.33 l -1.68,-1.66 c -0.07,-0.06 -0.07,-0.07 -0.07,-0.27 l 2.87,0 z"
         inkscape:connector-curvature="0"
         style="fill:#000000;stroke-width:0" /></g>  </g>
</svg>
