<?xml version="1.0" encoding="UTF-8" standalone="no"?>
<!-- Created with Inkscape (http://www.inkscape.org/) -->

<svg
   xmlns:ns0="http://www.iki.fi/pav/software/textext/"
   xmlns:dc="http://purl.org/dc/elements/1.1/"
   xmlns:cc="http://creativecommons.org/ns#"
   xmlns:rdf="http://www.w3.org/1999/02/22-rdf-syntax-ns#"
   xmlns:svg="http://www.w3.org/2000/svg"
   xmlns="http://www.w3.org/2000/svg"
   xmlns:sodipodi="http://sodipodi.sourceforge.net/DTD/sodipodi-0.dtd"
   xmlns:inkscape="http://www.inkscape.org/namespaces/inkscape"
   width="136.31667mm"
   height="142.27812mm"
   viewBox="0 0 483.01181 504.13507"
   id="svg30601"
   version="1.1"
   inkscape:version="0.91 r13725"
   sodipodi:docname="freeBodyFrame.svg">
  <sodipodi:namedview
     id="base"
     pagecolor="#ffffff"
     bordercolor="#666666"
     borderopacity="1.0"
     inkscape:pageopacity="0.0"
     inkscape:pageshadow="2"
     inkscape:zoom="0.98994949"
     inkscape:cx="55.333834"
     inkscape:cy="256.31288"
     inkscape:document-units="px"
     inkscape:current-layer="layer1"
     showgrid="false"
     inkscape:window-width="1600"
     inkscape:window-height="847"
     inkscape:window-x="-8"
     inkscape:window-y="-8"
     inkscape:window-maximized="1"
     inkscape:snap-object-midpoints="true"
     fit-margin-top="0"
     fit-margin-left="0"
     fit-margin-right="0"
     fit-margin-bottom="0" />
  <defs
     id="defs30603">
    <marker
       inkscape:isstock="true"
       style="overflow:visible"
       id="marker62703"
       refX="0"
       refY="0"
       orient="auto"
       inkscape:stockid="Arrow1Lend">
      <path
         inkscape:connector-curvature="0"
         transform="matrix(-0.8,0,0,-0.8,-10,0)"
         style="fill:#000000;fill-opacity:1;fill-rule:evenodd;stroke:#000000;stroke-width:1pt;stroke-opacity:1"
         d="M 0,0 5,-5 -12.5,0 5,5 0,0 Z"
         id="path62705" />
    </marker>
    <marker
       inkscape:stockid="Arrow1Lend"
       orient="auto"
       refY="0"
       refX="0"
       id="marker61535"
       style="overflow:visible"
       inkscape:isstock="true">
      <path
         id="path61537"
         d="M 0,0 5,-5 -12.5,0 5,5 0,0 Z"
         style="fill:#000000;fill-opacity:1;fill-rule:evenodd;stroke:#000000;stroke-width:1pt;stroke-opacity:1"
         transform="matrix(-0.8,0,0,-0.8,-10,0)"
         inkscape:connector-curvature="0" />
    </marker>
    <marker
       inkscape:collect="always"
       inkscape:isstock="true"
       style="overflow:visible"
       id="Arrow2Lend"
       refX="0"
       refY="0"
       orient="auto"
       inkscape:stockid="Arrow2Lend">
      <path
         inkscape:connector-curvature="0"
         transform="matrix(-1.1,0,0,-1.1,-1.1,0)"
         d="M 8.7185878,4.0337352 -2.2072895,0.01601326 8.7185884,-4.0017078 c -1.7454984,2.3720609 -1.7354408,5.6174519 -6e-7,8.035443 z"
         style="fill:#000000;fill-opacity:1;fill-rule:evenodd;stroke:#000000;stroke-width:0.625;stroke-linejoin:round;stroke-opacity:1"
         id="path4165" />
    </marker>
    <marker
       inkscape:stockid="Arrow2Lend"
       orient="auto"
       refY="0"
       refX="0"
       id="marker23488"
       style="overflow:visible"
       inkscape:isstock="true">
      <path
         inkscape:connector-curvature="0"
         id="path23490"
         style="fill:#000000;fill-opacity:1;fill-rule:evenodd;stroke:#000000;stroke-width:0.625;stroke-linejoin:round;stroke-opacity:1"
         d="M 8.7185878,4.0337352 -2.2072895,0.01601326 8.7185884,-4.0017078 c -1.7454984,2.3720609 -1.7354408,5.6174519 -6e-7,8.035443 z"
         transform="matrix(-1.1,0,0,-1.1,-1.1,0)" />
    </marker>
    <marker
       inkscape:stockid="Arrow1Lend"
       orient="auto"
       refY="0"
       refX="0"
       id="Arrow1Lend"
       style="overflow:visible"
       inkscape:isstock="true"
       inkscape:collect="always">
      <path
         id="path4147"
         d="M 0,0 5,-5 -12.5,0 5,5 0,0 Z"
         style="fill:#000000;fill-opacity:1;fill-rule:evenodd;stroke:#000000;stroke-width:1pt;stroke-opacity:1"
         transform="matrix(-0.8,0,0,-0.8,-10,0)"
         inkscape:connector-curvature="0" />
    </marker>
    <marker
       inkscape:stockid="Arrow1Lend"
       orient="auto"
       refY="0"
       refX="0"
       id="marker7503"
       style="overflow:visible"
       inkscape:isstock="true"
       inkscape:collect="always">
      <path
         id="path7505"
         d="M 0,0 5,-5 -12.5,0 5,5 0,0 Z"
         style="fill:#000000;fill-opacity:1;fill-rule:evenodd;stroke:#000000;stroke-width:1pt;stroke-opacity:1"
         transform="matrix(-0.8,0,0,-0.8,-10,0)"
         inkscape:connector-curvature="0" />
    </marker>
    <marker
       inkscape:isstock="true"
       style="overflow:visible"
       id="marker6375"
       refX="0"
       refY="0"
       orient="auto"
       inkscape:stockid="Arrow1Lend"
       inkscape:collect="always">
      <path
         inkscape:connector-curvature="0"
         transform="matrix(-0.8,0,0,-0.8,-10,0)"
         style="fill:#000000;fill-opacity:1;fill-rule:evenodd;stroke:#000000;stroke-width:1pt;stroke-opacity:1"
         d="M 0,0 5,-5 -12.5,0 5,5 0,0 Z"
         id="path6377" />
    </marker>
    <marker
       inkscape:stockid="Arrow2Lend"
       orient="auto"
       refY="0"
       refX="0"
       id="marker23488-4"
       style="overflow:visible"
       inkscape:isstock="true">
      <path
         inkscape:connector-curvature="0"
         id="path23490-3"
         style="fill:#000000;fill-opacity:1;fill-rule:evenodd;stroke:#000000;stroke-width:0.625;stroke-linejoin:round;stroke-opacity:1"
         d="M 8.7185878,4.0337352 -2.2072895,0.01601326 8.7185884,-4.0017078 c -1.7454984,2.3720609 -1.7354408,5.6174519 -6e-7,8.035443 z"
         transform="matrix(-1.1,0,0,-1.1,-1.1,0)" />
    </marker>
    <marker
       inkscape:stockid="Arrow2Lend"
       orient="auto"
       refY="0"
       refX="0"
       id="marker23488-9"
       style="overflow:visible"
       inkscape:isstock="true"
       inkscape:collect="always">
      <path
         inkscape:connector-curvature="0"
         id="path23490-2"
         style="fill:#000000;fill-opacity:1;fill-rule:evenodd;stroke:#000000;stroke-width:0.625;stroke-linejoin:round;stroke-opacity:1"
         d="M 8.7185878,4.0337352 -2.2072895,0.01601326 8.7185884,-4.0017078 c -1.7454984,2.3720609 -1.7354408,5.6174519 -6e-7,8.035443 z"
         transform="matrix(-1.1,0,0,-1.1,-1.1,0)" />
    </marker>
    <marker
       inkscape:isstock="true"
       style="overflow:visible"
       id="Arrow2Lend-7"
       refX="0"
       refY="0"
       orient="auto"
       inkscape:stockid="Arrow2Lend"
       inkscape:collect="always">
      <path
         inkscape:connector-curvature="0"
         transform="matrix(-1.1,0,0,-1.1,-1.1,0)"
         d="M 8.7185878,4.0337352 -2.2072895,0.01601326 8.7185884,-4.0017078 c -1.7454984,2.3720609 -1.7354408,5.6174519 -6e-7,8.035443 z"
         style="fill:#000000;fill-opacity:1;fill-rule:evenodd;stroke:#000000;stroke-width:0.625;stroke-linejoin:round;stroke-opacity:1"
         id="path4165-3" />
    </marker>
  </defs>
  <metadata
     id="metadata30606">
    <rdf:RDF>
      <cc:Work
         rdf:about="">
        <dc:format>image/svg+xml</dc:format>
        <dc:type
           rdf:resource="http://purl.org/dc/dcmitype/StillImage" />
        <dc:title />
      </cc:Work>
    </rdf:RDF>
  </metadata>
  <g
     transform="translate(-114.35125,-142.42438)"
     id="layer1"
     inkscape:groupmode="layer"
     inkscape:label="Calque 1">
    <g
       id="content"
       transform="matrix(3.7443597,0,0,-3.7443599,-405.11062,3085.7851)"
       xml:space="preserve"
       stroke-miterlimit="10.433"
       font-style="normal"
       font-variant="normal"
       font-weight="normal"
       font-stretch="normal"
       font-size-adjust="none"
       letter-spacing="normal"
       word-spacing="normal"
       ns0:text="$F_y$"
       ns0:preamble=""
       style="font-style:normal;font-variant:normal;font-weight:normal;font-stretch:normal;letter-spacing:normal;word-spacing:normal;text-anchor:start;fill:none;fill-opacity:1;fill-rule:evenodd;stroke:#000000;stroke-width:0.26706833;stroke-linecap:butt;stroke-linejoin:miter;stroke-miterlimit:10.43299961;stroke-dasharray:none;stroke-dashoffset:0;stroke-opacity:1"><path
         d="m 226.45,710.35 0.96,0 c 0.75,0 0.83,-0.15 0.83,-0.44 0,-0.07 0,-0.19 -0.07,-0.49 -0.02,-0.05 -0.03,-0.09 -0.03,-0.11 0,-0.08 0.06,-0.12 0.12,-0.12 0.1,0 0.1,0.03 0.15,0.21 l 0.54,2.15 c 0.03,0.11 0.03,0.13 0.03,0.16 0,0.02 -0.02,0.11 -0.12,0.11 -0.1,0 -0.1,-0.05 -0.15,-0.21 -0.2,-0.77 -0.43,-0.95 -1.28,-0.95 l -0.9,0 0.63,2.52 c 0.09,0.35 0.1,0.39 0.54,0.39 l 1.31,0 c 1.23,0 1.46,-0.33 1.46,-1.09 0,-0.23 0,-0.27 -0.03,-0.54 -0.02,-0.13 -0.02,-0.15 -0.02,-0.18 0,-0.05 0.03,-0.11 0.12,-0.11 0.11,0 0.11,0.06 0.14,0.24 l 0.19,1.72 c 0.03,0.27 -0.02,0.27 -0.27,0.27 l -4.87,0 c -0.2,0 -0.3,0 -0.3,-0.2 0,-0.11 0.09,-0.11 0.28,-0.11 0.37,0 0.65,0 0.65,-0.18 0,-0.04 0,-0.06 -0.05,-0.23 l -1.32,-5.26 c -0.09,-0.39 -0.11,-0.47 -0.9,-0.47 -0.17,0 -0.28,0 -0.28,-0.19 0,-0.12 0.12,-0.12 0.15,-0.12 0.29,0 1.02,0.04 1.31,0.04 0.33,0 1.16,-0.04 1.49,-0.04 0.09,0 0.2,0 0.2,0.19 0,0.08 -0.06,0.1 -0.06,0.11 -0.03,0.01 -0.05,0.01 -0.27,0.01 -0.22,0 -0.27,0 -0.52,0.02 -0.29,0.03 -0.32,0.07 -0.32,0.2 0,0.02 0,0.08 0.04,0.23 z"
         id="path6255"
         inkscape:connector-curvature="0"
         style="fill:#000000;stroke-width:0" /><path
         d="m 233.71,708.25 0,0.01 0,0 0,0.01 0.01,0 0,0 0,0.01 0,0.01 0,0 0,0.01 0.01,0.01 0,0 0,0.01 0,0 0,0.01 0,0 0,0.01 0,0 0,0.01 0.01,0 0,0 0,0.01 0,0 0,0 0,0.01 0,0.01 0,0 0,0.01 0,0 0,0.01 0,0 0,0.01 c 0,0.13 -0.11,0.22 -0.23,0.22 -0.08,0 -0.21,-0.04 -0.29,-0.17 -0.02,-0.04 -0.07,-0.26 -0.11,-0.4 l -0.14,-0.58 c -0.05,-0.17 -0.26,-1.04 -0.28,-1.12 -0.01,0 -0.32,-0.6 -0.86,-0.6 -0.47,0 -0.47,0.45 -0.47,0.57 0,0.38 0.16,0.82 0.37,1.35 0.08,0.23 0.12,0.31 0.12,0.43 0,0.33 -0.29,0.59 -0.67,0.59 -0.7,0 -1.01,-0.95 -1.01,-1.07 0,-0.09 0.09,-0.09 0.12,-0.09 0.09,0 0.1,0.04 0.12,0.11 0.17,0.58 0.47,0.85 0.75,0.85 0.12,0 0.18,-0.07 0.18,-0.24 0,-0.16 -0.07,-0.31 -0.1,-0.4 -0.34,-0.85 -0.4,-1.11 -0.4,-1.41 0,-0.12 0,-0.45 0.27,-0.67 0.21,-0.18 0.51,-0.22 0.69,-0.22 0.28,0 0.53,0.11 0.76,0.31 -0.09,-0.38 -0.16,-0.67 -0.46,-1.02 -0.19,-0.21 -0.46,-0.44 -0.83,-0.44 -0.05,0 -0.38,0 -0.53,0.23 0.38,0.04 0.38,0.37 0.38,0.38 0,0.22 -0.2,0.26 -0.27,0.26 -0.17,0 -0.4,-0.14 -0.4,-0.46 0,-0.35 0.33,-0.61 0.82,-0.61 0.71,0 1.56,0.55 1.78,1.41 z"
         id="path6257"
         inkscape:connector-curvature="0"
         style="fill:#000000;stroke-width:0" /></g>    <g
       ns0:preamble=""
       ns0:text="$F_x$"
       word-spacing="normal"
       letter-spacing="normal"
       font-size-adjust="none"
       font-stretch="normal"
       font-weight="normal"
       font-variant="normal"
       font-style="normal"
       stroke-miterlimit="10.433"
       xml:space="preserve"
       transform="matrix(3.905293,0,0,-3.905293,-512.51021,3087.3699)"
       id="g6291"
       style="font-style:normal;font-variant:normal;font-weight:normal;font-stretch:normal;letter-spacing:normal;word-spacing:normal;text-anchor:start;fill:none;fill-opacity:1;fill-rule:evenodd;stroke:#000000;stroke-width:0.25606272;stroke-linecap:butt;stroke-linejoin:miter;stroke-miterlimit:10.43299961;stroke-dasharray:none;stroke-dashoffset:0;stroke-opacity:1"><path
         id="path6293"
         d="m 226.45,710.35 0.96,0 c 0.75,0 0.83,-0.15 0.83,-0.44 0,-0.07 0,-0.19 -0.07,-0.49 -0.02,-0.05 -0.03,-0.09 -0.03,-0.11 0,-0.08 0.06,-0.12 0.12,-0.12 0.1,0 0.1,0.03 0.15,0.21 l 0.54,2.15 c 0.03,0.11 0.03,0.13 0.03,0.16 0,0.02 -0.02,0.11 -0.12,0.11 -0.1,0 -0.1,-0.05 -0.15,-0.21 -0.2,-0.77 -0.43,-0.95 -1.28,-0.95 l -0.9,0 0.63,2.52 c 0.09,0.35 0.1,0.39 0.54,0.39 l 1.31,0 c 1.23,0 1.46,-0.33 1.46,-1.09 0,-0.23 0,-0.27 -0.03,-0.54 -0.02,-0.13 -0.02,-0.15 -0.02,-0.18 0,-0.05 0.03,-0.11 0.12,-0.11 0.11,0 0.11,0.06 0.14,0.24 l 0.19,1.72 c 0.03,0.27 -0.02,0.27 -0.27,0.27 l -4.87,0 c -0.2,0 -0.3,0 -0.3,-0.2 0,-0.11 0.09,-0.11 0.28,-0.11 0.37,0 0.65,0 0.65,-0.18 0,-0.04 0,-0.06 -0.05,-0.23 l -1.32,-5.26 c -0.09,-0.39 -0.11,-0.47 -0.9,-0.47 -0.17,0 -0.28,0 -0.28,-0.19 0,-0.12 0.12,-0.12 0.15,-0.12 0.29,0 1.02,0.04 1.31,0.04 0.33,0 1.16,-0.04 1.49,-0.04 0.09,0 0.2,0 0.2,0.19 0,0.08 -0.06,0.1 -0.06,0.11 -0.03,0.01 -0.05,0.01 -0.27,0.01 -0.22,0 -0.27,0 -0.52,0.02 -0.29,0.03 -0.32,0.07 -0.32,0.2 0,0.02 0,0.08 0.04,0.23 z"
         inkscape:connector-curvature="0"
         style="fill:#000000;stroke-width:0" /><path
         id="path6295"
         d="m 231.57,706.37 0,-0.02 -0.01,-0.03 -0.01,-0.02 -0.01,-0.03 -0.01,-0.02 -0.01,-0.03 -0.02,-0.02 -0.01,-0.03 -0.01,-0.02 -0.02,-0.03 -0.01,-0.02 -0.02,-0.03 -0.02,-0.02 -0.02,-0.03 -0.02,-0.02 -0.02,-0.03 -0.02,-0.02 -0.02,-0.02 -0.02,-0.02 -0.03,-0.02 -0.02,-0.02 -0.03,-0.02 -0.02,-0.02 -0.03,-0.01 -0.03,-0.02 -0.02,-0.01 -0.03,-0.01 -0.03,-0.01 -0.03,0 -0.04,-0.01 -0.03,0 -0.03,0 c -0.02,0 -0.23,0 -0.38,0.09 0.29,0.09 0.31,0.34 0.31,0.39 0,0.15 -0.12,0.25 -0.28,0.25 -0.19,0 -0.4,-0.16 -0.4,-0.42 0,-0.35 0.39,-0.51 0.73,-0.51 0.33,0 0.61,0.2 0.78,0.49 0.17,-0.36 0.56,-0.49 0.83,-0.49 0.8,0 1.23,0.87 1.23,1.06 0,0.1 -0.09,0.1 -0.11,0.1 -0.1,0 -0.11,-0.04 -0.14,-0.12 -0.14,-0.48 -0.56,-0.84 -0.95,-0.84 -0.28,0 -0.42,0.18 -0.42,0.45 0,0.18 0.16,0.81 0.36,1.58 0.14,0.54 0.45,0.71 0.68,0.71 0.02,0 0.23,0 0.38,-0.09 -0.23,-0.07 -0.31,-0.26 -0.31,-0.39 0,-0.15 0.12,-0.25 0.28,-0.25 0.16,0 0.39,0.13 0.39,0.42 0,0.39 -0.45,0.51 -0.72,0.51 -0.35,0 -0.63,-0.23 -0.78,-0.5 -0.13,0.29 -0.45,0.5 -0.84,0.5 -0.78,0 -1.23,-0.86 -1.23,-1.07 0,-0.09 0.1,-0.09 0.12,-0.09 0.09,0 0.1,0.03 0.13,0.12 0.18,0.54 0.62,0.84 0.96,0.84 0.23,0 0.42,-0.12 0.42,-0.46 0,-0.13 -0.09,-0.48 -0.15,-0.72 z"
         inkscape:connector-curvature="0"
         style="fill:#000000;stroke-width:0" /></g>    <path
       transform="matrix(0.57812279,-0.81594977,-0.8159498,-0.57812276,0,0)"
       sodipodi:open="true"
       style="fill:none;stroke:#000000;stroke-width:1;stroke-linecap:butt;stroke-linejoin:round;stroke-miterlimit:4;stroke-dasharray:none;stroke-dashoffset:0;stroke-opacity:1;marker-end:url(#Arrow2Lend)"
       id="path8386"
       sodipodi:type="arc"
       sodipodi:cx="-353.00833"
       sodipodi:cy="-607.04211"
       sodipodi:rx="29.797939"
       sodipodi:ry="29.797939"
       sodipodi:start="6.165055"
       sodipodi:end="1.6815058"
       d="m -323.41806,-610.55397 a 29.797939,29.797939 0 0 1 -8.44191,24.50386 29.797939,29.797939 0 0 1 -24.44054,8.62351" />
    <rect
       transform="matrix(-0.8660254,0.5,0.5,0.8660254,0,0)"
       y="346.86295"
       x="-285.21451"
       height="352.85715"
       width="352.85715"
       id="rect31149"
       style="fill:none;fill-opacity:1;stroke:#000000;stroke-width:1;stroke-linecap:butt;stroke-linejoin:round;stroke-miterlimit:4;stroke-dasharray:none;stroke-dashoffset:0;stroke-opacity:1" />
    <path
       inkscape:connector-curvature="0"
       id="path6371"
       d="m 354.9246,399.79183 0,-143.49414"
       style="fill:none;fill-rule:evenodd;stroke:#000000;stroke-width:1px;stroke-linecap:butt;stroke-linejoin:miter;stroke-opacity:1;marker-end:url(#marker6375)" />
    <path
       style="fill:none;fill-rule:evenodd;stroke:#000000;stroke-width:0.99999994px;stroke-linecap:butt;stroke-linejoin:miter;stroke-opacity:1;marker-end:url(#marker7503)"
       d="m 353.75878,398.88077 177.55245,0"
       id="path6373"
       inkscape:connector-curvature="0" />
    <circle
       style="fill:#000000;fill-opacity:1;stroke:#000000;stroke-width:1;stroke-linecap:round;stroke-linejoin:round;stroke-miterlimit:4;stroke-dasharray:none;stroke-dashoffset:0;stroke-opacity:1"
       id="path6320"
       cx="-355.85712"
       cy="398.7908"
       r="2.4796982"
       transform="scale(-1,1)" />
    <ellipse
       cy="640.58368"
       cx="-290.7612"
       id="circle46160"
       style="fill:#000000;fill-opacity:1;stroke:#000000;stroke-width:0.99999994;stroke-linecap:round;stroke-linejoin:round;stroke-miterlimit:4;stroke-dasharray:none;stroke-dashoffset:0;stroke-opacity:1"
       transform="scale(-1,1)"
       rx="2.5464361"
       ry="2.546597" />
    <g
       id="g64789">
      <path
         inkscape:connector-curvature="0"
         id="path61531"
         d="m 291.56463,642.95962 0,-498.71521"
         style="opacity:0.40800003;fill:none;fill-rule:evenodd;stroke:#000000;stroke-width:1;stroke-linecap:butt;stroke-linejoin:miter;stroke-miterlimit:4;stroke-dasharray:6, 6;stroke-dashoffset:0;stroke-opacity:1;marker-end:url(#marker61535)" />
      <path
         style="opacity:0.40800003;fill:none;fill-rule:evenodd;stroke:#000000;stroke-width:1;stroke-linecap:butt;stroke-linejoin:miter;stroke-miterlimit:4;stroke-dasharray:6.00000001, 6.00000001;stroke-dashoffset:0;stroke-opacity:1;marker-end:url(#marker62703)"
         d="m 289.84091,641.54859 293.85938,0"
         id="path61533"
         inkscape:connector-curvature="0" />
      <g
         style="font-style:normal;font-variant:normal;font-weight:normal;font-stretch:normal;letter-spacing:normal;word-spacing:normal;text-anchor:start;opacity:0.48600003;fill:none;fill-opacity:1;fill-rule:evenodd;stroke:#000000;stroke-width:0.20962609;stroke-linecap:butt;stroke-linejoin:miter;stroke-miterlimit:10.43299961;stroke-dasharray:none;stroke-dashoffset:0;stroke-opacity:1"
         ns0:preamble=""
         ns0:text="$x$"
         word-spacing="normal"
         letter-spacing="normal"
         font-size-adjust="none"
         font-stretch="normal"
         font-weight="normal"
         font-variant="normal"
         font-style="normal"
         stroke-miterlimit="10.433"
         xml:space="preserve"
         transform="matrix(4.770399,0,0,-4.7703983,-812.18875,3538.7798)"
         id="g64621"><path
           style="fill:#000000;stroke-width:0"
           inkscape:connector-curvature="0"
           id="path64623"
           d="m 226.26978,710.34576 0,0.0252 0.008,0.0252 0.008,0.0252 0.008,0.0335 0.008,0.0335 0.008,0.0335 0.008,0.0335 0.0168,0.0419 0.008,0.0335 0.0168,0.0419 0.0168,0.0419 0.0168,0.0419 0.0168,0.0419 0.0252,0.0419 0.0168,0.0419 0.0252,0.0419 0.0252,0.0419 0.0252,0.0336 0.0252,0.0419 0.0336,0.0335 0.0335,0.0419 0.0335,0.0335 0.0335,0.0335 0.0336,0.0252 0.0419,0.0252 0.0419,0.0252 0.0168,0.008 0.0252,0.0168 0.0168,0.008 0.0252,0.008 0.0252,0.008 0.0252,0 0.0252,0.008 0.0168,0.008 0.0335,0 0.0252,0 0.0252,0.008 0.0252,0 c 0.0419,0 0.24324,0 0.41938,-0.10904 -0.23485,-0.0419 -0.4026,-0.25163 -0.4026,-0.45292 0,-0.1342 0.0923,-0.29356 0.31872,-0.29356 0.18453,0 0.45292,0.15097 0.45292,0.48647 0,0.43614 -0.49486,0.55357 -0.78003,0.55357 -0.48647,0 -0.78003,-0.44454 -0.87229,-0.63745 -0.20969,0.55357 -0.66261,0.63745 -0.90585,0.63745 -0.8639,0 -1.34199,-1.08198 -1.34199,-1.28328 0,-0.0839 0.0839,-0.0839 0.10065,-0.0839 0.0671,0 0.0923,0.0168 0.10904,0.0923 0.28517,0.88068 0.83035,1.09037 1.11553,1.09037 0.15936,0 0.45292,-0.0755 0.45292,-0.56196 0,-0.26001 -0.14259,-0.81359 -0.45292,-1.97944 -0.1342,-0.52002 -0.42776,-0.8723 -0.78842,-0.8723 -0.0503,0 -0.24324,0 -0.41937,0.10904 0.20968,0.0419 0.39421,0.21807 0.39421,0.45292 0,0.22646 -0.18453,0.29356 -0.31034,0.29356 -0.25162,0 -0.46131,-0.21807 -0.46131,-0.48647 0,-0.38582 0.41937,-0.54518 0.78842,-0.54518 0.54518,0 0.84713,0.57873 0.87229,0.62906 0.10065,-0.31034 0.4026,-0.62906 0.89746,-0.62906 0.86391,0 1.34199,1.07359 1.34199,1.28328 0,0.0839 -0.0755,0.0839 -0.10065,0.0839 -0.0755,0 -0.0923,-0.0419 -0.10903,-0.0923 -0.27679,-0.89746 -0.84714,-1.09876 -1.11553,-1.09876 -0.31873,0 -0.45293,0.2684 -0.45293,0.55358 0,0.18452 0.0503,0.36904 0.14259,0.7297 z" /></g>      <g
         style="font-style:normal;font-variant:normal;font-weight:normal;font-stretch:normal;letter-spacing:normal;word-spacing:normal;text-anchor:start;opacity:0.48600003;fill:none;fill-opacity:1;fill-rule:evenodd;stroke:#000000;stroke-width:0.24992837;stroke-linecap:butt;stroke-linejoin:miter;stroke-miterlimit:10.43299961;stroke-dasharray:none;stroke-dashoffset:0;stroke-opacity:1"
         id="g64723"
         transform="matrix(4.0011468,0,0,-4.0011463,-340.79425,3452.5051)"
         xml:space="preserve"
         stroke-miterlimit="10.433"
         font-style="normal"
         font-variant="normal"
         font-weight="normal"
         font-stretch="normal"
         font-size-adjust="none"
         letter-spacing="normal"
         word-spacing="normal"
         ns0:text="$y$"
         ns0:preamble=""><path
           style="fill:#000000;stroke-width:0"
           inkscape:connector-curvature="0"
           d="m 228.27,710.91 0,0.01 0,0 0,0.01 0,0 0.01,0.02 0,0.01 0,0.01 0.01,0.01 0,0.01 0,0 0,0.01 0,0.01 0.01,0.01 0,0.01 0,0 0,0.01 0,0 0,0.01 0,0.01 0,0 0,0.01 0,0 0.01,0.01 0,0.01 0,0.01 0,0.01 0,0.01 0,0.01 0,0 0,0.01 c 0,0.18 -0.14,0.27 -0.29,0.27 -0.1,0 -0.26,-0.06 -0.35,-0.21 -0.02,-0.05 -0.1,-0.36 -0.14,-0.54 -0.07,-0.26 -0.14,-0.52 -0.2,-0.79 l -0.45,-1.79 c -0.03,-0.15 -0.46,-0.85 -1.12,-0.85 -0.51,0 -0.62,0.44 -0.62,0.81 0,0.46 0.17,1.07 0.51,1.95 0.16,0.4 0.2,0.51 0.2,0.71 0,0.45 -0.32,0.82 -0.82,0.82 -0.94,0 -1.31,-1.44 -1.31,-1.53 0,-0.1 0.1,-0.1 0.12,-0.1 0.1,0 0.11,0.02 0.16,0.18 0.27,0.93 0.67,1.23 1,1.23 0.08,0 0.25,0 0.25,-0.32 0,-0.25 -0.1,-0.51 -0.17,-0.7 -0.39,-1.05 -0.57,-1.62 -0.57,-2.08 0,-0.89 0.62,-1.18 1.21,-1.18 0.39,0 0.73,0.16 1.01,0.44 -0.13,-0.51 -0.25,-1 -0.65,-1.53 -0.26,-0.34 -0.64,-0.62 -1.1,-0.62 -0.13,0 -0.58,0.03 -0.75,0.41 0.16,0 0.29,0 0.43,0.12 0.1,0.09 0.19,0.22 0.19,0.41 0,0.31 -0.26,0.35 -0.36,0.35 -0.23,0 -0.56,-0.16 -0.56,-0.65 0,-0.49 0.44,-0.86 1.05,-0.86 1.03,0 2.05,0.9 2.33,2.02 z"
           id="path64725" /></g>    </g>
    <g
       id="g66479"
       transform="translate(2.0000001,-6.8838838)">
      <path
         inkscape:connector-curvature="0"
         id="path4138"
         d="m 339.24027,460.38163 0,146.0513"
         style="fill:none;fill-rule:evenodd;stroke:#000000;stroke-width:0.99999994px;stroke-linecap:butt;stroke-linejoin:miter;stroke-opacity:1;marker-end:url(#Arrow1Lend)" />
      <circle
         style="fill:#000000;fill-opacity:1;stroke:#000000;stroke-width:1;stroke-linecap:round;stroke-linejoin:round;stroke-miterlimit:4;stroke-dasharray:none;stroke-dashoffset:0;stroke-opacity:1"
         id="circle66425"
         cx="-339.32141"
         cy="461.57651"
         r="2.4796982"
         transform="scale(-1,1)" />
    </g>
    <path
       style="fill:none;fill-rule:evenodd;stroke:#000000;stroke-width:1;stroke-linecap:butt;stroke-linejoin:miter;stroke-opacity:1;stroke-miterlimit:4;stroke-dasharray:12, 12;stroke-dashoffset:0;opacity:0.429"
       d="M 290.76119,640.58364 355.8571,398.79078"
       id="path66465"
       inkscape:connector-curvature="0" />
    <g
       id="g3442"
       transform="matrix(0.78251391,0,0,0.78251389,39.763608,547.18339)">
      <g
         id="g3444"
         transform="matrix(0.69001689,0,0,-0.69001689,-120.75296,378.1013)"
         xml:space="preserve"
         stroke-miterlimit="10.433"
         font-style="normal"
         font-variant="normal"
         font-weight="normal"
         font-stretch="normal"
         font-size-adjust="none"
         letter-spacing="normal"
         word-spacing="normal"
         style="font-style:normal;font-variant:normal;font-weight:normal;font-stretch:normal;letter-spacing:normal;word-spacing:normal;text-anchor:start;fill:none;fill-opacity:1;fill-rule:evenodd;stroke:#000000;stroke-width:1.27793252;stroke-linecap:butt;stroke-linejoin:miter;stroke-miterlimit:10.43299961;stroke-dasharray:none;stroke-dashoffset:0;stroke-opacity:1"><path
           d="m 463.49,410.09 -0.05,-0.18 -0.04,-0.17 -0.05,-0.16 -0.04,-0.15 -0.04,-0.15 -0.05,-0.13 -0.05,-0.13 -0.05,-0.12 -0.05,-0.11 -0.06,-0.11 -0.07,-0.1 -0.07,-0.09 -0.07,-0.09 -0.09,-0.07 -0.09,-0.08 -0.11,-0.06 -0.11,-0.07 -0.13,-0.05 -0.13,-0.05 -0.15,-0.05 -0.16,-0.04 -0.09,-0.02 -0.09,-0.01 -0.09,-0.02 -0.1,-0.02 -0.1,-0.01 -0.1,-0.01 -0.11,-0.01 -0.12,-0.02 -0.11,-0.01 -0.13,-0.01 -0.12,0 -0.13,-0.01 -0.14,-0.01 -0.14,0 -0.14,-0.01 -0.15,0 -0.16,-0.01 -0.16,0 -0.16,0 -0.17,0 -0.18,0 -0.18,0 c -0.85,0 -1.35,0 -1.35,-1 0,-0.55 0.46,-0.55 1.35,-0.55 l 17.78,0 c 7.87,0 13.75,5.87 13.75,10.76 0,3.58 -2.89,6.47 -7.72,7.02 5.19,0.95 10.42,4.64 10.42,9.38 0,3.68 -3.3,6.87 -9.28,6.87 l -0.69,-1.55 c 4.38,0 5.42,-2.93 5.42,-5.12 0,-4.39 -4.28,-9.13 -10.35,-9.13 l -7.27,0 -0.3,-1.09 9.41,0 c 4.78,0 5.73,-3.69 5.73,-5.83 0,-4.94 -4.43,-9.76 -10.31,-9.76 l -6.78,0 c -0.69,0 -0.8,0 -1.09,0.04 -0.5,0.05 -0.64,0.1 -0.64,0.5 0,0.14 0,0.25 0.25,1.14 l 3.43,13.91 0.3,1.09 3.08,12.36 c 0.45,1.74 0.54,1.89 2.7,1.89 l 6.42,0 0.69,1.55 -16.73,0 c -0.94,0 -1.44,0 -1.44,-1 0,-0.55 0.44,-0.55 1.39,-0.55 0.09,0 1.05,0 1.89,-0.09 0.89,-0.11 1.34,-0.16 1.34,-0.8 0,-0.2 -0.04,-0.36 -0.2,-0.95 z"
           id="path3446"
           inkscape:connector-curvature="0"
           style="fill:#000000;stroke-width:0" /><path
           d="m 505.24,409.98 3.72,0 c 2.66,0 3.11,-0.42 3.11,-1.56 0,-0.53 0,-0.6 -0.25,-1.58 -0.06,-0.2 -0.11,-0.31 -0.11,-0.41 0,-0.36 0.25,-0.53 0.59,-0.53 0.46,0 0.5,0.17 0.68,0.8 l 1.87,7.39 c 0.03,0.11 0.14,0.62 0.14,0.7 0,0.35 -0.25,0.52 -0.59,0.52 -0.49,0 -0.52,-0.2 -0.69,-0.83 -0.7,-2.72 -1.72,-3.25 -4.67,-3.25 l -3.49,0 2.19,8.75 c 0.28,1.08 0.31,1.19 1.78,1.19 l 5.33,0 c 4.64,0 5.52,-1.11 5.52,-4.02 0,-1.14 -0.14,-1.87 -0.14,-2.15 0,-0.29 0.09,-0.6 0.59,-0.6 0.52,0 0.55,0.31 0.63,0.91 l 0.62,6.06 c 0.09,1.05 -0.14,1.05 -1.02,1.05 l -18.6,0 c -0.66,0 -1.11,0 -1.11,-0.77 0,-0.48 0.42,-0.48 1.11,-0.48 0.04,0 0.7,0 1.32,-0.08 0.74,-0.06 0.8,-0.13 0.8,-0.48 0,-0.24 -0.09,-0.6 -0.14,-0.77 l -4.56,-18.22 c -0.35,-1.36 -0.38,-1.61 -3.1,-1.61 -0.59,0 -1.04,0 -1.04,-0.73 0,-0.35 0.23,-0.52 0.56,-0.52 1,0 3.58,0.14 4.59,0.14 l 2.69,-0.03 c 0.91,0 1.88,-0.11 2.75,-0.11 0.23,0 0.77,0 0.77,0.77 0,0.48 -0.43,0.48 -1.22,0.48 -0.08,0 -0.94,0 -1.82,0.08 -0.73,0.06 -1.07,0.09 -1.07,0.59 0,0.14 0,0.24 0.09,0.63 z"
           id="path3448"
           inkscape:connector-curvature="0"
           style="fill:#000000;stroke-width:0" /><path
           d="m 545.6,449.97 0,0.12 -0.01,0.13 -0.02,0.12 -0.02,0.13 -0.03,0.12 -0.03,0.12 -0.04,0.12 -0.05,0.12 -0.05,0.11 -0.06,0.12 -0.06,0.11 -0.07,0.1 -0.07,0.11 -0.08,0.1 -0.08,0.1 -0.09,0.09 -0.09,0.09 -0.09,0.09 -0.1,0.08 -0.1,0.08 -0.11,0.07 -0.11,0.07 -0.12,0.06 -0.11,0.06 -0.12,0.05 -0.13,0.04 -0.13,0.04 -0.12,0.03 -0.14,0.03 -0.13,0.01 -0.14,0.02 -0.14,0 c -1.69,0 -2.69,-1.39 -2.69,-2.64 0,-1.34 1.14,-2.64 2.64,-2.64 1.69,0 2.69,1.39 2.69,2.64 z"
           id="path3450"
           inkscape:connector-curvature="0"
           style="fill:#000000;stroke-width:0" /><path
           d="m 549.11,431.11 0,0.31 -0.01,0.34 -0.01,0.36 -0.03,0.37 -0.03,0.39 -0.03,0.39 -0.05,0.41 -0.06,0.41 -0.06,0.42 -0.08,0.43 -0.09,0.42 -0.1,0.43 -0.11,0.42 -0.13,0.42 -0.14,0.41 -0.15,0.41 -0.17,0.4 -0.19,0.38 -0.2,0.37 -0.22,0.36 -0.23,0.34 -0.25,0.32 -0.27,0.3 -0.29,0.27 -0.31,0.25 -0.17,0.12 -0.16,0.1 -0.18,0.1 -0.17,0.1 -0.19,0.08 -0.19,0.08 -0.19,0.07 -0.2,0.06 -0.21,0.05 -0.21,0.05 -0.21,0.03 -0.23,0.02 -0.23,0.02 -0.23,0 -0.05,-1.09 c 2.44,0 2.74,-3.19 2.74,-6.03 0,-2.44 -0.39,-4.99 -1.6,-9.92 l -10.4,0 c 0.84,3.2 1.84,7.18 3.83,10.72 1.35,2.43 3.18,5.23 5.43,5.23 l 0.05,1.09 c -6.92,0 -14.6,-14.04 -14.6,-25.45 0,-4.69 1.44,-10.22 5.99,-10.22 l 0,1.1 c -1.66,0 -2.7,1.45 -2.7,6.07 0,2.1 0.29,4.99 1.59,9.86 l 10.37,0 c -0.54,-2.28 -1.59,-6.51 -3.5,-10.11 -1.73,-3.39 -3.62,-5.82 -5.76,-5.82 l 0,-1.1 c 7.01,0 14.59,14.3 14.59,25.46 z"
           id="path3452"
           inkscape:connector-curvature="0"
           style="fill:#000000;stroke-width:0" /><path
           d="m 561.76,409.98 3.72,0 c 2.66,0 3.11,-0.42 3.11,-1.56 0,-0.53 0,-0.6 -0.25,-1.58 -0.06,-0.2 -0.11,-0.31 -0.11,-0.41 0,-0.36 0.25,-0.53 0.59,-0.53 0.46,0 0.5,0.17 0.68,0.8 l 1.87,7.39 c 0.03,0.11 0.14,0.62 0.14,0.7 0,0.35 -0.25,0.52 -0.59,0.52 -0.49,0 -0.52,-0.2 -0.69,-0.83 -0.7,-2.72 -1.72,-3.25 -4.67,-3.25 l -3.49,0 2.19,8.75 c 0.28,1.08 0.31,1.19 1.78,1.19 l 5.33,0 c 4.64,0 5.52,-1.11 5.52,-4.02 0,-1.14 -0.14,-1.87 -0.14,-2.15 0,-0.29 0.09,-0.6 0.59,-0.6 0.51,0 0.55,0.31 0.63,0.91 l 0.62,6.06 c 0.09,1.05 -0.14,1.05 -1.02,1.05 l -18.6,0 c -0.66,0 -1.12,0 -1.12,-0.77 0,-0.48 0.43,-0.48 1.12,-0.48 0.04,0 0.7,0 1.32,-0.08 0.74,-0.06 0.8,-0.13 0.8,-0.48 0,-0.24 -0.09,-0.6 -0.14,-0.77 l -4.56,-18.22 c -0.35,-1.36 -0.38,-1.61 -3.1,-1.61 -0.59,0 -1.04,0 -1.04,-0.73 0,-0.35 0.23,-0.52 0.56,-0.52 1,0 3.58,0.14 4.59,0.14 l 2.69,-0.03 c 0.91,0 1.88,-0.11 2.75,-0.11 0.23,0 0.76,0 0.76,0.77 0,0.48 -0.42,0.48 -1.21,0.48 -0.08,0 -0.94,0 -1.82,0.08 -0.73,0.06 -1.07,0.09 -1.07,0.59 0,0.14 0,0.24 0.09,0.63 z"
           id="path3454"
           inkscape:connector-curvature="0"
           style="fill:#000000;stroke-width:0" /></g>    </g>
    <g
       id="g3580"
       transform="matrix(0.93650355,0,0,0.93650351,165.99011,443.59594)">
      <g
         word-spacing="normal"
         letter-spacing="normal"
         font-size-adjust="none"
         font-stretch="normal"
         font-weight="normal"
         font-variant="normal"
         font-style="normal"
         stroke-miterlimit="10.433"
         xml:space="preserve"
         transform="matrix(0.69001689,0,0,-0.69001689,-120.75296,378.1013)"
         id="g3582"
         style="font-style:normal;font-variant:normal;font-weight:normal;font-stretch:normal;letter-spacing:normal;word-spacing:normal;text-anchor:start;fill:none;fill-opacity:1;fill-rule:evenodd;stroke:#000000;stroke-width:1.06780159;stroke-linecap:butt;stroke-linejoin:miter;stroke-miterlimit:10.43299961;stroke-dasharray:none;stroke-dashoffset:0;stroke-opacity:1"><path
           id="path3584"
           d="m 459.91,409.14 -0.02,-0.07 -0.01,-0.08 -0.02,-0.07 -0.01,-0.08 -0.04,-0.16 -0.04,-0.16 -0.03,-0.16 -0.04,-0.16 -0.04,-0.16 -0.03,-0.16 -0.02,-0.08 -0.02,-0.07 -0.02,-0.07 -0.01,-0.07 -0.02,-0.07 -0.01,-0.07 -0.01,-0.06 -0.01,-0.06 -0.01,-0.06 -0.01,-0.05 -0.01,-0.05 -0.01,-0.04 -0.01,-0.04 0,-0.04 0,-0.03 0,-0.02 c 0,-0.89 0.7,-1.35 1.43,-1.35 0.61,0 1.5,0.39 1.85,1.39 0.06,0.11 0.65,2.44 0.95,3.69 l 1.1,4.48 c 0.29,1.1 0.59,2.19 0.84,3.35 0.2,0.84 0.61,2.28 0.66,2.48 0.75,1.55 3.39,6.08 8.1,6.08 2.25,0 2.71,-1.84 2.71,-3.48 0,-1.25 -0.36,-2.64 -0.75,-4.14 l -1.39,-5.79 -1,-3.78 c -0.21,-1 -0.66,-2.68 -0.66,-2.93 0,-0.89 0.7,-1.35 1.45,-1.35 1.55,0 1.85,1.25 2.24,2.85 0.7,2.78 2.55,10.06 3,12 0.14,0.65 2.78,6.62 8.22,6.62 2.14,0 2.68,-1.69 2.68,-3.48 0,-2.85 -2.09,-8.52 -3.09,-11.16 -0.45,-1.2 -0.64,-1.75 -0.64,-2.75 0,-2.33 1.73,-4.08 4.08,-4.08 4.69,0 6.53,7.27 6.53,7.67 0,0.5 -0.45,0.5 -0.59,0.5 -0.5,0 -0.5,-0.15 -0.75,-0.9 -0.75,-2.64 -2.35,-6.17 -5.08,-6.17 -0.86,0 -1.21,0.5 -1.21,1.64 0,1.25 0.46,2.45 0.9,3.54 0.95,2.58 3.04,8.11 3.04,10.96 0,3.23 -2,5.32 -5.73,5.32 -3.74,0 -6.27,-2.18 -8.11,-4.82 -0.06,0.65 -0.2,2.34 -1.61,3.53 -1.24,1.04 -2.83,1.29 -4.08,1.29 -4.48,0 -6.92,-3.18 -7.76,-4.32 -0.25,2.84 -2.35,4.32 -4.6,4.32 -2.28,0 -3.23,-1.93 -3.69,-2.82 -0.89,-1.75 -1.54,-4.69 -1.54,-4.85 0,-0.5 0.5,-0.5 0.61,-0.5 0.5,0 0.54,0.07 0.84,1.16 0.84,3.53 1.84,5.92 3.64,5.92 0.8,0 1.55,-0.39 1.55,-2.28 0,-1.05 -0.16,-1.61 -0.8,-4.19 z"
           inkscape:connector-curvature="0"
           style="fill:#000000;stroke-width:0" /><path
           id="path3586"
           d="m 511.12,409.98 3.72,0 c 2.66,0 3.11,-0.42 3.11,-1.56 0,-0.53 0,-0.6 -0.25,-1.58 -0.06,-0.2 -0.11,-0.31 -0.11,-0.41 0,-0.36 0.25,-0.53 0.59,-0.53 0.46,0 0.5,0.17 0.67,0.8 l 1.88,7.39 c 0.03,0.11 0.14,0.62 0.14,0.7 0,0.35 -0.25,0.52 -0.59,0.52 -0.49,0 -0.52,-0.2 -0.69,-0.83 -0.7,-2.72 -1.72,-3.25 -4.67,-3.25 l -3.49,0 2.19,8.75 c 0.28,1.08 0.31,1.19 1.78,1.19 l 5.33,0 c 4.64,0 5.52,-1.11 5.52,-4.02 0,-1.14 -0.15,-1.87 -0.15,-2.15 0,-0.29 0.1,-0.6 0.6,-0.6 0.52,0 0.55,0.31 0.62,0.91 l 0.63,6.06 c 0.09,1.05 -0.14,1.05 -1.02,1.05 l -18.61,0 c -0.65,0 -1.11,0 -1.11,-0.77 0,-0.48 0.43,-0.48 1.11,-0.48 0.05,0 0.71,0 1.33,-0.08 0.74,-0.06 0.8,-0.13 0.8,-0.48 0,-0.24 -0.09,-0.6 -0.14,-0.77 l -4.56,-18.22 c -0.35,-1.36 -0.38,-1.61 -3.1,-1.61 -0.59,0 -1.04,0 -1.04,-0.73 0,-0.35 0.23,-0.52 0.56,-0.52 1,0 3.58,0.14 4.59,0.14 l 2.69,-0.03 c 0.91,0 1.87,-0.11 2.75,-0.11 0.23,0 0.77,0 0.77,0.77 0,0.48 -0.43,0.48 -1.22,0.48 -0.08,0 -0.94,0 -1.82,0.08 -0.73,0.06 -1.07,0.09 -1.07,0.59 0,0.14 0,0.24 0.09,0.63 z"
           inkscape:connector-curvature="0"
           style="fill:#000000;stroke-width:0" /><path
           id="path3588"
           d="m 555.91,424.98 0.01,0.06 0.01,0.05 0.01,0.05 0.01,0.06 0.03,0.1 0.01,0.05 0.01,0.06 0.01,0.05 0.01,0.06 0.01,0.05 0.01,0.06 0,0.06 0.01,0.06 0,0.03 0,0.03 0,0.03 0,0.03 c 0,0.86 -0.59,1.36 -1.44,1.36 -0.5,0 -1.84,-0.36 -2.04,-2.16 -0.89,1.85 -2.64,3.14 -4.63,3.14 l 0.05,-1.09 c 3.28,0 3.98,-4.03 3.98,-4.28 0,-0.25 -0.09,-0.55 -0.15,-0.75 l -2.39,-9.52 c -0.3,-1.29 -1.44,-2.53 -2.53,-3.48 -1.05,-0.89 -2.6,-1.8 -4.05,-1.8 -2.49,0 -3.24,2.6 -3.24,4.58 0,2.41 1.46,8.28 2.8,10.81 1.34,2.46 3.49,4.44 5.58,4.44 l -0.05,1.09 c -5.69,0 -11.86,-6.96 -11.86,-14.14 0,-4.93 3.03,-7.87 6.63,-7.87 2.94,0 5.28,2.34 5.78,2.89 l 0.04,-0.05 c -1.04,-4.43 -1.63,-6.48 -1.63,-6.58 -0.21,-0.45 -1.9,-5.39 -7.18,-5.39 -0.95,0 -2.59,0.07 -4,0.5 1.5,0.46 2.05,1.75 2.05,2.6 0,0.79 -0.55,1.75 -1.89,1.75 -1.1,0 -2.69,-0.91 -2.69,-2.89 0,-2.05 1.84,-3.05 6.63,-3.05 6.21,0 9.81,3.89 10.56,6.88 z"
           inkscape:connector-curvature="0"
           style="fill:#000000;stroke-width:0" /></g>    </g>
    <path
       style="fill:none;stroke:#000000;stroke-width:1;stroke-linecap:butt;stroke-linejoin:round;stroke-miterlimit:4;stroke-dasharray:none;stroke-dashoffset:0;stroke-opacity:1;marker-end:url(#Arrow2Lend-7)"
       id="path8386-9"
       sodipodi:type="arc"
       sodipodi:cx="-479.53809"
       sodipodi:cy="232.43024"
       sodipodi:rx="58.082268"
       sodipodi:ry="58.082268"
       sodipodi:start="5.134"
       sodipodi:end="6.2603239"
       d="m -455.76903,179.43418 a 58.082268,58.082268 0 0 1 34.29803,51.66833"
       transform="matrix(-0.91748264,-0.39777582,-0.39777582,0.91748264,0,0)"
       sodipodi:open="true" />
    <path
       transform="matrix(-0.4515867,-0.89222724,0.89222724,-0.4515867,0,0)"
       d="m -556.9135,86.00234 a 58.082268,58.082268 0 0 1 61.57026,-9.993244"
       sodipodi:end="5.1183178"
       sodipodi:start="3.9846537"
       sodipodi:ry="58.082268"
       sodipodi:rx="58.082268"
       sodipodi:cy="129.37137"
       sodipodi:cx="-518.27832"
       sodipodi:type="arc"
       id="path23486"
       style="fill:none;stroke:#000000;stroke-width:1;stroke-linecap:butt;stroke-linejoin:round;stroke-miterlimit:4;stroke-dasharray:none;stroke-dashoffset:0;stroke-opacity:1;marker-end:url(#marker23488-9)"
       sodipodi:open="true" />
    <g
       style="font-style:normal;font-variant:normal;font-weight:normal;font-stretch:normal;letter-spacing:normal;word-spacing:normal;text-anchor:start;fill:none;fill-opacity:1;fill-rule:evenodd;stroke:#000000;stroke-width:0.2317258;stroke-linecap:butt;stroke-linejoin:miter;stroke-miterlimit:10.43299961;stroke-dasharray:none;stroke-dashoffset:0;stroke-opacity:1"
       id="g30402"
       transform="matrix(4.3154446,0,0,-4.3154459,-688.4294,3393.156)"
       xml:space="preserve"
       stroke-miterlimit="10.433"
       font-style="normal"
       font-variant="normal"
       font-weight="normal"
       font-stretch="normal"
       font-size-adjust="none"
       letter-spacing="normal"
       word-spacing="normal"
       ns0:text="$\\tau_m$"
       ns0:preamble=""><path
         style="fill:#000000;stroke-width:0"
         inkscape:connector-curvature="0"
         d="m 226.36,710.83 1.67,0 c 0.13,0 0.49,0 0.49,0.34 0,0.24 -0.21,0.24 -0.4,0.24 l -2.79,0 c -0.2,0 -0.59,0 -1.02,-0.47 -0.33,-0.36 -0.61,-0.84 -0.61,-0.89 0,-0.01 0,-0.1 0.12,-0.1 0.08,0 0.1,0.04 0.16,0.12 0.49,0.76 1.05,0.76 1.26,0.76 l 0.83,0 -0.98,-3.19 c -0.04,-0.12 -0.1,-0.33 -0.1,-0.37 0,-0.11 0.07,-0.26 0.29,-0.26 0.33,0 0.38,0.27 0.41,0.42 z"
         id="path30404" /><path
         style="fill:#000000;stroke-width:0"
         inkscape:connector-curvature="0"
         d="m 230.81,706.19 0,-0.01 -0.01,-0.01 0,-0.02 0,-0.01 -0.01,-0.02 0,-0.01 -0.01,-0.03 -0.01,-0.04 -0.01,-0.03 0,-0.03 -0.01,-0.01 0,-0.02 -0.01,-0.01 0,-0.02 0,-0.01 -0.01,-0.02 0,-0.01 0,-0.01 -0.01,-0.02 0,-0.01 0,-0.01 0,-0.01 0,-0.01 -0.01,0 0,-0.01 0,-0.01 0,0 0,-0.01 c 0,-0.15 0.13,-0.22 0.24,-0.22 0.12,0 0.24,0.09 0.27,0.15 0.04,0.07 0.09,0.29 0.13,0.44 0.03,0.13 0.11,0.45 0.15,0.62 0.04,0.15 0.08,0.31 0.12,0.47 0.07,0.3 0.07,0.31 0.21,0.53 0.23,0.34 0.57,0.73 1.12,0.73 0.39,0 0.41,-0.32 0.41,-0.48 0,-0.42 -0.3,-1.19 -0.41,-1.49 -0.08,-0.19 -0.11,-0.25 -0.11,-0.37 0,-0.37 0.31,-0.6 0.67,-0.6 0.69,0 1,0.96 1,1.06 0,0.1 -0.09,0.1 -0.11,0.1 -0.1,0 -0.11,-0.05 -0.14,-0.12 -0.16,-0.56 -0.46,-0.84 -0.73,-0.84 -0.15,0 -0.18,0.09 -0.18,0.24 0,0.16 0.04,0.25 0.16,0.56 0.09,0.22 0.37,0.96 0.37,1.35 0,0.11 0,0.4 -0.26,0.6 -0.11,0.09 -0.32,0.19 -0.64,0.19 -0.63,0 -1.01,-0.41 -1.24,-0.71 -0.05,0.6 -0.55,0.71 -0.9,0.71 -0.58,0 -0.97,-0.36 -1.18,-0.63 -0.05,0.47 -0.46,0.63 -0.75,0.63 -0.29,0 -0.45,-0.22 -0.54,-0.38 -0.16,-0.25 -0.26,-0.65 -0.26,-0.69 0,-0.09 0.1,-0.09 0.12,-0.09 0.1,0 0.11,0.02 0.16,0.21 0.1,0.41 0.23,0.75 0.5,0.75 0.19,0 0.23,-0.15 0.23,-0.34 0,-0.13 -0.06,-0.39 -0.11,-0.57 -0.05,-0.19 -0.12,-0.48 -0.15,-0.63 l -0.22,-0.89 c -0.03,-0.09 -0.07,-0.27 -0.07,-0.29 0,-0.15 0.12,-0.22 0.23,-0.22 0.13,0 0.24,0.09 0.28,0.15 0.03,0.07 0.09,0.29 0.12,0.44 0.04,0.13 0.11,0.45 0.15,0.62 0.05,0.15 0.09,0.31 0.12,0.47 0.08,0.28 0.09,0.34 0.29,0.62 0.2,0.28 0.53,0.64 1.05,0.64 0.4,0 0.41,-0.35 0.41,-0.48 0,-0.18 -0.02,-0.27 -0.12,-0.66 z"
         id="path30406" /></g>    <g
       style="font-style:normal;font-variant:normal;font-weight:normal;font-stretch:normal;letter-spacing:normal;word-spacing:normal;text-anchor:start;fill:none;fill-opacity:1;fill-rule:evenodd;stroke:#000000;stroke-width:0.32053521;stroke-linecap:butt;stroke-linejoin:miter;stroke-miterlimit:10.43299961;stroke-dasharray:none;stroke-dashoffset:0;stroke-opacity:1"
       ns0:preamble=""
       ns0:text="$B_w \\dot{\\theta}_w$"
       word-spacing="normal"
       letter-spacing="normal"
       font-size-adjust="none"
       font-stretch="normal"
       font-weight="normal"
       font-variant="normal"
       font-style="normal"
       stroke-miterlimit="10.433"
       xml:space="preserve"
       transform="matrix(3.1197818,0,0,-3.1197822,-474.49551,2647.368)"
       id="g61462"><path
         id="path61464"
         d="m 225.02,707.9 -0.01,-0.04 0,-0.03 -0.01,-0.03 -0.01,-0.03 -0.01,-0.03 -0.01,-0.03 -0.01,-0.02 -0.01,-0.03 -0.01,-0.02 -0.01,-0.02 -0.02,-0.02 -0.01,-0.02 -0.01,-0.02 -0.02,-0.01 -0.02,-0.02 -0.02,-0.01 -0.02,-0.01 -0.03,-0.01 -0.03,-0.01 -0.03,-0.01 -0.03,-0.01 -0.02,0 -0.01,-0.01 -0.02,0 -0.02,0 -0.02,-0.01 -0.02,0 -0.02,0 -0.03,0 -0.02,-0.01 -0.03,0 -0.02,0 -0.03,0 -0.02,0 -0.03,0 -0.03,0 -0.03,0 -0.03,-0.01 -0.03,0 -0.04,0 -0.03,0 -0.04,0 -0.03,0 c -0.17,0 -0.27,0 -0.27,-0.2 0,-0.11 0.09,-0.11 0.27,-0.11 l 3.55,0 c 1.57,0 2.75,1.18 2.75,2.15 0,0.72 -0.58,1.29 -1.55,1.4 1.04,0.19 2.08,0.92 2.08,1.87 0,0.73 -0.65,1.37 -1.85,1.37 l -0.14,-0.31 c 0.88,0 1.09,-0.58 1.09,-1.02 0,-0.87 -0.86,-1.82 -2.07,-1.82 l -1.45,0 -0.06,-0.22 1.88,0 c 0.95,0 1.14,-0.73 1.14,-1.16 0,-0.98 -0.88,-1.95 -2.06,-1.95 l -1.35,0 c -0.14,0 -0.16,0 -0.22,0.01 -0.1,0.01 -0.13,0.02 -0.13,0.1 0,0.03 0,0.05 0.05,0.23 l 0.69,2.77 0.06,0.22 0.61,2.46 c 0.09,0.35 0.11,0.38 0.54,0.38 l 1.28,0 0.14,0.31 -3.34,0 c -0.19,0 -0.29,0 -0.29,-0.2 0,-0.11 0.09,-0.11 0.28,-0.11 0.02,0 0.21,0 0.38,-0.02 0.18,-0.02 0.27,-0.03 0.27,-0.16 0,-0.04 -0.01,-0.07 -0.04,-0.19 z"
         inkscape:connector-curvature="0"
         style="fill:#000000;stroke-width:0" /><path
         id="path61466"
         d="m 234.65,707.85 0.01,0.02 0,0.02 0.01,0.02 0,0.02 0.01,0.02 0,0.02 0.01,0.04 0.01,0.04 0.02,0.05 0.01,0.04 0,0.02 0.01,0.02 0,0.03 0.01,0.02 0,0.02 0.01,0.01 0,0.02 0,0.02 0.01,0.02 0,0.01 0,0.01 0.01,0.02 0,0.01 0,0.01 0,0.01 0,0.01 0,0 0,0 0,0 0.01,0.01 c 0,0.13 -0.12,0.22 -0.24,0.22 -0.13,0 -0.25,-0.09 -0.29,-0.2 -0.03,-0.06 -0.1,-0.35 -0.14,-0.52 -0.1,-0.4 -0.1,-0.42 -0.21,-0.81 -0.09,-0.38 -0.1,-0.43 -0.11,-0.63 0.03,-0.14 -0.03,-0.28 -0.19,-0.48 -0.09,-0.12 -0.23,-0.23 -0.47,-0.23 -0.27,0 -0.63,0.09 -0.63,0.64 0,0.35 0.2,0.87 0.34,1.22 0.12,0.31 0.14,0.37 0.14,0.49 0,0.33 -0.28,0.59 -0.66,0.59 -0.7,0 -1.01,-0.95 -1.01,-1.07 0,-0.09 0.09,-0.09 0.11,-0.09 0.1,0 0.11,0.04 0.13,0.11 0.17,0.58 0.47,0.85 0.75,0.85 0.12,0 0.18,-0.07 0.18,-0.24 0,-0.16 -0.07,-0.31 -0.1,-0.4 -0.4,-1.02 -0.4,-1.16 -0.4,-1.37 0,-0.82 0.75,-0.93 1.12,-0.93 0.13,0 0.48,0 0.79,0.47 0.16,-0.32 0.54,-0.47 0.97,-0.47 0.62,0 0.92,0.54 1.06,0.82 0.3,0.59 0.49,1.46 0.49,1.78 0,0.52 -0.3,0.55 -0.35,0.55 -0.18,0 -0.37,-0.19 -0.37,-0.37 0,-0.12 0.07,-0.18 0.12,-0.22 0.16,-0.14 0.25,-0.33 0.25,-0.56 0,-0.09 -0.29,-1.8 -1.17,-1.8 -0.57,0 -0.57,0.5 -0.57,0.62 0,0.18 0.03,0.29 0.13,0.69 z"
         inkscape:connector-curvature="0"
         style="fill:#000000;stroke-width:0" /><path
         id="path61468"
         d="m 241.27,715.87 0,0.03 0,0.02 0,0.03 -0.01,0.02 -0.01,0.03 0,0.02 -0.01,0.02 -0.01,0.03 -0.01,0.02 -0.01,0.02 -0.01,0.03 -0.02,0.02 -0.01,0.02 -0.02,0.02 -0.01,0.02 -0.02,0.02 -0.02,0.02 -0.02,0.01 -0.02,0.02 -0.02,0.01 -0.02,0.02 -0.02,0.01 -0.02,0.01 -0.03,0.02 -0.02,0.01 -0.03,0 -0.02,0.01 -0.03,0.01 -0.02,0 -0.03,0.01 -0.03,0 -0.03,0 c -0.33,0 -0.53,-0.28 -0.53,-0.53 0,-0.27 0.23,-0.52 0.52,-0.52 0.34,0 0.54,0.27 0.54,0.52 z"
         inkscape:connector-curvature="0"
         style="fill:#000000;stroke-width:0" /><path
         id="path61470"
         d="m 241.96,712.09 0,0.07 0,0.06 0,0.07 0,0.08 -0.01,0.07 -0.01,0.08 -0.01,0.08 -0.01,0.09 -0.01,0.08 -0.02,0.08 -0.02,0.09 -0.02,0.08 -0.02,0.09 -0.02,0.08 -0.03,0.08 -0.03,0.09 -0.04,0.07 -0.03,0.08 -0.04,0.08 -0.05,0.07 -0.04,0.06 -0.05,0.07 -0.06,0.06 -0.05,0.05 -0.07,0.05 -0.03,0.02 -0.03,0.03 -0.04,0.02 -0.03,0.01 -0.04,0.02 -0.04,0.02 -0.04,0.01 -0.04,0.01 -0.04,0.01 -0.04,0.01 -0.04,0.01 -0.05,0 -0.04,0.01 -0.05,0 -0.01,-0.22 c 0.49,0 0.55,-0.64 0.55,-1.2 0,-0.49 -0.08,-1 -0.32,-1.98 l -2.08,0 c 0.17,0.64 0.37,1.43 0.77,2.14 0.27,0.48 0.63,1.04 1.08,1.04 l 0.01,0.22 c -1.38,0 -2.91,-2.8 -2.91,-5.08 0,-0.93 0.28,-2.03 1.19,-2.03 l 0,0.21 c -0.33,0 -0.54,0.29 -0.54,1.22 0,0.41 0.06,0.99 0.32,1.96 l 2.07,0 c -0.11,-0.45 -0.32,-1.3 -0.7,-2.01 -0.34,-0.68 -0.72,-1.17 -1.15,-1.17 l 0,-0.21 c 1.4,0 2.91,2.85 2.91,5.07 z"
         inkscape:connector-curvature="0"
         style="fill:#000000;stroke-width:0" /><path
         id="path61472"
         d="m 245.78,707.85 0,0.02 0.01,0.02 0,0.02 0.01,0.02 0,0.02 0.01,0.02 0.01,0.04 0.01,0.04 0.01,0.05 0.01,0.04 0.01,0.02 0,0.02 0.01,0.03 0,0.02 0.01,0.01 0,0.02 0.01,0.02 0,0.02 0,0.02 0.01,0.01 0,0.01 0,0.02 0.01,0.01 0,0.01 0,0.01 0,0.01 0,0 0,0 0,0 0,0.01 c 0,0.13 -0.11,0.22 -0.23,0.22 -0.13,0 -0.26,-0.09 -0.3,-0.2 -0.02,-0.06 -0.09,-0.35 -0.14,-0.52 -0.09,-0.4 -0.09,-0.42 -0.2,-0.81 -0.09,-0.38 -0.1,-0.43 -0.11,-0.63 0.03,-0.14 -0.03,-0.28 -0.2,-0.48 -0.09,-0.12 -0.23,-0.23 -0.46,-0.23 -0.28,0 -0.63,0.09 -0.63,0.64 0,0.35 0.2,0.87 0.34,1.22 0.11,0.31 0.14,0.37 0.14,0.49 0,0.33 -0.28,0.59 -0.66,0.59 -0.7,0 -1.02,-0.95 -1.02,-1.07 0,-0.09 0.1,-0.09 0.12,-0.09 0.1,0 0.1,0.04 0.13,0.11 0.17,0.58 0.47,0.85 0.75,0.85 0.12,0 0.17,-0.07 0.17,-0.24 0,-0.16 -0.06,-0.31 -0.1,-0.4 -0.39,-1.02 -0.39,-1.16 -0.39,-1.37 0,-0.82 0.74,-0.93 1.12,-0.93 0.13,0 0.47,0 0.79,0.47 0.16,-0.32 0.54,-0.47 0.96,-0.47 0.62,0 0.93,0.54 1.07,0.82 0.3,0.59 0.49,1.46 0.49,1.78 0,0.52 -0.3,0.55 -0.35,0.55 -0.18,0 -0.38,-0.19 -0.38,-0.37 0,-0.12 0.07,-0.18 0.12,-0.22 0.17,-0.14 0.26,-0.33 0.26,-0.56 0,-0.09 -0.29,-1.8 -1.18,-1.8 -0.56,0 -0.56,0.5 -0.56,0.62 0,0.18 0.03,0.29 0.12,0.69 z"
         inkscape:connector-curvature="0"
         style="fill:#000000;stroke-width:0" /></g>  </g>
</svg>
