<?xml version="1.0" encoding="UTF-8" standalone="no"?>
<!-- Created with Inkscape (http://www.inkscape.org/) -->

<svg
   xmlns:ns0="http://www.iki.fi/pav/software/textext/"
   xmlns:dc="http://purl.org/dc/elements/1.1/"
   xmlns:cc="http://creativecommons.org/ns#"
   xmlns:rdf="http://www.w3.org/1999/02/22-rdf-syntax-ns#"
   xmlns:svg="http://www.w3.org/2000/svg"
   xmlns="http://www.w3.org/2000/svg"
   xmlns:sodipodi="http://sodipodi.sourceforge.net/DTD/sodipodi-0.dtd"
   xmlns:inkscape="http://www.inkscape.org/namespaces/inkscape"
   width="92.368347mm"
   height="68.024414mm"
   viewBox="0 0 327.28942 241.03139"
   id="svg2"
   version="1.1"
   inkscape:version="0.91 r13725"
   sodipodi:docname="limitationTorque.svg">
  <sodipodi:namedview
     id="base"
     pagecolor="#ffffff"
     bordercolor="#666666"
     borderopacity="1.0"
     inkscape:pageopacity="0.0"
     inkscape:pageshadow="2"
     inkscape:zoom="0.9899495"
     inkscape:cx="-50.077859"
     inkscape:cy="272.41856"
     inkscape:document-units="px"
     inkscape:current-layer="layer1"
     showgrid="false"
     inkscape:window-width="1920"
     inkscape:window-height="1016"
     inkscape:window-x="1280"
     inkscape:window-y="27"
     inkscape:window-maximized="1"
     fit-margin-top="0"
     fit-margin-left="0"
     fit-margin-right="0"
     fit-margin-bottom="0" />
  <defs
     id="defs4">
    <marker
       inkscape:isstock="true"
       style="overflow:visible"
       id="Arrow2Lend"
       refX="0"
       refY="0"
       orient="auto"
       inkscape:stockid="Arrow2Lend">
      <path
         transform="matrix(-1.1,0,0,-1.1,-1.1,0)"
         d="M 8.7185878,4.0337352 -2.2072895,0.01601326 8.7185884,-4.0017078 c -1.7454984,2.3720609 -1.7354408,5.6174519 -6e-7,8.035443 z"
         style="fill:#000000;fill-opacity:1;fill-rule:evenodd;stroke:#000000;stroke-width:0.625;stroke-linejoin:round;stroke-opacity:1"
         id="path9926"
         inkscape:connector-curvature="0" />
    </marker>
    <marker
       inkscape:isstock="true"
       style="overflow:visible"
       id="marker10175"
       refX="0"
       refY="0"
       orient="auto"
       inkscape:stockid="Arrow1Lstart">
      <path
         transform="matrix(0.8,0,0,0.8,10,0)"
         style="fill:#000000;fill-opacity:1;fill-rule:evenodd;stroke:#000000;stroke-width:1pt;stroke-opacity:1"
         d="M 0,0 5,-5 -12.5,0 5,5 0,0 Z"
         id="path10177"
         inkscape:connector-curvature="0" />
    </marker>
    <marker
       inkscape:isstock="true"
       style="overflow:visible"
       id="Arrow1Lstart"
       refX="0"
       refY="0"
       orient="auto"
       inkscape:stockid="Arrow1Lstart">
      <path
         transform="matrix(0.8,0,0,0.8,10,0)"
         style="fill:#000000;fill-opacity:1;fill-rule:evenodd;stroke:#000000;stroke-width:1pt;stroke-opacity:1"
         d="M 0,0 5,-5 -12.5,0 5,5 0,0 Z"
         id="path9905"
         inkscape:connector-curvature="0" />
    </marker>
    <marker
       inkscape:isstock="true"
       style="overflow:visible"
       id="Arrow2Lend-8"
       refX="0"
       refY="0"
       orient="auto"
       inkscape:stockid="Arrow2Lend">
      <path
         transform="matrix(-1.1,0,0,-1.1,-1.1,0)"
         d="M 8.7185878,4.0337352 -2.2072895,0.01601326 8.7185884,-4.0017078 c -1.7454984,2.3720609 -1.7354408,5.6174519 -6e-7,8.035443 z"
         style="fill:#000000;fill-opacity:1;fill-rule:evenodd;stroke:#000000;stroke-width:0.625;stroke-linejoin:round;stroke-opacity:1"
         id="path9926-9"
         inkscape:connector-curvature="0" />
    </marker>
  </defs>
  <metadata
     id="metadata7">
    <rdf:RDF>
      <cc:Work
         rdf:about="">
        <dc:format>image/svg+xml</dc:format>
        <dc:type
           rdf:resource="http://purl.org/dc/dcmitype/StillImage" />
        <dc:title></dc:title>
      </cc:Work>
    </rdf:RDF>
  </metadata>
  <g
     id="layer1"
     inkscape:groupmode="layer"
     inkscape:label="Layer 1"
     transform="translate(-103.76727,-244.39483)">
    <path
       inkscape:connector-curvature="0"
       id="path4136"
       d="m 103.76727,484.92622 327.28942,0"
       style="fill:none;fill-rule:evenodd;stroke:#000000;stroke-width:1px;stroke-linecap:butt;stroke-linejoin:miter;stroke-opacity:1" />
    <path
       sodipodi:nodetypes="cc"
       inkscape:connector-curvature="0"
       id="path4138"
       d="m 267.85714,483.79078 0,-239.39595"
       style="fill:none;fill-rule:evenodd;stroke:#000000;stroke-width:1;stroke-linecap:butt;stroke-linejoin:miter;stroke-miterlimit:4;stroke-dasharray:1, 2;stroke-dashoffset:0;stroke-opacity:1" />
    <path
       sodipodi:nodetypes="cc"
       inkscape:connector-curvature="0"
       id="path4138-0"
       d="M 267.20035,484.45468 397.28842,244.74107"
       style="fill:none;fill-rule:evenodd;stroke:#000000;stroke-width:1;stroke-linecap:butt;stroke-linejoin:miter;stroke-miterlimit:4;stroke-dasharray:1, 2;stroke-dashoffset:0;stroke-opacity:1" />
    <path
       sodipodi:nodetypes="cc"
       inkscape:connector-curvature="0"
       id="path4155"
       d="m 267.76523,429.07749 c 13.59245,-6.45088 25.44906,7.249 25.44906,7.249"
       style="fill:none;fill-rule:evenodd;stroke:#000000;stroke-width:1px;stroke-linecap:butt;stroke-linejoin:miter;stroke-opacity:1" />
    <text
       sodipodi:linespacing="125%"
       id="text4157"
       y="402.36221"
       x="275.71429"
       style="font-style:normal;font-weight:normal;font-size:40px;line-height:125%;font-family:sans-serif;letter-spacing:0px;word-spacing:0px;fill:#000000;fill-opacity:1;stroke:none;stroke-width:1px;stroke-linecap:butt;stroke-linejoin:miter;stroke-opacity:1"
       xml:space="preserve"><tspan
         style="font-size:15px"
         y="402.36221"
         x="275.71429"
         id="tspan4159"
         sodipodi:role="line" /></text>
    <text
       sodipodi:linespacing="125%"
       id="text9864"
       y="351.64792"
       x="287.85715"
       style="font-style:normal;font-weight:normal;font-size:40px;line-height:125%;font-family:sans-serif;letter-spacing:0px;word-spacing:0px;fill:#000000;fill-opacity:1;stroke:none;stroke-width:1px;stroke-linecap:butt;stroke-linejoin:miter;stroke-opacity:1"
       xml:space="preserve"><tspan
         id="tspan9868"
         y="351.64792"
         x="287.85715"
         sodipodi:role="line" /></text>
    <path
       inkscape:connector-curvature="0"
       id="path9884-0"
       d="m 326.652,375.69742 c 0,68.69037 0,70.71068 0,70.71068"
       style="fill:none;fill-rule:evenodd;stroke:#000000;stroke-width:1px;stroke-linecap:butt;stroke-linejoin:miter;stroke-opacity:1;marker-end:url(#Arrow2Lend)" />
    <path
       inkscape:connector-curvature="0"
       id="path9884-0-6"
       d="m 343.93933,342.39926 c 0,68.69037 0,70.71068 0,70.71068"
       style="fill:none;fill-rule:evenodd;stroke:#000000;stroke-width:1px;stroke-linecap:butt;stroke-linejoin:miter;stroke-opacity:1;marker-end:url(#Arrow2Lend-8)" />
    <g
       transform="translate(-10,-16)"
       id="g4266">
      <path
         style="fill:none;fill-rule:evenodd;stroke:#000000;stroke-width:1;stroke-linecap:butt;stroke-linejoin:miter;stroke-miterlimit:4;stroke-dasharray:none;stroke-dashoffset:0;stroke-opacity:1"
         d="M 231.68828,473.19345 289.04536,364.79967"
         id="path4138-0-7"
         inkscape:connector-curvature="0"
         sodipodi:nodetypes="cc" />
      <path
         style="fill:none;fill-rule:evenodd;stroke:#000000;stroke-width:1px;stroke-linecap:butt;stroke-linejoin:miter;stroke-opacity:1"
         d="m 224.35596,468.95271 14.64286,8.83929"
         id="path10532-6"
         inkscape:connector-curvature="0" />
      <path
         style="fill:none;fill-rule:evenodd;stroke:#000000;stroke-width:1px;stroke-linecap:butt;stroke-linejoin:miter;stroke-opacity:1"
         d="m 282.2131,360.85912 14.64286,8.83929"
         id="path10532-64"
         inkscape:connector-curvature="0" />
    </g>
    <g
       transform="translate(-30.748737,-28.121831)"
       id="g10679">
      <path
         style="fill:none;fill-rule:evenodd;stroke:#000000;stroke-width:1;stroke-linecap:butt;stroke-linejoin:miter;stroke-miterlimit:4;stroke-dasharray:none;stroke-dashoffset:0;stroke-opacity:1"
         d="M 216.28345,464.60715 292.83343,323.88848"
         id="path4138-0-7-1"
         inkscape:connector-curvature="0"
         sodipodi:nodetypes="cc" />
      <path
         style="fill:none;fill-rule:evenodd;stroke:#000000;stroke-width:1px;stroke-linecap:butt;stroke-linejoin:miter;stroke-opacity:1"
         d="m 208.75,459.8622 14.64286,8.83929"
         id="path10532"
         inkscape:connector-curvature="0" />
      <path
         style="fill:none;fill-rule:evenodd;stroke:#000000;stroke-width:1px;stroke-linecap:butt;stroke-linejoin:miter;stroke-opacity:1"
         d="m 285.17857,319.72827 14.64286,8.83929"
         id="path10532-2"
         inkscape:connector-curvature="0" />
    </g>
    <text
       sodipodi:linespacing="125%"
       id="text4262"
       y="445.21936"
       x="431.42856"
       style="font-style:normal;font-weight:normal;font-size:40px;line-height:125%;font-family:sans-serif;letter-spacing:0px;word-spacing:0px;fill:#000000;fill-opacity:1;stroke:none;stroke-width:1px;stroke-linecap:butt;stroke-linejoin:miter;stroke-opacity:1"
       xml:space="preserve"><tspan
         y="445.21936"
         x="431.42856"
         id="tspan4264"
         sodipodi:role="line" /></text>
    <g
       style="font-style:normal;font-variant:normal;font-weight:normal;font-stretch:normal;letter-spacing:normal;word-spacing:normal;text-anchor:start;fill:none;fill-opacity:1;fill-rule:evenodd;stroke:#000000;stroke-width:0.30645761;stroke-linecap:butt;stroke-linejoin:miter;stroke-miterlimit:10.43299961;stroke-dasharray:none;stroke-dashoffset:0;stroke-opacity:1"
       id="g5370"
       transform="matrix(3.2630932,0,0,-3.2630946,-399.92229,2771.5755)"
       xml:space="preserve"
       stroke-miterlimit="10.433"
       font-style="normal"
       font-variant="normal"
       font-weight="normal"
       font-stretch="normal"
       font-size-adjust="none"
       letter-spacing="normal"
       word-spacing="normal"
       ns0:text="$m_Fg$"
       ns0:preamble=""><path
         style="fill:#000000;stroke-width:0"
         inkscape:connector-curvature="0"
         d="m 224.31,707.71 0,-0.01 -0.01,-0.02 0,-0.01 0,-0.02 -0.01,-0.03 -0.01,-0.03 -0.01,-0.03 0,-0.04 -0.01,-0.03 -0.01,-0.03 0,-0.01 -0.01,-0.02 0,-0.01 0,-0.02 0,-0.01 -0.01,-0.01 0,-0.02 0,-0.01 0,-0.01 -0.01,-0.01 0,-0.01 0,-0.01 0,-0.01 0,0 0,-0.01 0,-0.01 c 0,-0.18 0.14,-0.26 0.29,-0.26 0.12,0 0.29,0.07 0.37,0.27 0,0.02 0.12,0.49 0.18,0.74 l 0.22,0.89 c 0.06,0.22 0.12,0.44 0.17,0.67 0.04,0.17 0.12,0.46 0.13,0.5 0.15,0.3 0.68,1.21 1.62,1.21 0.45,0 0.54,-0.37 0.54,-0.7 0,-0.25 -0.07,-0.52 -0.15,-0.82 l -0.28,-1.16 -0.2,-0.75 c -0.04,-0.2 -0.13,-0.54 -0.13,-0.59 0,-0.18 0.14,-0.26 0.29,-0.26 0.31,0 0.37,0.24 0.45,0.56 0.14,0.56 0.51,2.01 0.6,2.4 0.03,0.12 0.55,1.32 1.64,1.32 0.43,0 0.54,-0.34 0.54,-0.7 0,-0.56 -0.42,-1.7 -0.62,-2.22 -0.09,-0.24 -0.13,-0.35 -0.13,-0.55 0,-0.47 0.35,-0.81 0.82,-0.81 0.93,0 1.3,1.45 1.3,1.53 0,0.1 -0.09,0.1 -0.12,0.1 -0.1,0 -0.1,-0.04 -0.15,-0.18 -0.15,-0.53 -0.47,-1.24 -1.01,-1.24 -0.17,0 -0.24,0.1 -0.24,0.33 0,0.25 0.09,0.49 0.18,0.71 0.18,0.51 0.6,1.62 0.6,2.18 0,0.65 -0.39,1.07 -1.14,1.07 -0.75,0 -1.25,-0.44 -1.62,-0.97 -0.01,0.13 -0.04,0.47 -0.32,0.71 -0.25,0.21 -0.57,0.26 -0.82,0.26 -0.89,0 -1.38,-0.64 -1.55,-0.87 -0.05,0.57 -0.47,0.87 -0.92,0.87 -0.45,0 -0.64,-0.39 -0.73,-0.57 -0.18,-0.35 -0.31,-0.93 -0.31,-0.96 0,-0.1 0.1,-0.1 0.12,-0.1 0.1,0 0.11,0.01 0.17,0.22 0.17,0.71 0.37,1.19 0.73,1.19 0.16,0 0.3,-0.08 0.3,-0.46 0,-0.21 -0.03,-0.32 -0.16,-0.83 z"
         id="path5372" /><path
         style="fill:#000000;stroke-width:0"
         inkscape:connector-curvature="0"
         d="m 234.56,707.87 0.75,0 c 0.53,0 0.62,-0.08 0.62,-0.31 0,-0.11 0,-0.12 -0.05,-0.32 -0.02,-0.04 -0.02,-0.06 -0.02,-0.08 0,-0.07 0.04,-0.1 0.12,-0.1 0.09,0 0.09,0.03 0.13,0.16 l 0.37,1.47 c 0.01,0.02 0.03,0.13 0.03,0.14 0,0.07 -0.05,0.1 -0.12,0.1 -0.1,0 -0.1,-0.04 -0.14,-0.16 -0.14,-0.55 -0.34,-0.65 -0.93,-0.65 l -0.7,0 0.44,1.75 c 0.06,0.21 0.06,0.23 0.36,0.23 l 1.06,0 c 0.93,0 1.1,-0.22 1.1,-0.8 0,-0.23 -0.02,-0.37 -0.02,-0.43 0,-0.05 0.02,-0.12 0.11,-0.12 0.11,0 0.12,0.07 0.13,0.18 l 0.13,1.21 c 0.02,0.21 -0.03,0.21 -0.21,0.21 l -3.72,0 c -0.13,0 -0.22,0 -0.22,-0.15 0,-0.1 0.08,-0.1 0.22,-0.1 0.01,0 0.14,0 0.27,-0.01 0.14,-0.02 0.16,-0.03 0.16,-0.1 0,-0.05 -0.02,-0.12 -0.03,-0.15 l -0.91,-3.64 c -0.07,-0.27 -0.08,-0.32 -0.62,-0.32 -0.12,0 -0.21,0 -0.21,-0.15 0,-0.06 0.05,-0.1 0.11,-0.1 0.2,0 0.72,0.03 0.92,0.03 l 0.54,-0.01 c 0.18,0 0.37,-0.02 0.55,-0.02 0.04,0 0.15,0 0.15,0.15 0,0.1 -0.08,0.1 -0.24,0.1 -0.02,0 -0.19,0 -0.37,0.02 -0.14,0.01 -0.21,0.02 -0.21,0.11 0,0.03 0,0.05 0.02,0.13 z"
         id="path5374" /><path
         style="fill:#000000;stroke-width:0"
         inkscape:connector-curvature="0"
         d="m 243.49,710.87 0,0.01 0,0.01 0.01,0.01 0,0.01 0,0.02 0.01,0.02 0,0.01 0,0.01 0,0.01 0,0.01 0.01,0.01 0,0.01 0,0.01 0,0 0,0.01 0,0.01 0,0 0,0.01 c 0,0.17 -0.12,0.27 -0.29,0.27 -0.1,0 -0.37,-0.07 -0.41,-0.43 -0.18,0.37 -0.53,0.63 -0.92,0.63 l 0.01,-0.22 c 0.65,0 0.79,-0.81 0.79,-0.86 0,-0.05 -0.02,-0.11 -0.03,-0.15 l -0.47,-1.89 c -0.06,-0.26 -0.29,-0.51 -0.51,-0.7 -0.21,-0.18 -0.52,-0.36 -0.81,-0.36 -0.5,0 -0.64,0.52 -0.64,0.92 0,0.47 0.28,1.65 0.55,2.15 0.27,0.49 0.7,0.89 1.12,0.89 l -0.01,0.22 c -1.14,0 -2.37,-1.4 -2.37,-2.83 0,-0.98 0.61,-1.57 1.32,-1.57 0.59,0 1.06,0.47 1.16,0.58 l 0.01,-0.01 c -0.21,-0.88 -0.33,-1.29 -0.33,-1.31 -0.04,-0.09 -0.38,-1.07 -1.43,-1.07 -0.19,0 -0.52,0.01 -0.8,0.1 0.3,0.09 0.41,0.34 0.41,0.51 0,0.16 -0.11,0.35 -0.38,0.35 -0.22,0 -0.54,-0.18 -0.54,-0.58 0,-0.4 0.37,-0.6 1.32,-0.6 1.25,0 1.97,0.77 2.11,1.37 z"
         id="path5376" /></g>    <g
       style="font-style:normal;font-variant:normal;font-weight:normal;font-stretch:normal;letter-spacing:normal;word-spacing:normal;text-anchor:start;fill:none;fill-opacity:1;fill-rule:evenodd;stroke:#000000;stroke-width:0.30645761;stroke-linecap:butt;stroke-linejoin:miter;stroke-miterlimit:10.43299961;stroke-dasharray:none;stroke-dashoffset:0;stroke-opacity:1"
       id="g5610"
       transform="matrix(3.2630932,0,0,-3.2630946,-508.96962,2706.2024)"
       xml:space="preserve"
       stroke-miterlimit="10.433"
       font-style="normal"
       font-variant="normal"
       font-weight="normal"
       font-stretch="normal"
       font-size-adjust="none"
       letter-spacing="normal"
       word-spacing="normal"
       ns0:text="$l_F$"
       ns0:preamble=""><path
         style="fill:#000000;stroke-width:0"
         inkscape:connector-curvature="0"
         d="m 226,713.91 0,0 0,0 0,0 0,0 0,0.01 0,0 0,0 0,0.01 0,0 0,0.01 0,0 -0.01,0 0,0.01 0,0 0,0.01 0,0 -0.01,0.01 0,0 0,0.01 -0.01,0 0,0.01 0,0 -0.01,0 0,0 0,0.01 -0.01,0 0,0 0,0 -0.01,0 0,0.01 0,0 -0.01,0 0,0 0,0 -0.01,0 0,0 -0.01,0 0,0.01 -0.01,0 0,0 -0.01,0 0,0 -0.01,0 0,0 -0.01,0 c -0.23,0 -0.96,-0.08 -1.21,-0.1 -0.08,-0.01 -0.19,-0.02 -0.19,-0.21 0,-0.11 0.1,-0.11 0.24,-0.11 0.48,0 0.49,-0.09 0.49,-0.17 l -0.03,-0.2 -1.25,-4.96 c -0.03,-0.11 -0.05,-0.18 -0.05,-0.34 0,-0.57 0.44,-0.91 0.9,-0.91 0.33,0 0.58,0.19 0.75,0.55 0.18,0.38 0.3,0.96 0.3,0.98 0,0.1 -0.09,0.1 -0.12,0.1 -0.1,0 -0.11,-0.05 -0.14,-0.18 -0.17,-0.65 -0.36,-1.24 -0.76,-1.24 -0.29,0 -0.29,0.32 -0.29,0.46 0,0.24 0.01,0.29 0.06,0.48 z"
         id="path5612" /><path
         style="fill:#000000;stroke-width:0"
         inkscape:connector-curvature="0"
         d="m 228.79,707.87 0.74,0 c 0.53,0 0.62,-0.08 0.62,-0.31 0,-0.11 0,-0.12 -0.05,-0.32 -0.01,-0.04 -0.02,-0.06 -0.02,-0.08 0,-0.07 0.05,-0.1 0.12,-0.1 0.09,0 0.1,0.03 0.13,0.16 l 0.38,1.47 c 0.01,0.02 0.03,0.13 0.03,0.14 0,0.07 -0.05,0.1 -0.12,0.1 -0.1,0 -0.11,-0.04 -0.14,-0.16 -0.14,-0.55 -0.34,-0.65 -0.93,-0.65 l -0.7,0 0.44,1.75 c 0.05,0.21 0.06,0.23 0.35,0.23 l 1.07,0 c 0.92,0 1.1,-0.22 1.1,-0.8 0,-0.23 -0.03,-0.37 -0.03,-0.43 0,-0.05 0.02,-0.12 0.12,-0.12 0.1,0 0.11,0.07 0.12,0.18 l 0.13,1.21 c 0.02,0.21 -0.03,0.21 -0.2,0.21 l -3.72,0 c -0.13,0 -0.22,0 -0.22,-0.15 0,-0.1 0.08,-0.1 0.22,-0.1 0.01,0 0.14,0 0.26,-0.01 0.15,-0.02 0.16,-0.03 0.16,-0.1 0,-0.05 -0.02,-0.12 -0.02,-0.15 l -0.92,-3.64 c -0.06,-0.27 -0.07,-0.32 -0.61,-0.32 -0.12,0 -0.21,0 -0.21,-0.15 0,-0.06 0.04,-0.1 0.11,-0.1 0.2,0 0.71,0.03 0.92,0.03 l 0.53,-0.01 c 0.18,0 0.38,-0.02 0.55,-0.02 0.05,0 0.16,0 0.16,0.15 0,0.1 -0.09,0.1 -0.25,0.1 -0.01,0 -0.19,0 -0.36,0.02 -0.15,0.01 -0.22,0.02 -0.22,0.11 0,0.03 0,0.05 0.02,0.13 z"
         id="path5614" /></g>    <g
       style="font-style:normal;font-variant:normal;font-weight:normal;font-stretch:normal;letter-spacing:normal;word-spacing:normal;text-anchor:start;fill:none;fill-opacity:1;fill-rule:evenodd;stroke:#000000;stroke-width:0.30645761;stroke-linecap:butt;stroke-linejoin:miter;stroke-miterlimit:10.43299961;stroke-dasharray:none;stroke-dashoffset:0;stroke-opacity:1"
       ns0:preamble=""
       ns0:text="$m_Wg$"
       word-spacing="normal"
       letter-spacing="normal"
       font-size-adjust="none"
       font-stretch="normal"
       font-weight="normal"
       font-variant="normal"
       font-style="normal"
       stroke-miterlimit="10.433"
       xml:space="preserve"
       transform="matrix(3.2630932,0,0,-3.2630946,-377.16408,2733.6351)"
       id="content"><path
         style="fill:#000000;stroke-width:0"
         inkscape:connector-curvature="0"
         id="path5735"
         d="m 224.31,707.71 0,-0.01 -0.01,-0.02 0,-0.01 0,-0.02 -0.01,-0.03 -0.01,-0.03 -0.01,-0.03 0,-0.04 -0.01,-0.03 -0.01,-0.03 0,-0.01 -0.01,-0.02 0,-0.01 0,-0.02 0,-0.01 -0.01,-0.01 0,-0.02 0,-0.01 0,-0.01 -0.01,-0.01 0,-0.01 0,-0.01 0,-0.01 0,0 0,-0.01 0,-0.01 c 0,-0.18 0.14,-0.26 0.29,-0.26 0.12,0 0.29,0.07 0.37,0.27 0,0.02 0.12,0.49 0.18,0.74 l 0.22,0.89 c 0.06,0.22 0.12,0.44 0.17,0.67 0.04,0.17 0.12,0.46 0.13,0.5 0.15,0.3 0.68,1.21 1.62,1.21 0.45,0 0.54,-0.37 0.54,-0.7 0,-0.25 -0.07,-0.52 -0.15,-0.82 l -0.28,-1.16 -0.2,-0.75 c -0.04,-0.2 -0.13,-0.54 -0.13,-0.59 0,-0.18 0.14,-0.26 0.29,-0.26 0.31,0 0.37,0.24 0.45,0.56 0.14,0.56 0.51,2.01 0.6,2.4 0.03,0.12 0.55,1.32 1.64,1.32 0.43,0 0.54,-0.34 0.54,-0.7 0,-0.56 -0.42,-1.7 -0.62,-2.22 -0.09,-0.24 -0.13,-0.35 -0.13,-0.55 0,-0.47 0.35,-0.81 0.82,-0.81 0.93,0 1.3,1.45 1.3,1.53 0,0.1 -0.09,0.1 -0.12,0.1 -0.1,0 -0.1,-0.04 -0.15,-0.18 -0.15,-0.53 -0.47,-1.24 -1.01,-1.24 -0.17,0 -0.24,0.1 -0.24,0.33 0,0.25 0.09,0.49 0.18,0.71 0.18,0.51 0.6,1.62 0.6,2.18 0,0.65 -0.39,1.07 -1.14,1.07 -0.75,0 -1.25,-0.44 -1.62,-0.97 -0.01,0.13 -0.04,0.47 -0.32,0.71 -0.25,0.21 -0.57,0.26 -0.82,0.26 -0.89,0 -1.38,-0.64 -1.55,-0.87 -0.05,0.57 -0.47,0.87 -0.92,0.87 -0.45,0 -0.64,-0.39 -0.73,-0.57 -0.18,-0.35 -0.31,-0.93 -0.31,-0.96 0,-0.1 0.1,-0.1 0.12,-0.1 0.1,0 0.11,0.01 0.17,0.22 0.17,0.71 0.37,1.19 0.73,1.19 0.16,0 0.3,-0.08 0.3,-0.46 0,-0.21 -0.03,-0.32 -0.16,-0.83 z" /><path
         style="fill:#000000;stroke-width:0"
         inkscape:connector-curvature="0"
         id="path5737"
         d="m 239.39,709.56 0.13,0.18 c 0.15,0.19 0.31,0.36 0.65,0.39 0.08,0.01 0.16,0.01 0.16,0.15 0,0.05 -0.04,0.1 -0.09,0.1 -0.16,0 -0.36,-0.03 -0.53,-0.03 -0.25,0 -0.55,0.03 -0.78,0.03 -0.03,0 -0.14,0 -0.14,-0.15 0,-0.09 0.1,-0.1 0.12,-0.1 0.16,-0.01 0.39,-0.05 0.39,-0.24 0,-0.08 -0.08,-0.21 -0.11,-0.25 l -1.96,-3.22 -0.38,3.51 c 0,0.19 0.4,0.2 0.48,0.2 0.09,0 0.19,0 0.19,0.15 0,0.01 -0.01,0.1 -0.12,0.1 -0.13,0 -0.3,-0.01 -0.43,-0.02 -0.14,-0.01 -0.32,-0.01 -0.46,-0.01 -0.16,0 -0.57,0.03 -0.73,0.03 -0.04,0 -0.14,0 -0.14,-0.15 0,-0.1 0.09,-0.1 0.18,-0.1 0.3,0 0.34,-0.05 0.36,-0.12 0,-0.04 0.02,-0.23 0.05,-0.45 l -1.92,-3.14 -0.37,3.4 c 0,0.03 -0.01,0.1 -0.01,0.11 0,0.2 0.43,0.2 0.48,0.2 0.1,0 0.19,0 0.19,0.15 0,0.03 -0.02,0.1 -0.11,0.1 -0.2,0 -0.7,-0.03 -0.9,-0.03 -0.23,0 -0.52,0.03 -0.73,0.03 -0.07,0 -0.14,-0.03 -0.14,-0.15 0,-0.1 0.09,-0.1 0.2,-0.1 0.32,0 0.32,-0.04 0.34,-0.22 l 0.47,-4.23 c 0.02,-0.14 0.02,-0.19 0.15,-0.19 0.12,0 0.16,0.06 0.21,0.14 l 2.17,3.58 0.38,-3.54 c 0.02,-0.14 0.05,-0.18 0.16,-0.18 0.11,0 0.16,0.06 0.21,0.15 z" /><path
         style="fill:#000000;stroke-width:0"
         inkscape:connector-curvature="0"
         id="path5739"
         d="m 245.93,710.87 0,0.01 0,0.01 0.01,0.01 0,0.01 0,0.02 0.01,0.02 0,0.01 0,0.01 0,0.01 0,0.01 0.01,0.01 0,0.01 0,0.01 0,0 0,0.01 0,0.01 0,0 0,0.01 c 0,0.17 -0.12,0.27 -0.29,0.27 -0.1,0 -0.37,-0.07 -0.41,-0.43 -0.18,0.37 -0.52,0.63 -0.92,0.63 l 0.01,-0.22 c 0.65,0 0.79,-0.81 0.79,-0.86 0,-0.05 -0.02,-0.11 -0.03,-0.15 l -0.47,-1.89 c -0.06,-0.26 -0.29,-0.51 -0.51,-0.7 -0.21,-0.18 -0.52,-0.36 -0.81,-0.36 -0.5,0 -0.64,0.52 -0.64,0.92 0,0.47 0.28,1.65 0.55,2.15 0.27,0.49 0.7,0.89 1.12,0.89 l -0.01,0.22 c -1.14,0 -2.37,-1.4 -2.37,-2.83 0,-0.98 0.61,-1.57 1.32,-1.57 0.59,0 1.06,0.47 1.16,0.58 l 0.01,-0.01 c -0.21,-0.88 -0.33,-1.29 -0.33,-1.31 -0.04,-0.09 -0.38,-1.07 -1.43,-1.07 -0.19,0 -0.52,0.01 -0.8,0.1 0.3,0.09 0.41,0.34 0.41,0.51 0,0.16 -0.11,0.35 -0.38,0.35 -0.22,0 -0.54,-0.18 -0.54,-0.58 0,-0.4 0.37,-0.6 1.32,-0.6 1.25,0 1.97,0.77 2.11,1.37 z" /></g>    <g
       id="g5860"
       transform="matrix(3.2630932,0,0,-3.2630946,-542.54247,2670.961)"
       xml:space="preserve"
       stroke-miterlimit="10.433"
       font-style="normal"
       font-variant="normal"
       font-weight="normal"
       font-stretch="normal"
       font-size-adjust="none"
       letter-spacing="normal"
       word-spacing="normal"
       ns0:text="$l_W$"
       ns0:preamble=""
       style="font-style:normal;font-variant:normal;font-weight:normal;font-stretch:normal;letter-spacing:normal;word-spacing:normal;text-anchor:start;fill:none;fill-opacity:1;fill-rule:evenodd;stroke:#000000;stroke-width:0.30645761;stroke-linecap:butt;stroke-linejoin:miter;stroke-miterlimit:10.43299961;stroke-dasharray:none;stroke-dashoffset:0;stroke-opacity:1"><path
         style="fill:#000000;stroke-width:0"
         inkscape:connector-curvature="0"
         d="m 226,713.91 0,0 0,0 0,0 0,0 0,0.01 0,0 0,0 0,0.01 0,0 0,0.01 0,0 -0.01,0 0,0.01 0,0 0,0.01 0,0 -0.01,0.01 0,0 0,0.01 -0.01,0 0,0.01 0,0 -0.01,0 0,0 0,0.01 -0.01,0 0,0 0,0 -0.01,0 0,0.01 0,0 -0.01,0 0,0 0,0 -0.01,0 0,0 -0.01,0 0,0.01 -0.01,0 0,0 -0.01,0 0,0 -0.01,0 0,0 -0.01,0 c -0.23,0 -0.96,-0.08 -1.21,-0.1 -0.08,-0.01 -0.19,-0.02 -0.19,-0.21 0,-0.11 0.1,-0.11 0.24,-0.11 0.48,0 0.49,-0.09 0.49,-0.17 l -0.03,-0.2 -1.25,-4.96 c -0.03,-0.11 -0.05,-0.18 -0.05,-0.34 0,-0.57 0.44,-0.91 0.9,-0.91 0.33,0 0.58,0.19 0.75,0.55 0.18,0.38 0.3,0.96 0.3,0.98 0,0.1 -0.09,0.1 -0.12,0.1 -0.1,0 -0.11,-0.05 -0.14,-0.18 -0.17,-0.65 -0.36,-1.24 -0.76,-1.24 -0.29,0 -0.29,0.32 -0.29,0.46 0,0.24 0.01,0.29 0.06,0.48 z"
         id="path5862" /><path
         style="fill:#000000;stroke-width:0"
         inkscape:connector-curvature="0"
         d="m 233.62,709.56 0.13,0.18 c 0.14,0.19 0.31,0.36 0.65,0.39 0.08,0.01 0.16,0.01 0.16,0.15 0,0.05 -0.04,0.1 -0.1,0.1 -0.16,0 -0.36,-0.03 -0.53,-0.03 -0.24,0 -0.54,0.03 -0.77,0.03 -0.03,0 -0.15,0 -0.15,-0.15 0,-0.09 0.1,-0.1 0.13,-0.1 0.15,-0.01 0.38,-0.05 0.38,-0.24 0,-0.08 -0.07,-0.21 -0.1,-0.25 l -1.97,-3.22 -0.38,3.51 c 0,0.19 0.41,0.2 0.49,0.2 0.09,0 0.19,0 0.19,0.15 0,0.01 -0.01,0.1 -0.12,0.1 -0.13,0 -0.3,-0.01 -0.43,-0.02 -0.14,-0.01 -0.32,-0.01 -0.46,-0.01 -0.16,0 -0.57,0.03 -0.73,0.03 -0.04,0 -0.14,0 -0.14,-0.15 0,-0.1 0.09,-0.1 0.18,-0.1 0.3,0 0.33,-0.05 0.35,-0.12 0.01,-0.04 0.02,-0.23 0.05,-0.45 l -1.91,-3.14 -0.37,3.4 c 0,0.03 -0.02,0.1 -0.02,0.11 0,0.2 0.44,0.2 0.49,0.2 0.09,0 0.19,0 0.19,0.15 0,0.03 -0.02,0.1 -0.11,0.1 -0.21,0 -0.7,-0.03 -0.9,-0.03 -0.23,0 -0.52,0.03 -0.73,0.03 -0.07,0 -0.14,-0.03 -0.14,-0.15 0,-0.1 0.08,-0.1 0.19,-0.1 0.33,0 0.33,-0.04 0.35,-0.22 l 0.47,-4.23 c 0.01,-0.14 0.02,-0.19 0.14,-0.19 0.12,0 0.17,0.06 0.21,0.14 l 2.18,3.58 0.38,-3.54 c 0.01,-0.14 0.05,-0.18 0.15,-0.18 0.12,0 0.16,0.06 0.21,0.15 z"
         id="path5864" /></g>    <g
       ns0:preamble=""
       ns0:text="$\\theta_F$"
       word-spacing="normal"
       letter-spacing="normal"
       font-size-adjust="none"
       font-stretch="normal"
       font-weight="normal"
       font-variant="normal"
       font-style="normal"
       stroke-miterlimit="10.433"
       xml:space="preserve"
       transform="matrix(2.9014633,0,0,-2.9014636,-377.14503,2470.5369)"
       id="g5976"
       style="font-style:normal;font-variant:normal;font-weight:normal;font-stretch:normal;letter-spacing:normal;word-spacing:normal;text-anchor:start;fill:none;fill-opacity:1;fill-rule:evenodd;stroke:#000000;stroke-width:0.34465367;stroke-linecap:butt;stroke-linejoin:miter;stroke-miterlimit:10.43299961;stroke-dasharray:none;stroke-dashoffset:0;stroke-opacity:1"><path
         id="path5978"
         d="m 227.96,712.09 0,0.07 0,0.06 -0.01,0.07 0,0.08 -0.01,0.07 0,0.08 -0.01,0.08 -0.01,0.09 -0.02,0.08 -0.01,0.08 -0.02,0.09 -0.02,0.08 -0.02,0.09 -0.03,0.08 -0.03,0.08 -0.03,0.09 -0.03,0.07 -0.04,0.08 -0.04,0.08 -0.04,0.07 -0.05,0.06 -0.05,0.07 -0.05,0.06 -0.06,0.05 -0.06,0.05 -0.03,0.02 -0.04,0.03 -0.03,0.02 -0.04,0.01 -0.03,0.02 -0.04,0.02 -0.04,0.01 -0.04,0.01 -0.04,0.01 -0.04,0.01 -0.05,0.01 -0.04,0 -0.05,0.01 -0.05,0 0,-0.22 c 0.48,0 0.54,-0.64 0.54,-1.2 0,-0.49 -0.08,-1 -0.32,-1.98 l -2.08,0 c 0.17,0.64 0.37,1.43 0.77,2.14 0.27,0.48 0.64,1.04 1.09,1.04 l 0,0.22 c -1.38,0 -2.91,-2.8 -2.91,-5.08 0,-0.93 0.29,-2.03 1.19,-2.03 l 0,0.21 c -0.33,0 -0.53,0.29 -0.53,1.22 0,0.41 0.06,0.99 0.31,1.96 l 2.07,0 c -0.1,-0.45 -0.31,-1.3 -0.69,-2.01 -0.35,-0.68 -0.73,-1.17 -1.16,-1.17 l 0,-0.21 c 1.41,0 2.92,2.85 2.92,5.07 z"
         inkscape:connector-curvature="0"
         style="fill:#000000;stroke-width:0" /><path
         id="path5980"
         d="m 230.49,707.87 0.75,0 c 0.52,0 0.62,-0.08 0.62,-0.31 0,-0.11 0,-0.12 -0.05,-0.32 -0.02,-0.04 -0.02,-0.06 -0.02,-0.08 0,-0.07 0.05,-0.1 0.11,-0.1 0.09,0 0.1,0.03 0.14,0.16 l 0.37,1.47 c 0.01,0.02 0.03,0.13 0.03,0.14 0,0.07 -0.05,0.1 -0.12,0.1 -0.09,0 -0.1,-0.04 -0.14,-0.16 -0.14,-0.55 -0.34,-0.65 -0.93,-0.65 l -0.7,0 0.44,1.75 c 0.06,0.21 0.06,0.23 0.36,0.23 l 1.06,0 c 0.93,0 1.1,-0.22 1.1,-0.8 0,-0.23 -0.02,-0.37 -0.02,-0.43 0,-0.05 0.02,-0.12 0.11,-0.12 0.11,0 0.11,0.07 0.13,0.18 l 0.12,1.21 c 0.03,0.21 -0.02,0.21 -0.2,0.21 l -3.72,0 c -0.13,0 -0.22,0 -0.22,-0.15 0,-0.1 0.08,-0.1 0.22,-0.1 0.01,0 0.14,0 0.27,-0.01 0.15,-0.02 0.16,-0.03 0.16,-0.1 0,-0.05 -0.02,-0.12 -0.03,-0.15 l -0.91,-3.64 c -0.07,-0.27 -0.08,-0.32 -0.62,-0.32 -0.12,0 -0.21,0 -0.21,-0.15 0,-0.06 0.05,-0.1 0.11,-0.1 0.2,0 0.72,0.03 0.92,0.03 l 0.54,-0.01 c 0.18,0 0.37,-0.02 0.55,-0.02 0.05,0 0.15,0 0.15,0.15 0,0.1 -0.08,0.1 -0.24,0.1 -0.02,0 -0.19,0 -0.37,0.02 -0.14,0.01 -0.21,0.02 -0.21,0.11 0,0.03 0,0.05 0.02,0.13 z"
         inkscape:connector-curvature="0"
         style="fill:#000000;stroke-width:0" /></g>  </g>
</svg>
