<?xml version="1.0" encoding="UTF-8" standalone="no"?>
<!-- Created with Inkscape (http://www.inkscape.org/) -->

<svg
   xmlns:ns0="http://www.iki.fi/pav/software/textext/"
   xmlns:dc="http://purl.org/dc/elements/1.1/"
   xmlns:cc="http://creativecommons.org/ns#"
   xmlns:rdf="http://www.w3.org/1999/02/22-rdf-syntax-ns#"
   xmlns:svg="http://www.w3.org/2000/svg"
   xmlns="http://www.w3.org/2000/svg"
   xmlns:sodipodi="http://sodipodi.sourceforge.net/DTD/sodipodi-0.dtd"
   xmlns:inkscape="http://www.inkscape.org/namespaces/inkscape"
   width="96.03598mm"
   height="55.124218mm"
   viewBox="0 0 340.28497 195.32203"
   id="svg5079"
   version="1.1"
   inkscape:version="0.91 r13725"
   sodipodi:docname="programTimingSetup.svg">
  <sodipodi:namedview
     id="base"
     pagecolor="#ffffff"
     bordercolor="#666666"
     borderopacity="1.0"
     inkscape:pageopacity="0.0"
     inkscape:pageshadow="2"
     inkscape:zoom="2.8"
     inkscape:cx="247.01601"
     inkscape:cy="94.949523"
     inkscape:document-units="px"
     inkscape:current-layer="layer1"
     showgrid="false"
     inkscape:window-width="1920"
     inkscape:window-height="1016"
     inkscape:window-x="1280"
     inkscape:window-y="27"
     inkscape:window-maximized="1"
     fit-margin-top="0"
     fit-margin-left="0"
     fit-margin-right="0"
     fit-margin-bottom="0" />
  <defs
     id="defs5081" />
  <metadata
     id="metadata5084">
    <rdf:RDF>
      <cc:Work
         rdf:about="">
        <dc:format>image/svg+xml</dc:format>
        <dc:type
           rdf:resource="http://purl.org/dc/dcmitype/StillImage" />
        <dc:title></dc:title>
      </cc:Work>
    </rdf:RDF>
  </metadata>
  <g
     inkscape:label="Layer 1"
     inkscape:groupmode="layer"
     id="layer1"
     transform="translate(-99.857872,-50.75445)">
    <rect
       y="150.32228"
       x="100.35787"
       height="5.0507607"
       width="148.99751"
       id="rect4184"
       style="fill:#1a1a1a;fill-opacity:1;stroke:#000000;stroke-width:1;stroke-linecap:round;stroke-miterlimit:4;stroke-dasharray:none;stroke-dashoffset:0;stroke-opacity:1" />
    <rect
       y="92.430099"
       x="287.40033"
       height="59.485687"
       width="129.85228"
       id="rect4136"
       style="fill:none;fill-opacity:1;stroke:#000000;stroke-width:0.99999994;stroke-linecap:round;stroke-miterlimit:4;stroke-dasharray:none;stroke-dashoffset:0;stroke-opacity:1" />
    <rect
       y="98.16832"
       x="293.34952"
       height="33.57143"
       width="47.142857"
       id="rect4138"
       style="fill:none;fill-opacity:1;stroke:#000000;stroke-width:1;stroke-linecap:round;stroke-miterlimit:4;stroke-dasharray:none;stroke-dashoffset:0;stroke-opacity:1" />
    <circle
       r="3.9285715"
       cy="141.59688"
       cx="351.49237"
       id="path4144"
       style="fill:#000000;fill-opacity:1;stroke:#000000;stroke-width:1;stroke-linecap:round;stroke-miterlimit:4;stroke-dasharray:none;stroke-dashoffset:0;stroke-opacity:1" />
    <path
       inkscape:connector-curvature="0"
       id="path4154"
       d="M 350.25607,142.64117 C 296.52011,188.11716 234.2787,125.35699 234.78377,115.76054"
       style="fill:none;fill-rule:evenodd;stroke:#000000;stroke-width:1px;stroke-linecap:butt;stroke-linejoin:miter;stroke-opacity:1"
       sodipodi:nodetypes="cc" />
    <rect
       style="opacity:1;fill:none;fill-opacity:1;stroke:#000000;stroke-width:1;stroke-linecap:round;stroke-linejoin:round;stroke-miterlimit:4;stroke-dasharray:none;stroke-dashoffset:0;stroke-opacity:1"
       id="rect5742"
       width="40.027294"
       height="21.465742"
       x="155.18468"
       y="88.80294" />
    <rect
       transform="matrix(0.7071068,0.70710676,-0.7071068,0.70710676,0,0)"
       y="-87.450485"
       x="160.22812"
       height="69.285706"
       width="69.285706"
       id="rect4156"
       style="fill:none;fill-opacity:1;stroke:#000000;stroke-width:1;stroke-linecap:round;stroke-miterlimit:4;stroke-dasharray:none;stroke-dashoffset:0;stroke-opacity:1" />
    <circle
       style="fill:none;fill-opacity:1;stroke:#000000;stroke-width:1;stroke-linecap:round;stroke-miterlimit:4;stroke-dasharray:none;stroke-dashoffset:0;stroke-opacity:1"
       id="circle4158"
       cx="174.9873"
       cy="133.59688"
       r="7.5903745" />
    <g
       id="g5737"
       transform="matrix(0.99535551,0.09626741,-0.09626741,0.99535551,18.260846,-62.628862)">
      <rect
         style="fill:#666666;fill-opacity:1;stroke:#000000;stroke-width:1;stroke-linecap:round;stroke-miterlimit:4;stroke-dasharray:none;stroke-dashoffset:0;stroke-opacity:0.73372779"
         id="rect4160"
         width="44.642853"
         height="6.7857132"
         x="229.59573"
         y="74.057564"
         transform="matrix(0.95018691,0.31168066,-0.3116807,0.9501869,0,0)" />
      <rect
         style="fill:#666666;fill-opacity:1;stroke:#000000;stroke-width:1.00002456;stroke-linecap:round;stroke-miterlimit:4;stroke-dasharray:none;stroke-dashoffset:0;stroke-opacity:0.73372779"
         id="rect4162"
         width="19.938757"
         height="2.3577409"
         x="212.12938"
         y="66.03257"
         transform="matrix(0.93548715,0.35336072,-0.34407763,0.9389412,0,0)" />
      <path
         style="fill:none;fill-rule:evenodd;stroke:#000000;stroke-width:1px;stroke-linecap:butt;stroke-linejoin:miter;stroke-opacity:1"
         d="m 174.94228,137.96818 c -2.39911,-0.63134 -2.39911,-0.63134 -2.39911,-0.63134"
         id="path4178"
         inkscape:connector-curvature="0" />
    </g>
    <circle
       r="21.785715"
       cy="98.453995"
       cx="175.13522"
       id="path4180"
       style="fill:#000000;fill-opacity:0;stroke:#000000;stroke-width:1;stroke-linecap:round;stroke-miterlimit:4;stroke-dasharray:none;stroke-dashoffset:0;stroke-opacity:1" />
    <g
       id="g5746"
       transform="matrix(0.71321455,0.27993497,-0.24796128,0.80518093,79.631447,-39.858828)">
      <ellipse
         style="fill:#28170b;fill-opacity:1;stroke:none;stroke-width:1;stroke-linecap:round;stroke-miterlimit:4;stroke-dasharray:none;stroke-dashoffset:0;stroke-opacity:1"
         id="path4164"
         cx="190.09456"
         cy="96.236252"
         rx="1.3889598"
         ry="1.4520943" />
      <path
         style="fill:none;fill-rule:evenodd;stroke:#000000;stroke-width:1.24642181px;stroke-linecap:butt;stroke-linejoin:miter;stroke-opacity:0.91715973"
         d="m 202.49419,101.37836 c -2.24768,-8.97555 -11.88061,-5.38534 -11.88061,-5.38534"
         id="path4176"
         inkscape:connector-curvature="0" />
    </g>
    <circle
       style="fill:#000000;fill-opacity:0;stroke:#000000;stroke-width:1;stroke-linecap:round;stroke-miterlimit:4;stroke-dasharray:none;stroke-dashoffset:0;stroke-opacity:1"
       id="circle4182"
       cx="175.13522"
       cy="98.453995"
       r="2.8571436" />
    <text
       sodipodi:linespacing="125%"
       id="text4188"
       y="214.99231"
       x="368.00772"
       style="font-style:normal;font-weight:normal;font-size:40px;line-height:125%;font-family:sans-serif;letter-spacing:0px;word-spacing:0px;fill:#000000;fill-opacity:1;stroke:none;stroke-width:1px;stroke-linecap:butt;stroke-linejoin:miter;stroke-opacity:1"
       xml:space="preserve"><tspan
         y="214.99231"
         x="368.00772"
         id="tspan4190"
         sodipodi:role="line" /></text>
    <g
       transform="matrix(0.21003357,0,0,0.2100334,287.72138,30.453031)"
       id="g4278">
      <g
         style="font-style:normal;font-variant:normal;font-weight:normal;font-stretch:normal;letter-spacing:normal;word-spacing:normal;text-anchor:start;fill:none;fill-opacity:1;fill-rule:evenodd;stroke:#000000;stroke-width:4.76114511;stroke-linecap:butt;stroke-linejoin:miter;stroke-miterlimit:10.43299961;stroke-dasharray:none;stroke-dashoffset:0;stroke-opacity:1"
         id="g4280"
         transform="matrix(1.0629921,0,0,-1.0629921,-186.02362,789.27165)"
         xml:space="preserve"
         stroke-miterlimit="10.433"
         font-style="normal"
         font-variant="normal"
         font-weight="normal"
         font-stretch="normal"
         font-size-adjust="none"
         letter-spacing="normal"
         word-spacing="normal"><path
           style="fill:#000000;stroke-width:0"
           inkscape:connector-curvature="0"
           d="m 491.44,423.09 -0.02,0.95 -0.07,0.93 -0.1,0.92 -0.15,0.9 -0.19,0.89 -0.22,0.86 -0.27,0.85 -0.3,0.83 -0.33,0.81 -0.37,0.79 -0.4,0.76 -0.44,0.74 -0.47,0.72 -0.49,0.68 -0.53,0.66 -0.55,0.64 -0.58,0.6 -0.6,0.57 -0.63,0.54 -0.65,0.5 -0.67,0.47 -0.7,0.44 -0.71,0.4 -0.74,0.36 -0.75,0.33 -0.77,0.28 -0.78,0.25 -0.8,0.2 -0.81,0.16 -0.82,0.11 -0.84,0.07 -0.84,0.02 0,-1.25 c 4.34,0 11.47,-3.53 11.47,-16.28 0,-13.2 -6.83,-17.39 -11.43,-17.39 l 0,0 c -4.78,0 -11.45,4.38 -11.45,17.39 0,12.89 7.28,16.28 11.41,16.28 l 0,1.25 c -8.92,0 -16.53,-7.96 -16.53,-18.23 0,-10.22 7.67,-17.98 16.53,-17.98 9.06,0 16.59,7.92 16.59,17.98 z"
           id="path4282" /><path
           style="fill:#000000;stroke-width:0"
           inkscape:connector-curvature="0"
           d="m 504.64,415.87 0.11,-0.02 0.13,-0.02 0.14,-0.03 0.15,-0.04 0.17,-0.04 0.18,-0.04 0.19,-0.05 0.2,-0.06 0.2,-0.06 0.21,-0.07 0.22,-0.08 0.22,-0.08 0.22,-0.1 0.22,-0.1 0.22,-0.11 0.22,-0.12 0.22,-0.14 0.21,-0.14 0.2,-0.15 0.2,-0.16 0.19,-0.18 0.18,-0.19 0.17,-0.2 0.16,-0.21 0.14,-0.22 0.07,-0.12 0.06,-0.12 0.06,-0.13 0.05,-0.12 0.05,-0.14 0.05,-0.13 0.04,-0.14 0.03,-0.14 0.03,-0.15 0.03,-0.15 0.02,-0.16 0.01,-0.15 0.01,-0.17 0,-0.16 c 0,-2.53 -1.75,-4.53 -5.62,-4.53 -4.19,0 -5.99,2.84 -6.94,7.07 -0.14,0.64 -0.19,0.85 -0.69,0.85 -0.65,0 -0.65,-0.35 -0.65,-1.25 l 0,-6.58 c 0,-0.84 0,-1.19 0.54,-1.19 0.25,0 0.3,0.05 1.25,1 0.1,0.1 0.1,0.19 1,1.14 2.19,-2.09 4.44,-2.14 5.49,-2.14 5.72,0 8.02,3.35 8.02,6.92 0,2.64 -1.51,4.14 -2.1,4.74 -1.64,1.59 -3.59,2 -5.69,2.39 -2.78,0.55 -6.12,1.2 -6.12,4.09 0,1.74 1.3,3.78 5.58,3.78 5.48,0 5.73,-4.48 5.82,-6.03 0.07,-0.45 0.5,-0.45 0.61,-0.45 0.64,0 0.64,0.25 0.64,1.2 l 0,5.03 c 0,0.85 0,1.19 -0.54,1.19 -0.25,0 -0.35,0 -1,-0.59 -0.14,-0.21 -0.64,-0.64 -0.85,-0.8 -1.89,1.39 -3.93,1.39 -4.68,1.39 -6.08,0 -7.97,-3.33 -7.97,-6.12 0,-1.74 0.79,-3.14 2.14,-4.24 1.59,-1.29 3,-1.59 6.58,-2.28 z"
           id="path4284" /><path
           style="fill:#000000;stroke-width:0"
           inkscape:connector-curvature="0"
           d="m 519.78,417.06 0.01,0.38 0.01,0.36 0.01,0.36 0.02,0.35 0.03,0.34 0.03,0.34 0.03,0.32 0.05,0.32 0.04,0.31 0.05,0.3 0.06,0.29 0.06,0.29 0.13,0.55 0.16,0.51 0.16,0.49 0.19,0.46 0.19,0.43 0.21,0.4 0.22,0.38 0.23,0.35 0.24,0.32 0.25,0.3 0.26,0.28 0.26,0.26 0.27,0.23 0.28,0.21 0.28,0.19 0.28,0.16 0.28,0.15 0.28,0.13 0.29,0.12 0.28,0.09 0.28,0.08 0.27,0.06 0.27,0.05 0.27,0.03 0.26,0.02 0.25,0.01 c 0.44,0 3.58,-0.05 5.33,-1.85 -2.05,-0.15 -2.35,-1.64 -2.35,-2.29 0,-1.3 0.9,-2.3 2.3,-2.3 1.28,0 2.28,0.86 2.28,2.34 0,3.39 -3.78,5.33 -7.62,5.33 -6.22,0 -10.81,-5.37 -10.81,-11.55 0,-6.37 4.93,-11.31 10.71,-11.31 6.67,0 8.27,5.99 8.27,6.47 0,0.5 -0.5,0.5 -0.64,0.5 -0.46,0 -0.55,-0.19 -0.66,-0.5 -1.43,-4.62 -4.67,-5.22 -6.51,-5.22 -2.64,0 -7.04,2.14 -7.04,10.16 z"
           id="path4286" /><path
           style="fill:#000000;stroke-width:0"
           inkscape:connector-curvature="0"
           d="m 544.85,428.21 -6.97,-0.54 0,-1.55 c 3.23,0 3.69,-0.3 3.69,-2.73 l 0,-13.41 c 0,-2.23 -0.55,-2.23 -3.89,-2.23 l 0,-1.55 c 1.59,0.05 4.28,0.16 5.48,0.16 1.75,0 3.49,-0.11 5.19,-0.16 l 0,1.55 c -3.3,0 -3.5,0.25 -3.5,2.18 z"
           id="path4288" /><path
           style="fill:#000000;stroke-width:0"
           inkscape:connector-curvature="0"
           d="m 545.05,436.89 0,0.14 -0.01,0.15 -0.02,0.14 -0.03,0.14 -0.03,0.13 -0.03,0.13 -0.05,0.13 -0.05,0.12 -0.05,0.12 -0.06,0.12 -0.07,0.11 -0.07,0.1 -0.07,0.1 -0.08,0.1 -0.09,0.1 -0.09,0.08 -0.09,0.09 -0.1,0.08 -0.1,0.07 -0.1,0.07 -0.11,0.07 -0.11,0.06 -0.11,0.05 -0.12,0.05 -0.12,0.04 -0.12,0.04 -0.12,0.03 -0.13,0.03 -0.12,0.02 -0.13,0.01 -0.13,0.01 -0.13,0.01 c -1.55,0 -2.64,-1.35 -2.64,-2.64 0,-1.35 1.09,-2.64 2.64,-2.64 1.39,0 2.64,1.04 2.64,2.64 z"
           id="path4290" /><path
           style="fill:#000000;stroke-width:0"
           inkscape:connector-curvature="0"
           d="m 558.65,440.78 -7.18,-0.55 0,-1.55 c 3.49,0 3.89,-0.34 3.89,-2.79 l 0,-25.91 c 0,-2.23 -0.54,-2.23 -3.89,-2.23 l 0,-1.55 c 1.64,0.05 4.28,0.16 5.53,0.16 1.25,0 3.69,-0.11 5.53,-0.16 l 0,1.55 c -3.34,0 -3.88,0 -3.88,2.23 z"
           id="path4292" /><path
           style="fill:#000000;stroke-width:0"
           inkscape:connector-curvature="0"
           d="m 572.44,440.78 -7.17,-0.55 0,-1.55 c 3.48,0 3.89,-0.34 3.89,-2.79 l 0,-25.91 c 0,-2.23 -0.55,-2.23 -3.89,-2.23 l 0,-1.55 c 1.64,0.05 4.28,0.16 5.53,0.16 1.25,0 3.69,-0.11 5.53,-0.16 l 0,1.55 c -3.34,0 -3.89,0 -3.89,2.23 z"
           id="path4294" /><path
           style="fill:#000000;stroke-width:0"
           inkscape:connector-curvature="0"
           d="m 600.9,416.86 -0.02,0.59 -0.04,0.59 -0.07,0.58 -0.1,0.57 -0.13,0.56 -0.14,0.55 -0.18,0.54 -0.2,0.53 -0.22,0.51 -0.25,0.5 -0.26,0.49 -0.29,0.47 -0.31,0.46 -0.33,0.44 -0.35,0.43 -0.36,0.4 -0.39,0.39 -0.4,0.37 -0.41,0.35 -0.44,0.32 -0.44,0.31 -0.46,0.28 -0.48,0.26 -0.49,0.24 -0.49,0.21 -0.51,0.18 -0.53,0.16 -0.53,0.13 -0.54,0.11 -0.54,0.07 -0.56,0.05 -0.56,0.01 -0.05,-1.09 c 2.19,0 4.33,-1.1 5.63,-3.24 1.29,-2.14 1.29,-5.03 1.29,-6.92 0,-1.8 0,-4.48 -1.09,-6.67 -1.09,-2.25 -3.28,-3.69 -5.78,-3.69 l 0,0 c -2.14,0 -4.33,1.05 -5.67,3.33 -1.25,2.2 -1.25,5.23 -1.25,7.03 0,1.94 0,4.63 1.19,6.83 1.35,2.28 3.68,3.33 5.68,3.33 l 0.05,1.09 c -6.22,0 -11.06,-5.42 -11.06,-11.65 0,-6.43 5.18,-11.21 11.01,-11.21 6.03,0 11.07,4.88 11.07,11.21 z"
           id="path4296" /><path
           style="fill:#000000;stroke-width:0"
           inkscape:connector-curvature="0"
           d="m 612.74,415.87 0.11,-0.02 0.13,-0.02 0.14,-0.03 0.16,-0.04 0.17,-0.04 0.18,-0.04 0.19,-0.05 0.19,-0.06 0.21,-0.06 0.21,-0.07 0.22,-0.08 0.21,-0.08 0.23,-0.1 0.22,-0.1 0.22,-0.11 0.22,-0.12 0.21,-0.14 0.21,-0.14 0.21,-0.15 0.2,-0.16 0.19,-0.18 0.18,-0.19 0.17,-0.2 0.15,-0.21 0.15,-0.22 0.06,-0.12 0.06,-0.12 0.06,-0.13 0.06,-0.12 0.05,-0.14 0.04,-0.13 0.04,-0.14 0.04,-0.14 0.03,-0.15 0.02,-0.15 0.02,-0.16 0.02,-0.15 0.01,-0.17 0,-0.16 c 0,-2.53 -1.75,-4.53 -5.63,-4.53 -4.18,0 -5.98,2.84 -6.93,7.07 -0.14,0.64 -0.19,0.85 -0.69,0.85 -0.66,0 -0.66,-0.35 -0.66,-1.25 l 0,-6.58 c 0,-0.84 0,-1.19 0.55,-1.19 0.25,0 0.3,0.05 1.25,1 0.09,0.1 0.09,0.19 1,1.14 2.19,-2.09 4.44,-2.14 5.48,-2.14 5.72,0 8.02,3.35 8.02,6.92 0,2.64 -1.5,4.14 -2.09,4.74 -1.64,1.59 -3.6,2 -5.69,2.39 -2.78,0.55 -6.13,1.2 -6.13,4.09 0,1.74 1.3,3.78 5.58,3.78 5.49,0 5.74,-4.48 5.83,-6.03 0.06,-0.45 0.5,-0.45 0.61,-0.45 0.64,0 0.64,0.25 0.64,1.2 l 0,5.03 c 0,0.85 0,1.19 -0.55,1.19 -0.25,0 -0.34,0 -1,-0.59 -0.14,-0.21 -0.64,-0.64 -0.84,-0.8 -1.89,1.39 -3.94,1.39 -4.69,1.39 -6.08,0 -7.97,-3.33 -7.97,-6.12 0,-1.74 0.8,-3.14 2.14,-4.24 1.6,-1.29 3,-1.59 6.58,-2.28 z"
           id="path4298" /><path
           style="fill:#000000;stroke-width:0"
           inkscape:connector-curvature="0"
           d="m 627.89,417.06 0,0.38 0.01,0.36 0.02,0.36 0.02,0.35 0.02,0.34 0.03,0.34 0.04,0.32 0.04,0.32 0.05,0.31 0.05,0.3 0.06,0.29 0.06,0.29 0.13,0.55 0.15,0.51 0.17,0.49 0.18,0.46 0.2,0.43 0.21,0.4 0.22,0.38 0.23,0.35 0.24,0.32 0.25,0.3 0.26,0.28 0.26,0.26 0.27,0.23 0.27,0.21 0.28,0.19 0.28,0.16 0.29,0.15 0.28,0.13 0.28,0.12 0.28,0.09 0.28,0.08 0.28,0.06 0.27,0.05 0.26,0.03 0.26,0.02 0.26,0.01 c 0.43,0 3.57,-0.05 5.32,-1.85 -2.04,-0.15 -2.34,-1.64 -2.34,-2.29 0,-1.3 0.89,-2.3 2.3,-2.3 1.28,0 2.28,0.86 2.28,2.34 0,3.39 -3.78,5.33 -7.63,5.33 -6.22,0 -10.81,-5.37 -10.81,-11.55 0,-6.37 4.94,-11.31 10.72,-11.31 6.67,0 8.26,5.99 8.26,6.47 0,0.5 -0.5,0.5 -0.64,0.5 -0.45,0 -0.54,-0.19 -0.65,-0.5 -1.44,-4.62 -4.67,-5.22 -6.52,-5.22 -2.64,0 -7.03,2.14 -7.03,10.16 z"
           id="path4300" /><path
           style="fill:#000000;stroke-width:0"
           inkscape:connector-curvature="0"
           d="m 667.61,416.86 -0.02,0.59 -0.04,0.59 -0.07,0.58 -0.1,0.57 -0.12,0.56 -0.15,0.55 -0.18,0.54 -0.19,0.53 -0.23,0.51 -0.24,0.5 -0.27,0.49 -0.29,0.47 -0.3,0.46 -0.33,0.44 -0.35,0.43 -0.37,0.4 -0.38,0.39 -0.4,0.37 -0.42,0.35 -0.43,0.32 -0.45,0.31 -0.46,0.28 -0.47,0.26 -0.49,0.24 -0.5,0.21 -0.51,0.18 -0.52,0.16 -0.53,0.13 -0.54,0.11 -0.55,0.07 -0.55,0.05 -0.57,0.01 -0.04,-1.09 c 2.18,0 4.33,-1.1 5.62,-3.24 1.3,-2.14 1.3,-5.03 1.3,-6.92 0,-1.8 0,-4.48 -1.09,-6.67 -1.1,-2.25 -3.29,-3.69 -5.79,-3.69 l 0,0 c -2.14,0 -4.32,1.05 -5.67,3.33 -1.25,2.2 -1.25,5.23 -1.25,7.03 0,1.94 0,4.63 1.19,6.83 1.36,2.28 3.69,3.33 5.69,3.33 l 0.04,1.09 c -6.21,0 -11.06,-5.42 -11.06,-11.65 0,-6.43 5.19,-11.21 11.02,-11.21 6.03,0 11.06,4.88 11.06,11.21 z"
           id="path4302" /><path
           style="fill:#000000;stroke-width:0"
           inkscape:connector-curvature="0"
           d="m 677.66,424.93 0,3.28 -7.17,-0.54 0,-1.55 c 3.54,0 3.89,-0.3 3.89,-2.48 l 0,-23.32 c 0,-2.25 -0.55,-2.25 -3.89,-2.25 l 0,-1.54 c 1.7,0.06 4.28,0.15 5.58,0.15 1.34,0 3.89,-0.09 5.64,-0.15 l 0,1.54 c -3.35,0 -3.89,0 -3.89,2.25 l 0,8.36 0,0.46 0.7,0.65 c -0.7,1.05 -0.7,1.1 -0.7,2.08 l 0,0 0,11.13 c 1.43,2.53 3.89,3.98 6.42,3.98 3.64,0 6.69,-4.39 6.69,-10.02 0,-6.03 -3.5,-10.21 -7.19,-10.21 -1.99,0 -3.88,1 -5.22,3.04 l -0.7,-0.65 c 0.25,-0.8 2.34,-3.49 6.12,-3.49 5.94,0 11.11,4.88 11.11,11.31 0,6.33 -4.83,11.25 -10.4,11.25 -3.9,0 -5.99,-2.18 -6.99,-3.28 z"
           id="path4304" /><path
           style="fill:#000000;stroke-width:0"
           inkscape:connector-curvature="0"
           d="m 703.79,417.71 0.05,1.05 c 0.29,7.42 4.48,8.66 6.18,8.66 5.13,0 5.63,-6.72 5.63,-8.66 l -11.81,0 -0.05,-1.05 13.91,0 c 1.09,0 1.23,0 1.23,1.05 0,4.92 -2.69,9.75 -8.91,9.75 -5.78,0 -10.37,-5.12 -10.37,-11.36 0,-6.67 5.23,-11.5 10.97,-11.5 6.08,0 8.31,5.53 8.31,6.47 0,0.5 -0.39,0.61 -0.64,0.61 -0.45,0 -0.55,-0.3 -0.66,-0.7 -1.73,-5.13 -6.22,-5.13 -6.72,-5.13 -2.5,0 -4.48,1.49 -5.62,3.33 -1.5,2.39 -1.5,5.69 -1.5,7.48 z"
           id="path4306" /></g>    </g>
    <path
       inkscape:connector-curvature="0"
       id="path4351"
       d="M 396.2521,225.36589 C 195.33164,201.63957 155.55408,99.777006 155.55408,99.777006"
       style="fill:none;fill-rule:evenodd;stroke:#000000;stroke-width:1px;stroke-linecap:butt;stroke-linejoin:miter;stroke-opacity:1"
       sodipodi:nodetypes="cc" />
    <ellipse
       ry="3.8588398"
       rx="4.0406103"
       cy="226.03947"
       cx="398.72403"
       id="path4371"
       style="fill:#000000;fill-opacity:1;stroke:#000000;stroke-width:0.99999994;stroke-linecap:round;stroke-miterlimit:4;stroke-dasharray:none;stroke-dashoffset:0;stroke-opacity:1" />
    <ellipse
       style="fill:#28170b;fill-opacity:1;stroke:none;stroke-width:1;stroke-linecap:round;stroke-miterlimit:4;stroke-dasharray:none;stroke-dashoffset:0;stroke-opacity:1"
       id="ellipse5744"
       cx="176.39438"
       cy="90.608681"
       rx="1.1995561"
       ry="1.2540815" />
    <g
       id="g5984">
      <rect
         y="208.79077"
         x="399.64285"
         height="36.785713"
         width="40"
         id="rect5750"
         style="opacity:1;fill:#dddddd;fill-opacity:1;stroke:#000000;stroke-width:1;stroke-linecap:round;stroke-linejoin:round;stroke-miterlimit:4;stroke-dasharray:none;stroke-dashoffset:0;stroke-opacity:1" />
      <g
         ns0:preamble=""
         ns0:text="PC"
         word-spacing="normal"
         letter-spacing="normal"
         font-size-adjust="none"
         font-stretch="normal"
         font-weight="normal"
         font-variant="normal"
         font-style="normal"
         stroke-miterlimit="10.433"
         xml:space="preserve"
         transform="matrix(1.769506,0,0,-1.7695062,12.157089,1482.9561)"
         id="content"
         style="font-style:normal;font-variant:normal;font-weight:normal;font-stretch:normal;letter-spacing:normal;word-spacing:normal;text-anchor:start;fill:none;fill-opacity:1;fill-rule:evenodd;stroke:#000000;stroke-width:0.56512946;stroke-linecap:butt;stroke-linejoin:miter;stroke-miterlimit:10.43299961;stroke-dasharray:none;stroke-dashoffset:0;stroke-opacity:1"><path
           id="path5796"
           d="m 225.69,710.26 -0.03,0.26 0,2.69 c 0,0.32 0.02,0.39 0.49,0.39 l 0.88,0 c 1.59,0 1.59,-1.05 1.59,-1.54 0,-0.47 0,-1.54 -1.59,-1.54 l -1.37,0 0.03,-0.26 1.68,0 c 1.2,0 2.27,0.81 2.27,1.8 0,0.98 -0.99,1.85 -2.35,1.85 l -3.51,0 0,-0.31 0.24,0 c 0.77,0 0.78,-0.11 0.78,-0.46 l 0,-5.24 c 0,-0.36 -0.01,-0.47 -0.78,-0.47 l -0.24,0 0,-0.31 c 0.35,0.04 1.09,0.04 1.46,0.04 0.38,0 1.13,0 1.47,-0.04 l 0,0.31 -0.23,0 c -0.77,0 -0.79,0.11 -0.79,0.47 z"
           inkscape:connector-curvature="0"
           style="fill:#000000;stroke-width:0" /><path
           id="path5798"
           d="m 230.77,710.52 0,-0.19 0.02,-0.19 0.02,-0.18 0.03,-0.18 0.04,-0.18 0.05,-0.18 0.06,-0.16 0.06,-0.17 0.07,-0.16 0.08,-0.16 0.09,-0.15 0.09,-0.15 0.1,-0.14 0.1,-0.13 0.11,-0.13 0.12,-0.13 0.12,-0.12 0.13,-0.11 0.13,-0.1 0.13,-0.1 0.14,-0.09 0.15,-0.09 0.15,-0.08 0.15,-0.07 0.16,-0.06 0.16,-0.06 0.16,-0.04 0.16,-0.04 0.17,-0.03 0.17,-0.03 0.17,-0.01 0.17,0 c 1.62,0 2.6,1.38 2.6,2.53 0,0.1 0,0.17 -0.13,0.17 -0.11,0 -0.11,-0.06 -0.12,-0.16 -0.08,-1.42 -1.14,-2.24 -2.23,-2.24 -0.61,0 -2.56,0.34 -2.56,3.3 0,2.97 1.95,3.31 2.55,3.31 1.09,0 1.97,-0.9 2.17,-2.35 0.02,-0.14 0.02,-0.17 0.16,-0.17 0.16,0 0.16,0.03 0.16,0.24 l 0,2.35 c 0,0.17 0,0.24 -0.11,0.24 -0.04,0 -0.08,0 -0.16,-0.12 l -0.5,-0.74 c -0.36,0.36 -0.87,0.86 -1.83,0.86 -1.86,0 -3.46,-1.58 -3.46,-3.61 z"
           inkscape:connector-curvature="0"
           style="fill:#000000;stroke-width:0" /></g>    </g>
    <g
       ns0:preamble=""
       ns0:text="BeagleBone Black"
       word-spacing="normal"
       letter-spacing="normal"
       font-size-adjust="none"
       font-stretch="normal"
       font-weight="normal"
       font-variant="normal"
       font-style="normal"
       stroke-miterlimit="10.433"
       xml:space="preserve"
       transform="matrix(0.3908664,0,0,-0.39086592,75.189984,383.94266)"
       id="g5892"
       style="font-style:normal;font-variant:normal;font-weight:normal;font-stretch:normal;letter-spacing:normal;word-spacing:normal;text-anchor:start;fill:none;fill-opacity:1;fill-rule:evenodd;stroke:#000000;stroke-width:2.55842042;stroke-linecap:butt;stroke-linejoin:miter;stroke-miterlimit:10.43299961;stroke-dasharray:none;stroke-dashoffset:0;stroke-opacity:1"><path
         id="path5894"
         d="m 227.99,710.67 0.09,0.02 0.09,0.02 0.08,0.03 0.09,0.02 0.08,0.03 0.08,0.03 0.08,0.04 0.07,0.03 0.08,0.04 0.07,0.04 0.07,0.04 0.07,0.04 0.06,0.05 0.06,0.05 0.06,0.05 0.06,0.05 0.05,0.05 0.05,0.05 0.05,0.06 0.04,0.05 0.04,0.06 0.04,0.06 0.04,0.06 0.03,0.06 0.03,0.07 0.02,0.06 0.02,0.07 0.02,0.06 0.01,0.07 0.01,0.06 0.01,0.07 0,0.07 c 0,0.86 -0.91,1.68 -2.21,1.68 l -0.07,-0.31 c 0.97,0 1.32,-0.84 1.32,-1.37 0,-0.64 -0.49,-1.47 -1.6,-1.47 l -1.44,0 0,-0.22 1.87,0 c 0.99,0 1.4,-0.92 1.4,-1.59 0,-0.7 -0.51,-1.52 -1.54,-1.52 l 0,0 -1.24,0 c -0.47,0 -0.49,0.07 -0.49,0.4 l 0,2.71 0,0.22 0,2.45 c 0,0.32 0.02,0.39 0.49,0.39 l 1.23,0 0.07,0.31 -3.64,0 0,-0.31 0.24,0 c 0.76,0 0.79,-0.11 0.79,-0.46 l 0,-5.24 c 0,-0.36 -0.03,-0.47 -0.79,-0.47 l -0.24,0 0,-0.31 3.9,0 c 1.32,0 2.22,0.89 2.22,1.82 0,0.87 -0.82,1.61 -1.92,1.73 z"
         inkscape:connector-curvature="0"
         style="fill:#000000;stroke-width:0" /><path
         id="path5896"
         d="m 231.59,709.42 0.01,0.21 c 0.06,1.48 0.9,1.73 1.24,1.73 1.02,0 1.12,-1.34 1.12,-1.73 l -2.36,0 -0.01,-0.21 2.78,0 c 0.22,0 0.25,0 0.25,0.21 0,0.98 -0.54,1.95 -1.78,1.95 -1.16,0 -2.07,-1.03 -2.07,-2.27 0,-1.33 1.04,-2.29 2.19,-2.29 1.21,0 1.66,1.1 1.66,1.29 0,0.1 -0.08,0.12 -0.13,0.12 -0.09,0 -0.11,-0.06 -0.13,-0.14 -0.35,-1.03 -1.24,-1.03 -1.34,-1.03 -0.5,0 -0.9,0.3 -1.13,0.67 -0.3,0.48 -0.3,1.13 -0.3,1.49 z"
         inkscape:connector-curvature="0"
         style="fill:#000000;stroke-width:0" /><path
         id="path5898"
         d="m 238.23,707.88 0,-0.04 0.01,-0.03 0.01,-0.04 0,-0.04 0.01,-0.04 0.02,-0.03 0.01,-0.04 0.01,-0.03 0.02,-0.04 0.01,-0.03 0.02,-0.04 0.02,-0.03 0.02,-0.03 0.02,-0.04 0.02,-0.03 0.03,-0.03 0.02,-0.02 0.03,-0.03 0.03,-0.03 0.02,-0.02 0.03,-0.02 0.04,-0.03 0.03,-0.02 0.03,-0.01 0.04,-0.02 0.03,-0.01 0.04,-0.02 0.04,-0.01 0.04,0 0.04,-0.01 0.04,0 0.05,0 c 0.2,0 0.81,0.13 0.81,0.94 l 0,0.56 -0.25,0 0,-0.56 c 0,-0.58 -0.25,-0.64 -0.36,-0.64 -0.32,0 -0.36,0.45 -0.36,0.5 l 0,1.99 c 0,0.41 0,0.8 -0.36,1.17 -0.39,0.39 -0.89,0.55 -1.37,0.55 -0.81,0 -1.5,-0.47 -1.5,-1.13 0,-0.29 0.2,-0.46 0.46,-0.46 0.28,0 0.46,0.19 0.46,0.45 0,0.12 -0.05,0.45 -0.51,0.46 0.27,0.35 0.76,0.46 1.07,0.46 0.49,0 1.06,-0.39 1.06,-1.27 l 0,-0.37 0,-0.21 0,-0.99 c 0,-0.95 -0.72,-1.29 -1.17,-1.29 -0.48,0 -0.89,0.35 -0.89,0.85 0,0.54 0.42,1.37 2.06,1.43 l 0,0 0,0.21 c -0.51,-0.03 -1.2,-0.06 -1.83,-0.36 -0.75,-0.34 -1,-0.85 -1,-1.29 0,-0.81 0.97,-1.05 1.6,-1.05 0.65,0 1.11,0.39 1.3,0.86 z"
         inkscape:connector-curvature="0"
         style="fill:#000000;stroke-width:0" /><path
         id="path5900"
         d="m 240.95,708.45 0,0 0,0.01 0,0 0,0.01 0,0.01 0,0.01 0,0.01 0,0.01 0.01,0.01 0,0.01 0,0.02 0,0.01 0,0.01 0.01,0.02 0,0.01 0,0.02 0.01,0.02 0,0.01 0.01,0.02 0,0.02 0.01,0.02 0.01,0.01 0,0.02 0.01,0.02 0.01,0.02 0.01,0.02 0.01,0.02 0.02,0.02 0.01,0.02 0.01,0.02 0.02,0.01 0.01,0.02 c 0.39,-0.27 0.8,-0.31 0.99,-0.31 l 0,0.23 c -0.87,0 -0.87,1 -0.87,1.22 0,0.27 0.01,0.59 0.16,0.84 0.08,0.12 0.31,0.4 0.71,0.4 0.86,0 0.86,-1 0.86,-1.22 0,-0.27 -0.01,-0.59 -0.16,-0.84 -0.08,-0.12 -0.31,-0.4 -0.7,-0.4 l 0,0 0,-0.23 c 0.92,0 1.61,0.69 1.61,1.45 0,0.37 -0.16,0.74 -0.41,0.97 0.36,0.34 0.72,0.39 0.9,0.39 0.02,0 0.06,0 0.09,-0.01 -0.1,-0.04 -0.15,-0.15 -0.15,-0.27 0,-0.17 0.12,-0.29 0.28,-0.29 0.1,0 0.29,0.07 0.29,0.3 0,0.17 -0.12,0.48 -0.51,0.48 -0.19,0 -0.63,-0.05 -1.05,-0.46 -0.42,0.33 -0.84,0.36 -1.05,0.36 -0.93,0 -1.62,-0.69 -1.62,-1.45 0,-0.44 0.22,-0.82 0.47,-1.03 -0.13,-0.15 -0.31,-0.47 -0.31,-0.82 0,-0.31 0.13,-0.69 0.44,-0.89 -0.6,-0.17 -0.91,-0.59 -0.91,-0.99 0,-0.72 0.98,-1.26 2.2,-1.26 l 0,0.23 c -1,0 -1.69,0.5 -1.69,1.03 0,0.46 0.38,0.82 0.82,0.85 l 0.59,0 c 0.85,0 1.97,0 1.97,-0.85 0,-0.54 -0.71,-1.03 -1.69,-1.03 l 0,0 0,-0.23 c 1.17,0 2.2,0.51 2.2,1.28 0,0.35 -0.14,0.85 -0.64,1.13 -0.53,0.28 -1.11,0.28 -1.71,0.28 -0.25,0 -0.68,0 -0.75,0.01 -0.32,0.04 -0.53,0.35 -0.53,0.67 z"
         inkscape:connector-curvature="0"
         style="fill:#000000;stroke-width:0" /><path
         id="path5902"
         d="m 246.64,714.02 -1.43,-0.11 0,-0.31 c 0.69,0 0.77,-0.07 0.77,-0.55 l 0,-5.17 c 0,-0.45 -0.11,-0.45 -0.77,-0.45 l 0,-0.31 c 0.33,0.02 0.85,0.04 1.1,0.04 0.25,0 0.74,-0.02 1.1,-0.04 l 0,0.31 c -0.66,0 -0.77,0 -0.77,0.45 z"
         inkscape:connector-curvature="0"
         style="fill:#000000;stroke-width:0" /><path
         id="path5904"
         d="m 248.75,709.42 0.01,0.21 c 0.06,1.48 0.9,1.73 1.23,1.73 1.03,0 1.13,-1.34 1.13,-1.73 l -2.36,0 -0.01,-0.21 2.78,0 c 0.21,0 0.24,0 0.24,0.21 0,0.98 -0.53,1.95 -1.78,1.95 -1.15,0 -2.06,-1.03 -2.06,-2.27 0,-1.33 1.04,-2.29 2.18,-2.29 1.22,0 1.66,1.1 1.66,1.29 0,0.1 -0.07,0.12 -0.12,0.12 -0.09,0 -0.11,-0.06 -0.13,-0.14 -0.35,-1.03 -1.25,-1.03 -1.35,-1.03 -0.49,0 -0.89,0.3 -1.12,0.67 -0.3,0.48 -0.3,1.13 -0.3,1.49 z"
         inkscape:connector-curvature="0"
         style="fill:#000000;stroke-width:0" /><path
         id="path5906"
         d="m 256.63,710.67 0.09,0.02 0.09,0.02 0.08,0.03 0.09,0.02 0.08,0.03 0.08,0.03 0.08,0.04 0.08,0.03 0.07,0.04 0.07,0.04 0.07,0.04 0.07,0.04 0.06,0.05 0.06,0.05 0.06,0.05 0.06,0.05 0.05,0.05 0.05,0.05 0.05,0.06 0.04,0.05 0.05,0.06 0.03,0.06 0.04,0.06 0.03,0.06 0.03,0.07 0.02,0.06 0.02,0.07 0.02,0.06 0.01,0.07 0.01,0.06 0.01,0.07 0,0.07 c 0,0.86 -0.91,1.68 -2.21,1.68 L 256,713.6 c 0.97,0 1.32,-0.84 1.32,-1.37 0,-0.64 -0.49,-1.47 -1.59,-1.47 l -1.45,0 0,-0.22 1.87,0 c 0.99,0 1.4,-0.92 1.4,-1.59 0,-0.7 -0.51,-1.52 -1.54,-1.52 l 0,0 -1.24,0 c -0.47,0 -0.49,0.07 -0.49,0.4 l 0,2.71 0,0.22 0,2.45 c 0,0.32 0.02,0.39 0.49,0.39 l 1.23,0 0.07,0.31 -3.64,0 0,-0.31 0.24,0 c 0.77,0 0.79,-0.11 0.79,-0.46 l 0,-5.24 c 0,-0.36 -0.02,-0.47 -0.79,-0.47 l -0.24,0 0,-0.31 3.9,0 c 1.32,0 2.22,0.89 2.22,1.82 0,0.87 -0.82,1.61 -1.92,1.73 z"
         inkscape:connector-curvature="0"
         style="fill:#000000;stroke-width:0" /><path
         id="path5908"
         d="m 263.82,709.25 -0.01,0.12 -0.01,0.12 -0.01,0.11 -0.02,0.12 -0.02,0.11 -0.03,0.11 -0.04,0.11 -0.04,0.1 -0.04,0.1 -0.05,0.1 -0.05,0.1 -0.06,0.09 -0.06,0.1 -0.07,0.08 -0.07,0.09 -0.07,0.08 -0.08,0.08 -0.08,0.07 -0.08,0.07 -0.09,0.06 -0.09,0.07 -0.09,0.05 -0.09,0.05 -0.1,0.05 -0.1,0.04 -0.1,0.04 -0.11,0.03 -0.1,0.03 -0.11,0.02 -0.11,0.01 -0.11,0.01 -0.11,0.01 -0.01,-0.22 c 0.44,0 0.86,-0.22 1.12,-0.65 0.26,-0.43 0.26,-1 0.26,-1.38 0,-0.36 0,-0.89 -0.22,-1.33 -0.22,-0.45 -0.66,-0.74 -1.15,-0.74 l 0,0 c -0.43,0 -0.87,0.21 -1.14,0.67 -0.25,0.44 -0.25,1.04 -0.25,1.4 0,0.39 0,0.92 0.24,1.36 0.27,0.46 0.74,0.67 1.14,0.67 l 0.01,0.22 c -1.25,0 -2.21,-1.09 -2.21,-2.33 0,-1.28 1.03,-2.23 2.2,-2.23 1.2,0 2.21,0.97 2.21,2.23 z"
         inkscape:connector-curvature="0"
         style="fill:#000000;stroke-width:0" /><path
         id="path5910"
         d="m 265.21,710.54 0,-2.66 c 0,-0.45 -0.11,-0.45 -0.78,-0.45 l 0,-0.31 c 0.35,0.02 0.86,0.04 1.12,0.04 0.26,0 0.78,-0.02 1.12,-0.04 l 0,0.31 c -0.67,0 -0.78,0 -0.78,0.45 l 0,1.83 c 0,1.03 0.71,1.59 1.34,1.59 0.63,0 0.74,-0.54 0.74,-1.1 l 0,-2.32 c 0,-0.45 -0.11,-0.45 -0.77,-0.45 l 0,-0.31 c 0.34,0.02 0.85,0.04 1.12,0.04 0.26,0 0.78,-0.02 1.11,-0.04 l 0,0.31 c -0.51,0 -0.76,0 -0.77,0.3 l 0,1.9 c 0,0.85 0,1.16 -0.31,1.52 -0.14,0.17 -0.47,0.37 -1.05,0.37 -0.72,0 -1.19,-0.43 -1.47,-1.05 l 0,1.05 -1.4,-0.11 0,-0.31 c 0.7,0 0.78,-0.07 0.78,-0.56 z"
         inkscape:connector-curvature="0"
         style="fill:#000000;stroke-width:0" /><path
         id="path5912"
         d="m 270.75,709.42 0.01,0.21 c 0.06,1.48 0.9,1.73 1.23,1.73 1.03,0 1.13,-1.34 1.13,-1.73 l -2.36,0 -0.01,-0.21 2.78,0 c 0.22,0 0.24,0 0.24,0.21 0,0.98 -0.53,1.95 -1.78,1.95 -1.15,0 -2.07,-1.03 -2.07,-2.27 0,-1.33 1.05,-2.29 2.19,-2.29 1.22,0 1.66,1.1 1.66,1.29 0,0.1 -0.07,0.12 -0.12,0.12 -0.09,0 -0.11,-0.06 -0.13,-0.14 -0.35,-1.03 -1.25,-1.03 -1.35,-1.03 -0.49,0 -0.89,0.3 -1.12,0.67 -0.3,0.48 -0.3,1.13 -0.3,1.49 z"
         inkscape:connector-curvature="0"
         style="fill:#000000;stroke-width:0" /><path
         id="path5914"
         d="m 281.96,710.67 0.09,0.02 0.09,0.02 0.08,0.03 0.09,0.02 0.08,0.03 0.08,0.03 0.08,0.04 0.07,0.03 0.08,0.04 0.07,0.04 0.07,0.04 0.06,0.04 0.07,0.05 0.06,0.05 0.06,0.05 0.06,0.05 0.05,0.05 0.05,0.05 0.05,0.06 0.04,0.05 0.04,0.06 0.04,0.06 0.04,0.06 0.03,0.06 0.03,0.07 0.02,0.06 0.02,0.07 0.02,0.06 0.01,0.07 0.01,0.06 0.01,0.07 0,0.07 c 0,0.86 -0.92,1.68 -2.21,1.68 l -0.07,-0.31 c 0.97,0 1.31,-0.84 1.31,-1.37 0,-0.64 -0.48,-1.47 -1.59,-1.47 l -1.44,0 0,-0.22 1.87,0 c 0.98,0 1.4,-0.92 1.4,-1.59 0,-0.7 -0.51,-1.52 -1.54,-1.52 l 0,0 -1.24,0 c -0.47,0 -0.49,0.07 -0.49,0.4 l 0,2.71 0,0.22 0,2.45 c 0,0.32 0.02,0.39 0.49,0.39 l 1.23,0 0.07,0.31 -3.64,0 0,-0.31 0.24,0 c 0.76,0 0.78,-0.11 0.78,-0.46 l 0,-5.24 c 0,-0.36 -0.02,-0.47 -0.78,-0.47 l -0.24,0 0,-0.31 3.9,0 c 1.32,0 2.22,0.89 2.22,1.82 0,0.87 -0.82,1.61 -1.92,1.73 z"
         inkscape:connector-curvature="0"
         style="fill:#000000;stroke-width:0" /><path
         id="path5916"
         d="m 286.22,714.02 -1.43,-0.11 0,-0.31 c 0.69,0 0.77,-0.07 0.77,-0.55 l 0,-5.17 c 0,-0.45 -0.11,-0.45 -0.77,-0.45 l 0,-0.31 c 0.32,0.02 0.85,0.04 1.1,0.04 0.25,0 0.74,-0.02 1.1,-0.04 l 0,0.31 c -0.66,0 -0.77,0 -0.77,0.45 z"
         inkscape:connector-curvature="0"
         style="fill:#000000;stroke-width:0" /><path
         id="path5918"
         d="m 290.54,707.88 0,-0.04 0.01,-0.03 0.01,-0.04 0,-0.04 0.01,-0.04 0.01,-0.03 0.02,-0.04 0.01,-0.03 0.02,-0.04 0.01,-0.03 0.02,-0.04 0.02,-0.03 0.02,-0.03 0.02,-0.04 0.02,-0.03 0.03,-0.03 0.02,-0.02 0.03,-0.03 0.03,-0.03 0.02,-0.02 0.03,-0.02 0.04,-0.03 0.03,-0.02 0.03,-0.01 0.04,-0.02 0.03,-0.01 0.04,-0.02 0.04,-0.01 0.04,0 0.04,-0.01 0.04,0 0.05,0 c 0.2,0 0.81,0.13 0.81,0.94 l 0,0.56 -0.25,0 0,-0.56 c 0,-0.58 -0.25,-0.64 -0.36,-0.64 -0.32,0 -0.37,0.45 -0.37,0.5 l 0,1.99 c 0,0.41 0,0.8 -0.35,1.17 -0.39,0.39 -0.89,0.55 -1.37,0.55 -0.81,0 -1.5,-0.47 -1.5,-1.13 0,-0.29 0.2,-0.46 0.46,-0.46 0.28,0 0.46,0.19 0.46,0.45 0,0.12 -0.05,0.45 -0.51,0.46 0.27,0.35 0.76,0.46 1.07,0.46 0.49,0 1.06,-0.39 1.06,-1.27 l 0,-0.37 0,-0.21 0,-0.99 c 0,-0.95 -0.72,-1.29 -1.17,-1.29 -0.48,0 -0.89,0.35 -0.89,0.85 0,0.54 0.42,1.37 2.06,1.43 l 0,0 0,0.21 c -0.51,-0.03 -1.2,-0.06 -1.83,-0.36 -0.75,-0.34 -1,-0.85 -1,-1.29 0,-0.81 0.97,-1.05 1.59,-1.05 0.66,0 1.12,0.39 1.31,0.86 z"
         inkscape:connector-curvature="0"
         style="fill:#000000;stroke-width:0" /><path
         id="path5920"
         d="m 293.37,709.29 0,0.08 0,0.07 0.01,0.07 0,0.07 0.01,0.07 0,0.07 0.01,0.06 0.01,0.06 0.01,0.06 0.01,0.06 0.01,0.06 0.01,0.06 0.03,0.11 0.03,0.1 0.03,0.1 0.04,0.09 0.04,0.09 0.04,0.08 0.04,0.07 0.05,0.07 0.05,0.07 0.04,0.06 0.06,0.05 0.05,0.05 0.05,0.05 0.06,0.04 0.05,0.04 0.06,0.03 0.06,0.03 0.05,0.03 0.06,0.02 0.05,0.02 0.06,0.01 0.05,0.02 0.06,0.01 0.05,0 0.05,0.01 0.05,0 c 0.09,0 0.72,-0.01 1.07,-0.37 -0.41,-0.03 -0.47,-0.33 -0.47,-0.46 0,-0.26 0.18,-0.45 0.46,-0.45 0.26,0 0.46,0.16 0.46,0.46 0,0.68 -0.76,1.07 -1.53,1.07 -1.24,0 -2.15,-1.08 -2.15,-2.31 0,-1.27 0.98,-2.25 2.13,-2.25 1.34,0 1.66,1.19 1.66,1.29 0,0.1 -0.1,0.1 -0.13,0.1 -0.09,0 -0.11,-0.04 -0.13,-0.1 -0.29,-0.93 -0.94,-1.05 -1.31,-1.05 -0.52,0 -1.4,0.43 -1.4,2.03 z"
         inkscape:connector-curvature="0"
         style="fill:#000000;stroke-width:0" /><path
         id="path5922"
         d="m 297.41,707.88 0,-0.02 0,-0.02 0,-0.04 0,-0.03 -0.01,-0.04 0,-0.03 0,-0.03 -0.01,-0.02 -0.01,-0.03 -0.01,-0.02 -0.01,-0.02 -0.01,-0.02 -0.01,-0.02 -0.01,-0.01 -0.02,-0.02 -0.02,-0.01 -0.02,-0.01 -0.02,-0.01 -0.02,-0.01 -0.03,-0.01 -0.03,0 -0.03,-0.01 -0.03,0 -0.04,-0.01 -0.03,0 -0.02,0 -0.02,0 -0.03,0 -0.02,0 -0.02,0 -0.02,-0.01 -0.03,0 -0.02,0 -0.03,0 -0.02,0 -0.03,0 -0.03,0 -0.03,0 -0.03,0 -0.03,0 -0.03,0 0,-0.31 c 0.33,0.02 0.8,0.04 1.09,0.04 0.3,0 0.7,-0.01 1.09,-0.04 l 0,0.31 c -0.66,0 -0.77,0 -0.77,0.45 l 0,1.02 0.63,0.55 c 0.77,-1.05 1.19,-1.61 1.19,-1.79 0,-0.19 -0.17,-0.23 -0.36,-0.23 l 0,-0.31 c 0.28,0.02 0.86,0.04 1.07,0.04 0.29,0 0.58,-0.01 0.87,-0.04 l 0,0.31 c -0.37,0 -0.59,0 -0.97,0.53 l -1.26,1.78 c -0.01,0.02 -0.06,0.08 -0.06,0.11 0,0.04 0.71,0.63 0.81,0.71 0.62,0.51 1.04,0.53 1.25,0.54 l 0,0.31 c -0.29,-0.03 -0.42,-0.03 -0.7,-0.03 -0.35,0 -0.97,0.02 -1.11,0.03 l 0,-0.31 c 0.19,-0.01 0.29,-0.12 0.29,-0.25 0,-0.2 -0.14,-0.32 -0.22,-0.39 l -1.4,-1.21 0,4.77 -1.44,-0.11 0,-0.31 c 0.7,0 0.78,-0.07 0.78,-0.55 z"
         inkscape:connector-curvature="0"
         style="fill:#000000;stroke-width:0" /></g>  </g>
</svg>
