<?xml version="1.0" encoding="UTF-8" standalone="no"?>
<!-- Created with Inkscape (http://www.inkscape.org/) -->

<svg
   xmlns:ns0="http://www.iki.fi/pav/software/textext/"
   xmlns:dc="http://purl.org/dc/elements/1.1/"
   xmlns:cc="http://creativecommons.org/ns#"
   xmlns:rdf="http://www.w3.org/1999/02/22-rdf-syntax-ns#"
   xmlns:svg="http://www.w3.org/2000/svg"
   xmlns="http://www.w3.org/2000/svg"
   xmlns:sodipodi="http://sodipodi.sourceforge.net/DTD/sodipodi-0.dtd"
   xmlns:inkscape="http://www.inkscape.org/namespaces/inkscape"
   width="96.842339mm"
   height="45.107414mm"
   viewBox="0 0 343.14214 159.82942"
   id="svg4863"
   version="1.1"
   inkscape:version="0.91 r13725"
   sodipodi:docname="wheelParameterTestSetup.svg">
  <defs
     id="defs4865" />
  <sodipodi:namedview
     id="base"
     pagecolor="#ffffff"
     bordercolor="#666666"
     borderopacity="1.0"
     inkscape:pageopacity="0.0"
     inkscape:pageshadow="2"
     inkscape:zoom="3.959798"
     inkscape:cx="164.04696"
     inkscape:cy="125.04631"
     inkscape:document-units="px"
     inkscape:current-layer="layer1"
     showgrid="false"
     inkscape:window-width="1920"
     inkscape:window-height="1016"
     inkscape:window-x="1280"
     inkscape:window-y="27"
     inkscape:window-maximized="1"
     fit-margin-top="0"
     fit-margin-left="0"
     fit-margin-right="0"
     fit-margin-bottom="0" />
  <metadata
     id="metadata4868">
    <rdf:RDF>
      <cc:Work
         rdf:about="">
        <dc:format>image/svg+xml</dc:format>
        <dc:type
           rdf:resource="http://purl.org/dc/dcmitype/StillImage" />
        <dc:title />
      </cc:Work>
    </rdf:RDF>
  </metadata>
  <g
     inkscape:label="Layer 1"
     inkscape:groupmode="layer"
     id="layer1"
     transform="translate(-172.71468,-105.09465)">
    <rect
       y="222.84045"
       x="173.21468"
       height="5.0507607"
       width="148.99751"
       id="rect4184"
       style="fill:#1a1a1a;fill-opacity:1;stroke:#000000;stroke-width:1;stroke-linecap:round;stroke-miterlimit:4;stroke-dasharray:none;stroke-dashoffset:0;stroke-opacity:1" />
    <text
       sodipodi:linespacing="125%"
       id="text4188"
       y="287.51047"
       x="440.86444"
       style="font-style:normal;font-weight:normal;font-size:40px;line-height:125%;font-family:sans-serif;letter-spacing:0px;word-spacing:0px;fill:#000000;fill-opacity:1;stroke:none;stroke-width:1px;stroke-linecap:butt;stroke-linejoin:miter;stroke-opacity:1"
       xml:space="preserve"><tspan
         y="287.51047"
         x="440.86444"
         id="tspan4190"
         sodipodi:role="line" /></text>
    <path
       inkscape:connector-curvature="0"
       id="path4351"
       d="M 472.64444,122.33937 C 340.98884,233.21534 301.91839,270.0877 245.33087,222.67654"
       style="fill:none;fill-rule:evenodd;stroke:#000000;stroke-width:1px;stroke-linecap:butt;stroke-linejoin:miter;stroke-opacity:1"
       sodipodi:nodetypes="cc" />
    <ellipse
       ry="3.8588398"
       rx="4.0406103"
       cy="123.55765"
       cx="473.7236"
       id="path4371"
       style="fill:#000000;fill-opacity:1;stroke:#000000;stroke-width:0.99999994;stroke-linecap:round;stroke-miterlimit:4;stroke-dasharray:none;stroke-dashoffset:0;stroke-opacity:1" />
    <g
       transform="translate(75.713957,-103.19612)"
       id="g5984">
      <rect
         y="208.79077"
         x="399.64285"
         height="36.785713"
         width="40"
         id="rect5750"
         style="opacity:1;fill:#dddddd;fill-opacity:1;stroke:#000000;stroke-width:1;stroke-linecap:round;stroke-linejoin:round;stroke-miterlimit:4;stroke-dasharray:none;stroke-dashoffset:0;stroke-opacity:1" />
      <g
         ns0:preamble=""
         ns0:text="PC"
         word-spacing="normal"
         letter-spacing="normal"
         font-size-adjust="none"
         font-stretch="normal"
         font-weight="normal"
         font-variant="normal"
         font-style="normal"
         stroke-miterlimit="10.433"
         xml:space="preserve"
         transform="matrix(1.769506,0,0,-1.7695062,12.157089,1482.9561)"
         id="content"
         style="font-style:normal;font-variant:normal;font-weight:normal;font-stretch:normal;letter-spacing:normal;word-spacing:normal;text-anchor:start;fill:none;fill-opacity:1;fill-rule:evenodd;stroke:#000000;stroke-width:0.56512946;stroke-linecap:butt;stroke-linejoin:miter;stroke-miterlimit:10.43299961;stroke-dasharray:none;stroke-dashoffset:0;stroke-opacity:1"><path
           id="path5796"
           d="m 225.69,710.26 -0.03,0.26 0,2.69 c 0,0.32 0.02,0.39 0.49,0.39 l 0.88,0 c 1.59,0 1.59,-1.05 1.59,-1.54 0,-0.47 0,-1.54 -1.59,-1.54 l -1.37,0 0.03,-0.26 1.68,0 c 1.2,0 2.27,0.81 2.27,1.8 0,0.98 -0.99,1.85 -2.35,1.85 l -3.51,0 0,-0.31 0.24,0 c 0.77,0 0.78,-0.11 0.78,-0.46 l 0,-5.24 c 0,-0.36 -0.01,-0.47 -0.78,-0.47 l -0.24,0 0,-0.31 c 0.35,0.04 1.09,0.04 1.46,0.04 0.38,0 1.13,0 1.47,-0.04 l 0,0.31 -0.23,0 c -0.77,0 -0.79,0.11 -0.79,0.47 z"
           inkscape:connector-curvature="0"
           style="fill:#000000;stroke-width:0" /><path
           id="path5798"
           d="m 230.77,710.52 0,-0.19 0.02,-0.19 0.02,-0.18 0.03,-0.18 0.04,-0.18 0.05,-0.18 0.06,-0.16 0.06,-0.17 0.07,-0.16 0.08,-0.16 0.09,-0.15 0.09,-0.15 0.1,-0.14 0.1,-0.13 0.11,-0.13 0.12,-0.13 0.12,-0.12 0.13,-0.11 0.13,-0.1 0.13,-0.1 0.14,-0.09 0.15,-0.09 0.15,-0.08 0.15,-0.07 0.16,-0.06 0.16,-0.06 0.16,-0.04 0.16,-0.04 0.17,-0.03 0.17,-0.03 0.17,-0.01 0.17,0 c 1.62,0 2.6,1.38 2.6,2.53 0,0.1 0,0.17 -0.13,0.17 -0.11,0 -0.11,-0.06 -0.12,-0.16 -0.08,-1.42 -1.14,-2.24 -2.23,-2.24 -0.61,0 -2.56,0.34 -2.56,3.3 0,2.97 1.95,3.31 2.55,3.31 1.09,0 1.97,-0.9 2.17,-2.35 0.02,-0.14 0.02,-0.17 0.16,-0.17 0.16,0 0.16,0.03 0.16,0.24 l 0,2.35 c 0,0.17 0,0.24 -0.11,0.24 -0.04,0 -0.08,0 -0.16,-0.12 l -0.5,-0.74 c -0.36,0.36 -0.87,0.86 -1.83,0.86 -1.86,0 -3.46,-1.58 -3.46,-3.61 z"
           inkscape:connector-curvature="0"
           style="fill:#000000;stroke-width:0" /></g>    </g>
    <rect
       transform="matrix(-8.1129189e-4,0.99999967,-0.99999967,-8.1134846e-4,0,0)"
       y="-314.79584"
       x="152.50563"
       height="69.285706"
       width="69.285706"
       id="rect4156"
       style="fill:none;fill-opacity:1;stroke:#000000;stroke-width:1;stroke-linecap:round;stroke-miterlimit:4;stroke-dasharray:none;stroke-dashoffset:0;stroke-opacity:1" />
    <circle
       style="fill:none;fill-opacity:1;stroke:#000000;stroke-width:1;stroke-linecap:round;stroke-miterlimit:4;stroke-dasharray:none;stroke-dashoffset:0;stroke-opacity:1"
       id="circle4158"
       cx="330.28412"
       cy="-32.621113"
       r="7.5903745"
       transform="matrix(0.70653286,0.70768024,-0.70768024,0.70653286,0,0)" />
    <circle
       r="21.785715"
       cy="-67.763992"
       cx="330.43207"
       id="path4180"
       style="fill:#000000;fill-opacity:0;stroke:#000000;stroke-width:1;stroke-linecap:round;stroke-miterlimit:4;stroke-dasharray:none;stroke-dashoffset:0;stroke-opacity:1"
       transform="matrix(0.70653286,0.70768024,-0.70768024,0.70653286,0,0)" />
    <circle
       style="fill:#000000;fill-opacity:0;stroke:#000000;stroke-width:1;stroke-linecap:round;stroke-miterlimit:4;stroke-dasharray:none;stroke-dashoffset:0;stroke-opacity:1"
       id="circle4182"
       cx="330.43207"
       cy="-67.763992"
       r="2.8571436"
       transform="matrix(0.70653286,0.70768024,-0.70768024,0.70653286,0,0)" />
    <path
       inkscape:connector-curvature="0"
       id="path4351-1"
       d="M 379.49324,256.34281 C 203.57468,271.4951 183.52815,223.00778 183.52815,223.00778"
       style="fill:none;fill-rule:evenodd;stroke:#000000;stroke-width:1px;stroke-linecap:butt;stroke-linejoin:miter;stroke-opacity:1" />
    <path
       inkscape:connector-curvature="0"
       id="path4361"
       d="m 505.21125,191.65756 c 0,0 -17.67749,61.99582 -80.94427,64.64522"
       style="fill:none;fill-rule:evenodd;stroke:#000000;stroke-width:0.99999994px;stroke-linecap:butt;stroke-linejoin:miter;stroke-opacity:1" />
    <rect
       y="241.37878"
       x="377.46609"
       height="23.045286"
       width="54.548237"
       id="rect4186"
       style="fill:#cccccc;fill-opacity:1;stroke:#000000;stroke-width:1;stroke-linecap:round;stroke-miterlimit:4;stroke-dasharray:none;stroke-dashoffset:0;stroke-opacity:1" />
    <g
       transform="matrix(0.2598012,0,0,0.25980106,312.79033,169.15684)"
       id="g4215">
      <g
         style="font-style:normal;font-variant:normal;font-weight:normal;font-stretch:normal;letter-spacing:normal;word-spacing:normal;text-anchor:start;fill:none;fill-opacity:1;fill-rule:evenodd;stroke:#000000;stroke-width:3.84909773;stroke-linecap:butt;stroke-linejoin:miter;stroke-miterlimit:10.43299961;stroke-dasharray:none;stroke-dashoffset:0;stroke-opacity:1"
         word-spacing="normal"
         letter-spacing="normal"
         font-size-adjust="none"
         font-stretch="normal"
         font-weight="normal"
         font-variant="normal"
         font-style="normal"
         stroke-miterlimit="10.433"
         xml:space="preserve"
         transform="matrix(1.0629921,0,0,-1.0629921,-186.02362,789.27165)"
         id="content-4"><path
           style="fill:#000000;stroke-width:0"
           inkscape:connector-curvature="0"
           id="path4218"
           d="m 466.83,421.95 -0.15,1.28 0,13.45 c 0,1.66 0.11,2 2.43,2 l 4.44,0 c 7.92,0 7.92,-5.28 7.92,-7.72 0,-2.34 0,-7.73 -7.92,-7.73 l -6.87,0 0.15,-1.28 8.42,0 c 5.97,0 11.36,4.03 11.36,9.01 0,4.88 -4.93,9.27 -11.76,9.27 l -17.58,0 0,-1.55 1.19,0 c 3.84,0 3.93,-0.54 3.93,-2.34 l 0,-26.25 c 0,-1.8 -0.09,-2.34 -3.93,-2.34 l -1.19,0 0,-1.55 c 1.73,0.16 5.42,0.16 7.31,0.16 1.89,0 5.64,0 7.38,-0.16 l 0,1.55 -1.19,0 c -3.84,0 -3.94,0.54 -3.94,2.34 z" /><path
           style="fill:#000000;stroke-width:0"
           inkscape:connector-curvature="0"
           id="path4220"
           d="m 506.87,425.53 -6.38,1.54 c -3.09,0.75 -5.03,3.44 -5.03,6.33 0,3.49 2.69,6.53 6.58,6.53 8.31,0 9.41,-8.17 9.7,-10.42 0.05,-0.3 0.05,-0.59 0.61,-0.59 0.64,0 0.64,0.25 0.64,1.2 l 0,10 c 0,0.86 0,1.2 -0.54,1.2 -0.35,0 -0.41,-0.04 -0.75,-0.65 l -1.74,-2.83 c -1.5,1.44 -3.55,3.48 -7.98,3.48 -5.53,0 -9.71,-4.39 -9.71,-9.67 0,-4.12 2.64,-7.76 6.52,-9.11 0.55,-0.2 3.09,-0.79 6.58,-1.64 1.34,-0.36 2.84,-0.7 4.23,-2.54 1.05,-1.3 1.55,-2.94 1.55,-4.58 0,-3.55 -2.49,-7.13 -6.67,-7.13 -1.46,0 -5.24,0.25 -7.88,2.69 -2.89,2.69 -3.05,5.87 -3.09,7.67 -0.05,0.5 -0.44,0.5 -0.6,0.5 -0.64,0 -0.64,-0.36 -0.64,-1.25 l 0,-9.97 c 0,-0.84 0,-1.18 0.55,-1.18 0.34,0 0.39,0.09 0.73,0.64 0,0.04 0.16,0.2 1.8,2.84 1.55,-1.69 4.74,-3.48 9.17,-3.48 5.83,0 9.82,4.87 9.82,10.35 0,4.99 -3.29,9.07 -7.47,10.07 z" /><path
           style="fill:#000000;stroke-width:0"
           inkscape:connector-curvature="0"
           id="path4222"
           d="m 546.2,417.71 -0.02,-0.65 -0.04,-0.64 -0.07,-0.61 -0.09,-0.6 -0.12,-0.58 -0.14,-0.56 -0.17,-0.55 -0.19,-0.52 -0.2,-0.5 -0.23,-0.49 -0.25,-0.46 -0.27,-0.45 -0.28,-0.42 -0.3,-0.4 -0.32,-0.39 -0.33,-0.36 -0.34,-0.34 -0.36,-0.32 -0.37,-0.3 -0.38,-0.28 -0.39,-0.26 -0.4,-0.24 -0.41,-0.21 -0.41,-0.19 -0.42,-0.18 -0.43,-0.14 -0.43,-0.13 -0.44,-0.1 -0.44,-0.08 -0.44,-0.06 -0.44,-0.04 -0.45,-0.01 c -2.34,0 -8.23,1.24 -8.23,10.71 l 0,18.98 c 0,1.8 0.11,2.34 3.94,2.34 l 1.2,0 0,1.55 c -1.75,-0.16 -5.44,-0.16 -7.33,-0.16 -1.89,0 -5.62,0 -7.37,0.16 l 0,-1.55 1.2,0 c 3.83,0 3.94,-0.54 3.94,-2.34 l 0,-18.78 c 0,-7.03 5.78,-12.45 12.54,-12.45 5.74,0 10.22,4.62 11.07,10.31 0.15,1 0.15,1.44 0.15,3.44 l 0,15.93 c 0,1.64 0,3.89 5.13,3.89 l 0,1.55 c -1.8,-0.05 -4.19,-0.16 -5.88,-0.16 -1.75,0 -4.14,0.11 -5.94,0.16 l 0,-1.55 c 5.15,0 5.15,-2.34 5.15,-3.68 z" /></g>    </g>
    <ellipse
       ry="3.8588398"
       rx="4.0406103"
       cy="192.01633"
       cx="505.25046"
       id="path4371-8"
       style="fill:#000000;fill-opacity:1;stroke:#000000;stroke-width:0.99999994;stroke-linecap:round;stroke-miterlimit:4;stroke-dasharray:none;stroke-dashoffset:0;stroke-opacity:1" />
    <g
       id="g4420"
       transform="matrix(0.16067296,0,0,0.16067273,337.85754,191.84515)">
      <g
         word-spacing="normal"
         letter-spacing="normal"
         font-size-adjust="none"
         font-stretch="normal"
         font-weight="normal"
         font-variant="normal"
         font-style="normal"
         stroke-miterlimit="10.433"
         xml:space="preserve"
         transform="matrix(1.0629921,0,0,-1.0629921,-186.02362,789.27165)"
         id="g4422"
         style="font-style:normal;font-variant:normal;font-weight:normal;font-stretch:normal;letter-spacing:normal;word-spacing:normal;text-anchor:start;fill:none;fill-opacity:1;fill-rule:evenodd;stroke:#000000;stroke-width:6.22382641;stroke-linecap:butt;stroke-linejoin:miter;stroke-miterlimit:10.43299961;stroke-dasharray:none;stroke-dashoffset:0;stroke-opacity:1"><path
           id="path4424"
           d="m 457.27,440.23 0,-1.55 1.19,0 c 3.84,0 3.93,-0.54 3.93,-2.34 l 0,-26.25 c 0,-1.8 -0.09,-2.34 -3.93,-2.34 l -1.19,0 0,-1.55 18.23,0 -1.34,1.55 -5.05,0 c -2.32,0 -2.43,0.34 -2.43,1.98 l 0,26.95 c 0,1.66 0.11,2 2.43,2 l 4.99,0 c 3.09,0 6.53,-1.09 9.08,-4.64 2.14,-2.93 2.57,-7.22 2.57,-11.11 0,-5.53 -0.93,-8.51 -2.73,-10.95 -1,-1.34 -3.83,-4.23 -8.86,-4.23 l 1.34,-1.55 c 8.36,0 15.24,7.37 15.24,16.73 0,9.47 -6.72,17.3 -15.24,17.3 z"
           inkscape:connector-curvature="0"
           style="fill:#000000;stroke-width:0" /><path
           id="path4426"
           d="m 499.09,417.71 0.05,1.05 c 0.29,7.42 4.48,8.66 6.18,8.66 5.13,0 5.63,-6.72 5.63,-8.66 l -11.81,0 -0.05,-1.05 13.91,0 c 1.09,0 1.23,0 1.23,1.05 0,4.92 -2.69,9.75 -8.91,9.75 -5.78,0 -10.37,-5.12 -10.37,-11.36 0,-6.67 5.23,-11.5 10.97,-11.5 6.08,0 8.31,5.53 8.31,6.47 0,0.5 -0.39,0.61 -0.64,0.61 -0.45,0 -0.55,-0.3 -0.66,-0.7 -1.73,-5.13 -6.22,-5.13 -6.72,-5.13 -2.5,0 -4.48,1.49 -5.62,3.33 -1.5,2.39 -1.5,5.69 -1.5,7.48 z"
           inkscape:connector-curvature="0"
           style="fill:#000000;stroke-width:0" /><path
           id="path4428"
           d="m 534.57,408.93 0,-3.28 7.32,0.55 0,1.55 c -3.49,0 -3.88,0.34 -3.88,2.78 l 0,30.25 -7.17,-0.55 0,-1.55 c 3.48,0 3.88,-0.34 3.88,-2.79 l 0,-10.75 c -1.44,1.78 -3.58,3.07 -6.29,3.07 l 0.21,-1.09 c 1.75,0 3.84,-0.75 5.39,-2.98 0.54,-0.85 0.54,-0.96 0.54,-1.85 l 0,0 0,-10.22 c 0,-0.89 0,-1 -0.54,-1.84 -1.5,-2.39 -3.75,-3.48 -5.89,-3.48 -2.24,0 -4.04,1.29 -5.22,3.18 -1.3,2.05 -1.45,4.89 -1.45,6.93 0,1.84 0.09,4.84 1.54,7.07 1.05,1.55 2.94,3.19 5.63,3.19 l -0.21,1.09 c -5.87,0 -11.11,-4.87 -11.11,-11.29 0,-6.33 4.9,-11.27 10.57,-11.27 3.18,0 5.43,1.69 6.68,3.28 z"
           inkscape:connector-curvature="0"
           style="fill:#000000;stroke-width:0" /><path
           id="path4430"
           d="m 552.17,428.21 -6.97,-0.54 0,-1.55 c 3.23,0 3.69,-0.3 3.69,-2.73 l 0,-13.41 c 0,-2.23 -0.55,-2.23 -3.89,-2.23 l 0,-1.55 c 1.59,0.05 4.28,0.16 5.48,0.16 1.75,0 3.49,-0.11 5.19,-0.16 l 0,1.55 c -3.3,0 -3.5,0.25 -3.5,2.18 z"
           inkscape:connector-curvature="0"
           style="fill:#000000;stroke-width:0" /><path
           id="path4432"
           d="m 552.37,436.89 0,0.14 -0.01,0.15 -0.02,0.14 -0.03,0.14 -0.03,0.13 -0.03,0.13 -0.05,0.13 -0.05,0.12 -0.05,0.12 -0.06,0.12 -0.07,0.11 -0.07,0.1 -0.07,0.1 -0.08,0.1 -0.09,0.1 -0.09,0.08 -0.09,0.09 -0.1,0.08 -0.1,0.07 -0.1,0.07 -0.11,0.07 -0.11,0.06 -0.11,0.05 -0.12,0.05 -0.12,0.04 -0.12,0.04 -0.12,0.03 -0.13,0.03 -0.12,0.02 -0.13,0.01 -0.13,0.01 -0.13,0.01 c -1.55,0 -2.64,-1.35 -2.64,-2.64 0,-1.35 1.09,-2.64 2.64,-2.64 1.39,0 2.64,1.04 2.64,2.64 z"
           inkscape:connector-curvature="0"
           style="fill:#000000;stroke-width:0" /><path
           id="path4434"
           d="m 562.98,417.06 0,0.38 0.01,0.36 0.02,0.36 0.02,0.35 0.02,0.34 0.03,0.34 0.04,0.32 0.04,0.32 0.05,0.31 0.05,0.3 0.05,0.29 0.07,0.29 0.13,0.55 0.15,0.51 0.17,0.49 0.18,0.46 0.2,0.43 0.2,0.4 0.23,0.38 0.23,0.35 0.24,0.32 0.25,0.3 0.25,0.28 0.27,0.26 0.27,0.23 0.27,0.21 0.28,0.19 0.28,0.16 0.29,0.15 0.28,0.13 0.28,0.12 0.28,0.09 0.28,0.08 0.28,0.06 0.27,0.05 0.26,0.03 0.26,0.02 0.26,0.01 c 0.43,0 3.57,-0.05 5.32,-1.85 -2.04,-0.15 -2.34,-1.64 -2.34,-2.29 0,-1.3 0.89,-2.3 2.3,-2.3 1.28,0 2.28,0.86 2.28,2.34 0,3.39 -3.78,5.33 -7.63,5.33 -6.22,0 -10.81,-5.37 -10.81,-11.55 0,-6.37 4.94,-11.31 10.72,-11.31 6.67,0 8.26,5.99 8.26,6.47 0,0.5 -0.5,0.5 -0.64,0.5 -0.45,0 -0.54,-0.19 -0.65,-0.5 -1.44,-4.62 -4.68,-5.22 -6.52,-5.22 -2.64,0 -7.03,2.14 -7.03,10.16 z"
           inkscape:connector-curvature="0"
           style="fill:#000000;stroke-width:0" /><path
           id="path4436"
           d="m 595.82,409.98 0.03,-0.19 0.03,-0.18 0.03,-0.19 0.04,-0.18 0.05,-0.19 0.06,-0.18 0.06,-0.18 0.07,-0.18 0.07,-0.18 0.08,-0.17 0.09,-0.18 0.1,-0.16 0.1,-0.16 0.1,-0.16 0.12,-0.16 0.12,-0.14 0.12,-0.14 0.13,-0.14 0.14,-0.13 0.15,-0.12 0.15,-0.12 0.15,-0.1 0.17,-0.1 0.17,-0.09 0.17,-0.08 0.18,-0.07 0.19,-0.06 0.19,-0.05 0.2,-0.04 0.21,-0.03 0.21,-0.02 0.22,-0.01 c 1.03,0 4.07,0.71 4.07,4.74 l 0,2.78 -1.25,0 0,-2.78 c 0,-2.89 -1.23,-3.19 -1.79,-3.19 -1.65,0 -1.85,2.23 -1.85,2.48 l 0,9.97 c 0,2.1 0,4.03 -1.78,5.88 -1.95,1.93 -4.44,2.73 -6.83,2.73 -4.09,0 -7.53,-2.33 -7.53,-5.62 0,-1.49 1,-2.35 2.3,-2.35 1.39,0 2.29,1 2.29,2.3 0,0.59 -0.25,2.23 -2.54,2.3 1.34,1.73 3.78,2.28 5.37,2.28 2.46,0 5.29,-1.94 5.29,-6.38 l 0,-1.84 0,-1.05 0,-4.98 c 0,-4.74 -3.58,-6.42 -5.83,-6.42 -2.44,0 -4.49,1.75 -4.49,4.23 0,2.73 2.1,6.88 10.32,7.17 l 0,0 0,1.05 c -2.54,-0.14 -6.02,-0.3 -9.16,-1.8 -3.74,-1.69 -4.99,-4.28 -4.99,-6.47 0,-4.03 4.83,-5.28 7.97,-5.28 3.3,0 5.58,1.99 6.53,4.33 z"
           inkscape:connector-curvature="0"
           style="fill:#000000;stroke-width:0" /><path
           id="path4438"
           d="m 612.81,426.12 7.13,0 0,1.55 -7.13,0 0,9.17 -1.25,0 c -0.04,-4.08 -1.54,-9.42 -6.42,-9.61 l 0,-1.11 4.24,0 0,-13.75 c 0,-6.12 4.62,-6.72 6.42,-6.72 3.53,0 4.93,3.53 4.93,6.72 l 0,2.84 -1.25,0 0,-2.73 c 0,-3.69 -1.5,-5.58 -3.34,-5.58 -3.33,0 -3.33,4.53 -3.33,5.38 z"
           inkscape:connector-curvature="0"
           style="fill:#000000;stroke-width:0" /><path
           id="path4440"
           d="m 629.03,417.71 0.05,1.05 c 0.3,7.42 4.49,8.66 6.19,8.66 5.13,0 5.63,-6.72 5.63,-8.66 l -11.82,0 -0.05,-1.05 13.91,0 c 1.09,0 1.24,0 1.24,1.05 0,4.92 -2.69,9.75 -8.91,9.75 -5.78,0 -10.37,-5.12 -10.37,-11.36 0,-6.67 5.23,-11.5 10.96,-11.5 6.08,0 8.32,5.53 8.32,6.47 0,0.5 -0.4,0.61 -0.65,0.61 -0.45,0 -0.54,-0.3 -0.65,-0.7 -1.73,-5.13 -6.22,-5.13 -6.72,-5.13 -2.5,0 -4.48,1.49 -5.63,3.33 -1.5,2.39 -1.5,5.69 -1.5,7.48 z"
           inkscape:connector-curvature="0"
           style="fill:#000000;stroke-width:0" /><path
           id="path4442"
           d="m 664.52,408.93 0,-3.28 7.31,0.55 0,1.55 c -3.48,0 -3.87,0.34 -3.87,2.78 l 0,30.25 -7.18,-0.55 0,-1.55 c 3.49,0 3.88,-0.34 3.88,-2.79 l 0,-10.75 c -1.44,1.78 -3.58,3.07 -6.28,3.07 l 0.2,-1.09 c 1.75,0 3.85,-0.75 5.39,-2.98 0.55,-0.85 0.55,-0.96 0.55,-1.85 l 0,0 0,-10.22 c 0,-0.89 0,-1 -0.55,-1.84 -1.5,-2.39 -3.75,-3.48 -5.89,-3.48 -2.23,0 -4.03,1.29 -5.22,3.18 -1.29,2.05 -1.45,4.89 -1.45,6.93 0,1.84 0.09,4.84 1.55,7.07 1.04,1.55 2.94,3.19 5.62,3.19 l -0.2,1.09 c -5.88,0 -11.11,-4.87 -11.11,-11.29 0,-6.33 4.89,-11.27 10.56,-11.27 3.19,0 5.44,1.69 6.69,3.28 z"
           inkscape:connector-curvature="0"
           style="fill:#000000;stroke-width:0" /></g>    </g>
  </g>
</svg>
